<svg width="720" height="640" viewBox="0 0 720 640" fill="black" xmlns="http://www.w3.org/2000/svg">
  <g xmlns="http://www.w3.org/2000/svg" fill="none" fill-rule="evenodd">
    <rect width="720" height="640"/>
  </g>
<g transform="translate(120, 80)"><path xmlns="http://www.w3.org/2000/svg" d="M214.5 70.5s-8 1.5-11.9 7.8c-3.5 5.6-4.1 14.3 4.6 21.5 4.9 4.1 12.4 5.5 17.7 3.3 13.6-5.5 9.1-20.4 9.1-20.4l-10.1-9.6-9.4-2.6z" fill="#b23031"/><path xmlns="http://www.w3.org/2000/svg" d="M226.3 78.8l-7.5 24.5-2.2 5.7s3.2 4.1 10.8 5.7c5.2 1.1 8.7 1.2 11 1 1.9-.2 4.2-.6 3-4.1-1.7-5.2-1.1-8.5-1.1-8.5l2.7-14.7-16.7-9.6z" fill="#ea9d7d"/><linearGradient xmlns="http://www.w3.org/2000/svg" id="hd-A" gradientUnits="userSpaceOnUse" x1="229.374" y1="95.734" x2="236.246" y2="86.885"><stop offset="0" stop-color="#bc5a32" stop-opacity="0"/><stop offset=".99" stop-color="#bc5a32"/></linearGradient><path xmlns="http://www.w3.org/2000/svg" d="M225.1 92c2.5 3.8 6.9 7 9.4 8.2 3.5 1.7 6 2.1 6 2.1l2.2-12.2-16.4-11.3-.9 1.7-.7 2.8c-.1.1-1.9 5.2.4 8.7z" fill="url(#hd-A)"/><use xmlns="http://www.w3.org/2000/svg" xmlns:xlink="http://www.w3.org/1999/xlink" xlink:href="#hd-F" fill="#cf7653"/><g xmlns="http://www.w3.org/2000/svg" fill="#a84d3b"><path d="M229.1 84.6l.2.5.4-.4z"/><path d="M229.1 84l-.3.9 1.1-.2zm5.3 3.8v1.1l1.1-.5zm-2.7-1.7l-.1 1.1 1.1-.4zm-1.5-1.1l-.2 1.1 1.2-.3z"/><path d="M228.4 83l-.4 1h1.2zm7.5 7.2l-.5-.6-.4.7zm-1.4-1.1l-.6-.8-.3.9zm4.1 2.1l-.7-.7-.2.8zm3 1.1l-.7-.8-.3.9zm-5.3-3.6l-.6-.3v.9zm1.4 3.1l-.5-.5-.3.7zm-3.9-4l-.6-.4-.1.9zm5.3 2.1l-1-.4.1 1.2zm1.9.3l-.8-.1.2.9zm1.3 1.6h-.8l.3.7zm-2.8-.2l-.3-.7-.5.7zm2.4 2.3l.1-.7-.8.2zm-.2 1.3l.1-.7-.8.2zm-1.7 0l-.4.3.5.3zm.3-3.9l-.4.4.6.3zm2.3-.7l-.6-.1.2.6zm-1.9 5.8l-.4.3.6.3zM230.8 86l-.4.3.5.3zm6.7 4.8l-.3-.3-.1.5zm-2.8-.8l.1-.4h-.5zm1.4.9l.2-.4h-.5zm2.1 2l.2.5.5-.4zm2.9-2l-.3.3.4.2z"/><path d="M241.3 90.4l-.5.4.6.3zm-1.2.4l-.4.3.4.2zm.4 7.1l-.4.2.4.3zm-1.1-1.1l.2.4.3-.4zm-.1-2.4l.2.4.3-.4zm1.9.9l-.3-.2-.1.4zm-13.9-4.7l.2.2.2-.3zm1.9-1.2l-.2.2h.3zm2 3.5l-.3-.1.1.4zm-1-1.7l-.2.3h.4zm6.9 3.2l-.1.6.6-.3zm-.9-4.5v.5l.5-.2zm0-1v.5l.6-.3zm-7.7-3.1v.6l.5-.3zm12 7.3l-.5.1.4.4zm-1.5 4.2l-.2-.4-.4.4zm.3-5.2l.3.4.3-.5zm1.6.6l.3.5.3-.6zm1-1.9l-.3.4.5.1zm-.6 3.2l-.4-.3v.6zM230 85.1l-.6.4.7.4zm-2 .8l-.3-.3-.1.5zm-2-1l-.2-.2-.1.4zm-.5 3.1l.1-.4h-.4zm3.8-2.2l.2.4.4-.4zm-1.2-1l.3.6.5-.5zm-.2-2.7l-.4.6.8.1zm3 4.8l-.3.2.4.3zm.8-.4l-.3.2.4.2zm.8.4l-.3.2.3.3zm-1.5 2.7l-.2-.2-.1.4zm-6-3.4l.2.3.3-.4zm2.3-2.3l-.3.2.4.2zm-.1 3.7l-.3-.2-.1.4zm.3-4.1l.2.3.3-.4zm1 .5l.2.4.3-.4zm-2.3-1l-.3.3.4.1zm.3-1l-.3-.2-.1.4zm5.3 5.5v.4l.5-.2zm1.9.8l-.4.1.3.3zm-.8-.8l-.4.1.3.3zm6.7 3l-.4.1.3.3zm-1.5-.6l-.3.1.2.3zm-4.7.7l-.1-.3-.3.3zm5.6 5l-.1-.3-.3.3zm-6.1-6l-.2-.3-.3.3zm2.6-.6v.5l.4-.2zm1.6.4v.4l.4-.2zm1.8.9l-.4.1.3.3zm-1.4 2l-.2-.3-.2.3zm-4.3-.1v.4l.4-.2zm1.9-1l-.3.1.2.3zm3.4.8l-.1-.3-.3.3z"/></g><path xmlns="http://www.w3.org/2000/svg" d="M251.1 53.1c2.2 2.8 2.9 5.2 3.3 8.1l.3 5.4c0 4.2-.3 10.1-.8 13.4-1 5.7-3.7 9.1-6.9 10.1s-9-1.1-12.9-3.1c-3.3-1.7-5.2-3.5-5.7-5.6-.5-2.2-1.5-5-1.5-5l-5.7-3.9s-4.4-15.1 5.3-21.6c8.4-5.6 20.7-2.7 24.6 2.2z" fill="#ea9d7d"/><path xmlns="http://www.w3.org/2000/svg" d="M243.6 90.6c-1.1 0-2-.2-4-.7-3.2-.8-7.7-3.3-10-5.5-2.2-2.2-2-4.3-2-4.4 0-.2 0-.5.2-.5s.3.2.4.4c.1.4.1 2.1 1.9 3.9 2.1 2.1 6.6 4.5 9.6 5.3 3.1.7 3.7.9 6 .7 2.2-.2 3.4-.9 3.4-.9.4-.3.5-.3.3 0-.2.2-1.4 1.2-3.6 1.6-1 .1-1.5.1-2.2.1z" fill="#b76349"/><path xmlns="http://www.w3.org/2000/svg" d="M238.4 68.4a.78.78 0 0 1-.2-1c.1-.1 1.7-2.5 5.3-2.2.4 0 .7.4.7.8s-.4.7-.8.7c-2.7-.2-3.8 1.5-3.9 1.6-.3.4-1 .2-1.1.1zm14.9-1.8c-.1 0-.3 0-.4-.1-.7-.5-1.5-.4-1.6-.4-.4.1-.8-.2-.9-.6s.2-.8.6-.9c.1 0 1.5-.4 2.8.7.3.2.3.7.1 1-.1.2-.4.3-.6.3z" fill="#b4603f"/><path xmlns="http://www.w3.org/2000/svg" d="M209.9 65.5c1.9 4.8 6.1 4.6 6.1 4.6s2.4-4.3.9-7.5c-1.2-2.7-4.8-4.3-6.2-4.8-.3-.1-.6 0-.7.3-.4 1.3-1.2 4.7-.1 7.4z" fill="#ffb600"/><path xmlns="http://www.w3.org/2000/svg" d="M212 65.5c1.3 3.8 3.3 3.3 3.3 3.3s1.5-1.6-.1-4.8c-.6-1.2-2.5-2.5-3-2.7-.1 0-.3 0-.3.1-.2.6-.3 2.9.1 4.1z" fill="#ffa300"/><path xmlns="http://www.w3.org/2000/svg" d="M208.6 73.5c5.2.3 6.7-3.6 6.7-3.6s-2.9-4-6.5-4c-2.9 0-5.9 2.6-6.9 3.6-.2.2-.2.5 0 .7 1.1 1 3.8 3.2 6.7 3.3z" fill="#ffb600"/><path xmlns="http://www.w3.org/2000/svg" d="M244 84.4h0c-3.8-.2-5.4-2.9-5.8-4.4-.1-.4.1-.8.5-.9s.8.1.9.5c0 .1.8 3.1 4.4 3.3.4 0 .7.4.7.7 0 .5-.3.8-.7.8z" fill="#cf7653"/><path xmlns="http://www.w3.org/2000/svg" d="M247.2 78.9h-.2c-.4 0-.6-.4-.6-.7 0-.4.4-.6.7-.6.2 0 .7 0 .9-.6s-.3-1.5-.5-1.8-.2-.7.1-.9.7-.2.9.1c.1.2 1.2 1.6.8 3-.4 1.2-1.5 1.5-2.1 1.5z" fill="#b4603f"/><g xmlns="http://www.w3.org/2000/svg" fill="#4f2b23"><circle cx="242" cy="72.1" r="1.4"/><path d="M241.7 71.7c-.2 0-.8.2-.9 0-.1-.3.4-.9.7-1 1-.5 1.8-.4 2.1-.4a.47.47 0 1 1 0 1c-.3 0-.9 0-1.7.3-.1.1-.1.1-.2.1z"/><circle cx="252.4" cy="71.3" r="1.4"/><path d="M252.1 70.9c-.2 0-.9.2-1 0-.1-.3.5-.8.8-1 1-.5 1.8-.4 2.1-.4a.47.47 0 1 1 0 1c-.3 0-.9 0-1.7.3-.1.1-.1.1-.2.1z"/></g><g xmlns="http://www.w3.org/2000/svg" fill="#f4b9a6"><path d="M244.8 76.5l.6-.4-.7-.4zm-7.6-1l-.2-.5-.5.5zm9.7.4h.9l-.5-1zm-1.6-3.1l.6.5.2-.8zm.4-.9l.9-.5-.8-.6zm1.6 8.1l.8-.4-.7-.7zm2.3-.9l.4-1h-1zm-5-3.4l-.7.1.4.7z"/><path d="M245.2 74.8l-.8.1.5.6zm-.5 3.7l.2.7.7-.5zm.2 1.4l.6.4.2-.7zm3.4 2.5l-.7.1.5.6zm-1.5-15.3l-.3.5h.8zm.3 4.4l-.6-.2.2.7zm.8-2.1l-.6-.2.2.7zm-4.2 2.8l-.2.6.8-.1zm.8-3.1l-.7.3.7.5zm-2.9.7l-.4.1.2.4zm5.5 12.4l-.6.2.3.5zm-.7-.4l-.6.1.4.6zm-4.9-4.3h-.6l.3.6zm1.4 1.3h-.6l.3.6zm-1.7-3.4l-.2.6.8-.2zm3.2-.4l-.1-.5-.6.5zm6 5.8l.3-.4-.6-.1zm-2.2-1.9l.3.1.1-.4zm4.1-3.9v.5l.3-.2zm-2 1.9l.4.1v-.5z"/><path d="M252.4 75.8l.2-.4h-.5zM240 71.2l-.3.4.5.1zm5.9-2.3l.8-.1-.5-.7zm-.1 8.8l.9-.1-.6-.8zm-.6-5.8l-.6-.1.1.6zm-4.9 3.9v-.6l-.7.3zm4-5.6v.7l.8-.4zm-.9 1.3v.7l.9-.3zm.7-.5v.7l.8-.4zm6 .2l.5.3.1-.7zm-5 2.8l-.3-.4-.4.5zm2.3 7.6l-.5.1.4.5zm-2.4-4l-.2.4.6-.1zm.4 3l-.2-.5-.3.5zm.9.5l.4-.3-.6-.2zm.3-1l.4-.3-.5-.4zm-.2-.8l.5-.3-.6-.4zm0-2.6l.5-.3-.6-.4zm-1.2.1l.4.4.2-.5zm4.9 4.6l-.6.1.4.5zm-2.4-5.2l-.2.4.4.3zm.9 5.5l-.3-.4-.3.4zm-3.2 1.5v.6l.7-.3zm-1.2-3l-.6.2.4.4zm-5-6.3l-.3-.4-.3.5zm5.2 7.7l.3.2.2-.6zm-1.5-1.2l.4.3.1-.6zm-1.1 3.9l-.3.4h.6zm-.8-.7l-.5-.1.1.5zm-1-.2h-.5l.1.5zm5.7-7.7l1-.2-.8-.9zm-.6-2.5l.2.5.4-.5z"/><path d="M245.1 74.1l.4.9.8-.9zm2.7-1.1l-.8.7 1 .3zm-6.7 1l.1-.4-.6.2zm6 0l-.3.3.5.2zm-1.7-3.3l.6-.1-.4-.5zm3.8 1.7l.6-.1-.4-.6zm-4.2-.3l.6-.1-.4-.6zm4.6-2.6l.6-.1-.4-.5zm-2-1.5l-.5.2.6.3zm-5 1.3l.1-.4-.6.2zm0 7.9l-.1.7.8-.2zm-.9-.5l-.6.1.3.6zm1 2.9l-.1.6.7-.2zm1.2-2.6v.7l.7-.3zm-.8 1.3v.8l.9-.4zm-.6-2l.1-.6-.6.3zm8.2-3.5l.6-.1-.4-.5zm-2.1-2.2l.2.4.4-.4zm3.9 7.4l.5-.2-.4-.3zm-8.7-8.7v-.4l-.5.2zm3.6 1.5l-.1.6.7-.2zm-.7-1.2l-.1.6.7-.2zm1.5 4.5l.8.6.4-1zm1.2 1.6l1-.2-.6-1zm-3.4.3l.4.1-.1-.3zm0-2.5l-.2.4.6.1zm1.2-1.2h-.6l.4.6zm1.9.4l-.6.1.3.6z"/><path d="M247.3 73l1-.5-1-.7zm1.7-4.4l.4-.6-.8-.1zm-3 9.9l.4-.6h-.8zm.3-4.4l.9-.4-.9-.6zm1.3-4.1l.3.3.2-.5zm1.2 1.1l-.7.8 1.3.2zm1-1.2l-.3.4.6.1zm.3 3.9l.3.4.3-.5zm-1.3-4.5l-.3.4h.6zm-8.3 4.4l-.6.2.5.5zm2.9-.8l-.4.5h.7zm-.5.8l-.1-.4-.5.3zm-.7.5v-.4l-.5.3z"/></g><use xmlns="http://www.w3.org/2000/svg" xmlns:xlink="http://www.w3.org/1999/xlink" xlink:href="#hd-F" x="-0.2" fill="#cf7653"/><linearGradient xmlns="http://www.w3.org/2000/svg" id="hd-B" gradientUnits="userSpaceOnUse" x1="240.021" y1="64.404" x2="236.191" y2="59.097"><stop offset="0" stop-color="#bc5a32" stop-opacity="0"/><stop offset=".99" stop-color="#bc5a32"/></linearGradient><path xmlns="http://www.w3.org/2000/svg" d="M231 70.6l8.2-5.5c5.5-2.6 13.3-2.1 13.3-2.1l-6.8-4.7H236l-5 12.3z" fill="url(#hd-B)"/><path xmlns="http://www.w3.org/2000/svg" d="M227.4 81.4l-.4.3.5.3z" fill="#a84d3b"/><path xmlns="http://www.w3.org/2000/svg" d="M217.8 68.6s-2.6-18.2 14.1-21.8 21.4 7.3 22.2 8.9 1.3 5.2 1.2 6.7-.9 1.5-.9 1.5-6.8.1-11.8-2.2l-5.8-2.4s.1 4.7-1.8 8.7-3.5 4.9-6 4.3c-2.4-.5-7.3.3-7.3.3s-3.9 0-3.9-4z" fill="#b23031"/><path xmlns="http://www.w3.org/2000/svg" d="M210 71.4c4 .2 4.3-1.8 4.3-1.8s-.9-2-4.5-1.8c-1.3.1-3.3 1.3-3.7 1.8-.1.1-.1.2 0 .3.5.4 2.6 1.5 3.9 1.5z" fill="#ffa300"/><linearGradient xmlns="http://www.w3.org/2000/svg" id="hd-C" gradientUnits="userSpaceOnUse" x1="223.873" y1="80.955" x2="216.716" y2="66.436"><stop offset=".007" stop-color="#ff7a00"/><stop offset=".983" stop-color="#ffb600"/></linearGradient><path xmlns="http://www.w3.org/2000/svg" d="M213.5 72.4l11 8.2 2.2-6.5-9.4-7.5c-.4-.3-.9-.2-1.1.2l-2.9 4.8c-.1.3 0 .6.2.8z" fill="url(#hd-C)"/><g xmlns="http://www.w3.org/2000/svg" fill="#d3505d"><path d="M249 49.4l-.3 1.2 1.3-.3-.5-.5zm-21.7-1l1 .7.2-1.3zm23.5 2.6l-.2.9.9-.2zm-3.3-1.4l-1.2.6 1.1.9zm-13.8-2.2l.1.6.6-.2zm-8.7 3.1l.1.8.7-.4zm1.2.1l.2.8.7-.5zm-1.4 1.5l1.5.2-.3-1.5zm3.1-2l-.7.9 1.1.4zm-4.5 2.2h1.1l-.3-1.3zm26.1-.2l-.4.3.6.2zm-1.3.4l-.4.4.6.1zm-12.7-5l-.2.4.5.1zm10.8 2.3l.4-.4-.7-.3zm5.4 2.1l-.3.5.5.1zm-1.9-.5l-.7-.3.1.9z"/><path d="M246.3 50.3l-.5-.5-.3.8zm2.2.2l-.5-.5-.3.8zm-11.6-3.6l-1.1.2.2.8zm-1.6.3l.1-.8-.9.4zm-2.9-.1l-.8-.1.1.9zm1.4 0l-.7-.1.1.9zm-6.8 2.2l-.8-.1.4 1.1zm-1.2 1.3l.2-.9-1 .3zm3.9-3.1l-1 .3.4.8zm-2.6 2.1l1 .1-.4-1.2z"/><path d="M226.6 50.3l1.1.3-.3-1.3zm1.1-.1l1 .5.1-1.3zm22.6 1.3l.1-.9-.9.4zm-14.7-5.3l.6.9.5-1zm-1.9.4l.6.8.4-1zm-1.6.2l.7.8.5-1zm-8.5 4.1l1 .5-.1-1.2zm3.5-2.4l-.6.3.6.6z"/><path d="M225.2 49.6l-.7.5.7.4zm-1.5 1.2l-.5.5.6.3zm25.3 3l-.2.3h.5zm-1.4 0l-.2.3h.5zm3.5-1.3l-.3-.1.1.4zm-1.2-.6l.3.4.2-.6zm-1.7-.4l.4.4.1-.6zm-13.6-4.1l.3.3.2-.5zm14.6 5.4l-.1.4.4.1zm-17.9 2.3l-.2.4h.5zm17.2-6l-.7.5.9.6zm-1.2 3.8l-.4-.3-.1.4zm.4-1l.3.1-.1-.4zm-2.7-.4l.5.1-.1-.7zm2.5-2.2l.6-.5-.7-.4zm-2.9 2.7l-.1.4.4-.1z"/><path d="M247.1 49.6l.4-.6-.8-.3zm-16.2-1.9l.2-.7-.9.3zm-4.7 2l-.1-.7-.8.5zm23.7 3.9l.2.3.3-.3zm-3.6-.3h-.4l.1.4zm-16.1 1l-.3.2.4.2zm13.7-2.3h-.3l.1.4zm7.7 1.8l.5.3v-.6zm-.5-.6l.5.2v-.6zm-14.8-.7V52l-.5.3zm-6.2-5.1l-.7 1.3 1.2-.2zm6.1 1.1l-.1-.9-.9.5zm-5.2 3.2l-.4.9.9.1zm3.2-.1l-.3.6.7.1zm-2.1 1.8l.4.1v-.4zm-2.2-1.5v.3h.4zm3.8 1l-.3.1.2.2zm-1.6-.8l-.1.6.7-.3zm3.9 2l-.4.1.3.3zm-7.3-.1l.7.6.3-.8zm2.7-6.7l-.8.9 1.4.4v-.7zm-.3 1.6l-.4.8.9.2-.1-.7zm.7 1.1l-.7-.1-.5.4.8 1.1zm-7.1 5.7l-.5.8h1zm6.3-7.2l-1.3.3.8.6zm-1.7.1l-.6.2-.3.7 1.2.3zm5.8-.9l-1.2.3.9 1.1z"/><path d="M235.9 48.5h-1.1l.9.8zm.2 1.2l-.8-.4-.1 1.1zm-5.9 1l-1.2-.6-.2.8.4.4zm-.6.9h-.9l.4.9zm-1.4 0l-1.3-.2.3 1.3zm6.5-.7l-.1-1-1 .4zM233 52l.6-.8-1-.3zm-5 2.9l.5-.5-.9-.3z"/><path d="M228.7 56.3l.3-.7h-.8zm-.3-3l.7.1v-.7zm4-1.7l-.6-.7-.5.9zm-1.7-2l-1-.2.5 1.3zm2.9-1.8l-1.1.7.7.5zm.2 1.7l-.6.4.4.6zm-1 .3l-.4.7.8.2zm-1.4 3.6l-.4-.1.1.4zm-1.1-.7l-.7-.3.1 1zm1.6-1.8l.4.2.2-.5zm.3-3.1l.3.4.4-.3zm2.6 1.5l-.7-.4-.2.9zm-4.3 1.8h-.8l.4.9zm-1.9.7l-.8.3.7.6zm5.2-3l-.2-.3-.2.5zm10.4 4l-.1.4.5-.1z"/><path d="M235.5 52.9l-.2.3.3.2zm-.2-1.6l.2.5.3-.4zm-2-.9l-.1-.5-.5.3zm-.6-1.6l-.6.6v.4l1-.2zm-.6-.4l-.1.5.3-.2zm1.8 1.6l-.1.3.4-.1zm-.7 2.3l-.1.4.4-.2zm.8-4.4l-.4-.1.1.4zm12.9 3.7l.2-.5h-.5zm-.9 1l.1-.5-.5.1zm-15.9 3l-.1-.5-.5.4zm15.9-5.3v.6l.5-.3zm-12.7-1.4l.3.3.2-.4zm13 2.8l-.3-.4-.2.4zm-13.2 2.7h-.5l.2.5zm1.3-3.4l-.2.3.4.2zm-.7-.1l-.3-.1-.1.4zm-4 5.1l-.2.5.5.1zm12-2.2l-.2.4h.5zm.7-1.8l.5.2-.1-.4zm-.7.1l-.4-.2.2.5zm1.7 1h-.4l.2.4zm-17.8 5l-.5-.2v.5zm1.5-.5l-.6-.3v.8zm-2.8-3.9l.6.7.6-.9zm1.8-1.2l.3.4.4-.6zm.7.9l.3.5.4-.6zm-7.7 4.1l-.3.8.9-.2zm4.6.3l.9-.2-.6-.8zm-2.2 0l.8-.2-.6-.8zm2.5 1.1l.3.3.2-.3zm-2.4 4.3l.2.3.3-.3zm1.1-2.4l.3.4.2-.3zm4.7-8.1l.8.9.7-1.3zm-1.6 2.3l1.2-.4-1-1.1zm-3-.7l1-.3-.7-.9z"/><path d="M225.7 52.6l-.5.6.9.4zm1.7 2.3h-.5l.3.6zm-4.3 1.8l.6.1-.2-.6zm-1.1-1.8l.1.5.4-.3zm-1.1.3l-.1.5.6-.1zm5.4.4l-.8.5.8.5zm10-5.4l-.8.2.7.7zm4.2-2.9l-.2.6.8-.1zm1.8.3l-.4.3.5.2zm.9.3l-.6-.3-.1.9zm-1.1-.4l.3-1-1 .4zm-3.2-1.3l-.8-.1.3.9zm1.8.7l-.7-.4-.1.9zm1.9-.3l.3 1 .8-.8zm-2.1-.4l.4 1.1.7-.9zm-1.5-.1l.4 1 .8-.9z"/><path d="M241.3 47.6l.3.4.3-.5zm-4 5.8l-.3.4.5.1zm.3-6.6l.3-.7h-.9zm4.1 4.6l.1-.4h-.5zm.8-2.3l.2-.9-1 .2zm.2.5l.9-.2-.6-.9zm-6 1.1l-.7.7.9.3zm3.1.8l-.5.5.6.2zm-2.6 1l.3.3.1-.4zm1.7.1l-.3-.1.1.4zm-1.3-1.3l-.3.6.8-.1zm3.2 3h-.4l.1.4zm-2.8-7.5l-.7.5.8.6.2-.5zm-.4 1.2l-.7.6.8.5.2-.7zm-.4 1l-.3-.2-.4.1.3.8zm.3-1.5h-1.3l.6.8z"/><path d="M241.8 48l-1.4-.1.6 1.4z"/><path d="M242.2 49l-1-.3.6 1zm-.1 1.2l-.7-.6-.4 1zm-1.7.7l.2-1-1 .2zm-2.4.4l.8-.5-.9-.6zm-.2-1.1l-.5-1-.7.8zm2.5-2.5l-1.3.3.5.7zm-.4 1.7l-.6.1.2.7zm-1-.1l-.6.6.7.4z"/><path d="M236.8 52.9l-.4-.3v.5zm.9-2.8l.3.4.3-.5zm1-3.3l-.2.9 1.2-.4zm2.2 2.7l-.5-.7-.4.9zm2.9-1.6l-.2.6.7.1zm1.7.7l-.4.2.4.3zm.9.5l-.6-.5-.3.9zm-1.1-.6l.6-.9-1.1.1z"/><path d="M244.1 47.5l-.5-.4-.3.8zm2 .2v1.1l1-.7zm-2-.8l.2 1.1.9-.7zm.5 1.5l.1.4.4-.4zm.9 1.7l.3-.8h-1zm-.6-1.2l-1.2-.4.2 1.5z"/><path d="M245.2 49.9l-1-.4.4 1zm-.4 1.2l-.6-.8-.6 1zm-1.9 0l.2-.5h-.6zm.9-1l-.3-.7-.7.7zm-3.5-1.3l-.2-.7-.6.9zm.4 4.3l-.4.2.2.3zm.2-1.6v.5l.5-.3zm-1.6-1.5v-.5l-.6.2zm-.2-1.6l-.8.3v.4l.9.1zm-.5-.8l-.4.8.7-.1zm1.3 2.3l-.1.2h.4zm-1.3 1.9l-.2.4h.4zm.3 2l-.4-.1v.5zm1.2-2.9l-.3.3.4.2zm-.7-.2l-.2-.3-.2.4zM221.6 55l.1-1-1 .3z"/><path d="M221.9 56.1l-.8-.4-.1 1zm-.9-.7l-.5-.8-.5.9zm-.5 1.1l.4-.8-1.1.1zm3.1-2.6l.5-.2-.4-.5zm-.8.3l-.8.1.5.7zm-1.7-.6l.4.6.4-.6zm3.3-1.7l-.6 1.1 1.5.2zm-1.4 5.4h.3l-.1-.4zm-2.5 1l.3.2.1-.4zm-.6-.7l.4.4.3-.7zm5.2-2.9l-.8.4.7.6zm-1.5.3l.5-.1-.3-.5zm-1.2-3l1 .5-.3-1.2zm.3 3.1l.3.8.7-.7zm-1.3-1.9l1.1.2-.3-1.2zm-2.2 4.1l1-.3-.5-.8z"/><path d="M224.2 55.6l-.5.1.4.4zm.5 2.4l-.3.2.2.3zm-5.4 7.4l-.3.1.3.3zm3.1-12.5l.9.2-.3-1zm4.6 3.8h.4l-.1-.5zm-6.4.9l.4.5.4-.6zm1.5-1.4v.6l.7-.2zm-1.9.3l.4.5.3-.6zm-.7.8l.5.5.3-.6zm3.6.3h-.4l.4.4zm-5.2 4.7l-.1.8.9-.4zm-.2 1.9l.6-.2-.5-.5zm3.1-1.4l.4.3.1-.4zm.4-2.2l.5-.3-.5-.3zm-1.1-1.6l.2.5.4-.4zm-.5 4.4l.2.5.4-.4zm-.4-3.8v.5l.5-.2zm.6-.4l-.2-1-.9.6z"/><path d="M220.8 60.2l-.9-.2.2 1zm-1.5-.5l-.7-.7-.3 1.1zm-.2 1.3l.1-1-1 .4zm1.6-2.9l-.7.3.7.6zm.9 3h.4l-.2-.4zm-2.1 1.6l.3.1.1-.4zm-1 1.8l.3.1.1-.4zm.3-2.4l.5.3v-.7z"/><path d="M221.7 58.7l.5-.2-.4-.4zm-.8.3l.5.7.4-.9zm-3 3l.9-.5-.7-.6zm4.5-2.9l-.4.2.5.3zm-4.1 4.3l.6.4.1-.7zm-.6 1.4l.4.3.1-.6zm2.5-3.3l.1.6.7-.4zm-1.4-.5l.5.4.2-.7zm-.4 1l.5.3.1-.7zm3.5-.7l-.4.2.4.2zm-1.2 3.9l-.4.2.4.2z"/></g><g xmlns="http://www.w3.org/2000/svg" fill="#93282d"><path d="M238.4 59.3l.5-.5-.7-.3zm6.5 2.6l.6-.5-.8-.4zm1.1 1l-.3-1.4-1.2.9z"/><path d="M243.5 62l1 .4-.1-1.2zm-6.2-4l.3-.1-.3-.4zm-.6-1.3l-.4.5.5.3zm-2 4.3l.5.4.2-.7z"/><path d="M236.4 57.7l.4.6.4-.7zm.9.6l-.7.5.9.5zm6.2 3.7l-.1-1.1-1.1.6zm-5-2.3v-1l-1 .5zm1.8.8l-.2-1.1-.9.6zm-5.5-.4l.3-.3-.4-.2zm3.1-1.5l-.1-.4-.4.3zm7.4-1.9l.4-.1-.3-.3zm-8.7-1.3l.2.3.2-.3zm1 .8l-.5-.1v.6zm1.1.2l.1-.3-.4-.1zm-2.3.1l.4-.1-.3-.3zm7-.7l.4.1-.1-.5zm-4.2-.9h.3l-.1-.4zm.6.6l-.4.4.5.2zm1.4 5.4l.7.4v-1.2z"/><path d="M237.5 56.7l-.6.8.9.3zm5.5.3l-.1-.4-.3.3zm1.3 2l.5-.3-.5-.4zm-1.8-3l.3.3.1-.4zm-.5-1l.2.1.2-.3zm2.1 6.3l.3-1-.9.1zm-3.9-.8l.9.4.1-1.2-.7.2zm1.1-1.3h.5l-.2-.5-.3.2zm.5 1.6l.4.7.7-.3-.3-1.1zm1.9-1.5l.2.7.4-.2.2-.3zm1.3-.8l.5.7.4-.9zm-.1 1.8l.3 1.2 1-.8zm-5.7-1.2l-.7.6 1 .5zm1.5-1l-1 .2.5.9zm6.7-.1h-.7l.3.6zm3.9 1.9l-.7-.1.2.7z"/><path d="M241.1 59.7l.9.8.4-1.4zm-5.5-1.5l1.1.6-.1-.9zm7.8-.8l.2.4.3-.3zm-1.3.1v-.4l-.4.2zm-2.3 2.5l.1-.5h-.5zm-1.5-2.4v.8l.8-.5zm3.4.5l.6.7.3-1zm1 .4l.6.7.3-.9zm-2.3.8l.3.4.2-.6zm4.2.6l.5.6.4-.8zm-5.4-1.7l.2.3.3-.2zm1.7-1.4l-.3.4.5.1zm-.2 1.9h.4l.2-.2-.4-.6zm-.4.3l.3-.3-.3-.2zm-.3-1.8l.3-.2-.4-.1zm1.6-1.3l.3-.2-.4-.2z"/><path d="M238.6 58.7l.2.4.3-.5zm-2.4 2v.5l.4-.2zm2.1-3.4l.1-.6-.7.2zm5.4 3.2l-.3-.9-.7.7zm-3.9-2V58l-.5.2zm-4.1 1.4l.3.4.2-.5zm11.1-3l.1.5.3-.4zm-6.5-.8h.4l-.3-.4zm.9 0l-.1.4.4-.2zm-6.8 13L233 69l.5 1.5zm10.9-11.2h.5l-.1-.5zm5.1 3.4l.9.2-.2-1zm.7-2.9v.4l.4-.2zm-3.2 3.7l.5-.9h-1.2zm-1.7.3l.2-.6-.6.1zm.3-1l.3-.5h-.7zm-10.6 3.8l.4-1.6-1.4.3zm.4-1.7l.2-1.2-1.2.5zm13.2-3.4l.4-.5-.6-.2zm3.2-.6l.3-.4-.5-.1zm-21.2 7.1l-.1-.5-.4.3zm1-5.3h.4l-.2-.5zm13.5-.9l.4-.8-1-.1zm2.7-.3l-1-.7-.3 1.2zm.4 3.3l-.3-.9-.9.7zm5.1.4l-.5-1-.7 1.1zm-7.8-2.2l.8.3-.2-1zm-12.7.4l-.3.1.2.3zm-1.6 3.4l-.2-.2-.2.3zm-1.5 4.3l.2-.2-.3-.1zm-.7-4.1l-.3-.3-.1.4zm2.8-1.6l-.4-.4-.2.5zm0-1l.2-.3h-.3zm15.3-4.1l.2.5.4-.5zm-14.5 7.6l-.4-.4-.2.6zm1.1.4l-.6-.6-.3 1zm-3.8 5.4l-.3-.8-.7.8zm3.9-3.9l-.8-.5-.1 1.1zm15.6-5.3l.4-.2-.5-.3zm.4.5l.7.1-.7-.6z"/><path d="M246.7 60.1l.5.4.1-.8zm-8.1-3.3l.7.3.1-.9zm12.1 5.5l.1.9.9-.7zm-2.4.4l-.6-.3v.6zm.8.8l1.1.1-.1-.9zm-2.8-.6l1.2.2-.7-1.3zm-12.8 3.7l.4-.1-.3-.3zm1.9-1.9l-.9-.4.1 1.3zm-3.4 2.7h-.5l.2.5zm2.9.7l.4-.9-1.2.1zm-1.7-2.9l-.1-.8-.6.5zm-.4 3.5l.8-.2-.5-.8zm3.1-3.3l-1.4.3.9 1.3zm-2.3-1.5l.6-.4-.6-.4zm1.5-.7h-.7l.3.8zm-.9 2.2l-.5-.6-.4.8zm-3 2.7l-.2-.2-.1.5zm20.6-6.9l-.1-.4-.3.2zm1.3.7l-.1-.2-.3.2zm.6.8v-.6l-.6.4zm-22.3 7.2l-.3-.2-.1.4zm3.5-8l-.4.4.5.1zm-2.2 9.4l.7-.7-1-.4zm-1-1.7l.1-.4-.5.1zm.8.2l.2-.7-.8.2zm-.6-1.4l.7-.1-.4-.7zm16.4-7.8l.7.5.2-1zm.7 1.6l-.5-.5-.2.7zm.9 0l-.5-.6-.2.7zm.2 0l.4-.8-1-.2zm2.8 1.6l-.5-1.1-.4 1zm-3.3-3.3l.4.4.1-.6z"/><path d="M251.7 59.3l.3.2.2-.5zM231 71.1h.8l-.4-.7zm18.7-12.6l-.2-.4-.3.3zm4 3.4l.6.6.3-.8zm.3-.9l-.5.1.3.5zm.4 1.7l.6.6.3-1zm.3-1.3l.5.1-.2-.5zm-.2 2.3l.4-.2-.5-.3zm-2-1.6l.1-.6-.7.2zm-1.2.4l.5-.4-.5-.4zm.8.6v-.6l-.6.3zm1-.1v-.6l-.6.2zm1.4-2.5l.4.2.1-.4zm-2-.3l.3.3.2-.5zM231.8 67l-.2-.5-.4.4zm-2.1 3.7l.3-.4-.6-.2zm2.6-3.9l.3-.5-.7-.1zm0 4.8l-.5-.2v.6zm-.9.2l-.4-.3v.6zm4.2-9.9l.9.5-.2-.8zm16.4-1l.3.2.1-.3zm-21.4 9.5h.3l-.2-.4z"/></g><ellipse xmlns="http://www.w3.org/2000/svg" cx="224.6" cy="75.3" rx="5.3" ry="5.7" fill="#ea9d7d"/><linearGradient xmlns="http://www.w3.org/2000/svg" id="hd-D" gradientUnits="userSpaceOnUse" x1="224.687" y1="78.67" x2="225.024" y2="73.342"><stop offset="0" stop-color="#cc7a5e" stop-opacity="0"/><stop offset=".924" stop-color="#aa5f4b"/></linearGradient><ellipse xmlns="http://www.w3.org/2000/svg" cx="224.9" cy="75.3" rx="2.4" ry="2.5" fill="url(#hd-D)"/><path xmlns="http://www.w3.org/2000/svg" d="M228.1 79.1c-.9 1-2.2 1.5-3.5 1.5-2.7 0-4.9-2.4-4.9-5.3s2.2-5.3 4.9-5.3c1.9 0 3.6 1.2 4.4 2.9 0 0 .2.1.5-.1s.2-.6.2-.6c-1-1.8-2.9-3.1-5-3.1-3.2 0-5.8 2.7-5.8 6.1 0 3.3 2.6 6.1 5.8 6.1 1.4 0 2.5-.4 3.5-1.2l-.1-1z" fill="#b76349"/><g xmlns="http://www.w3.org/2000/svg" fill="#964c38"><path d="M227.1 75.9v-.4l-.4.1zm-1.7-3l-.4.1.3.4z"/><path d="M225.3 73l-.5.6.9.2zm-.9-.1l-.6.2.5.5zm2.6 1.5l-.3.2.4.2zm-.9-.5l-.3.3.4.1z"/><path d="M226.7 74.6l-.2.3.4.2zm-2.2-.8l-.3.2.5.2z"/><path d="M224 73.5l-.4.5.7.2zm1.7 1.8l.2.2.1-.3zm1.1-1.2l-.1.2h.3zm.2.9l-.1.3h.3zm-3.6-1.6l-.4.4.6.1zm.8 1.5h-.2l.1.3zm.6.9l-.1-.3-.2.2zm.8-2.5l.2-.2-.3-.2zm-1.2 0l-.3.3.5.1zm-.5.3l-.3-.2v.4z"/><path d="M223.9 73.6v-.3h-.3zm2.4.4l.2.3.2-.3zm-.4-.9l-.1.7.7-.2z"/><path d="M225.6 73.6l.3.2.1-.4zm-2.4.9l-.2.3h.3zm1.8-1.6l-.3-.1.1.4zm-.6 1.8l.2.3.2-.4zm.8 1.3l-.1.2.3.1zm-2.1-2.2l-.2.3.4.1z"/><path d="M224 76l-.3-.1.1.3zm-1.1-1.6l.3-.1-.2-.3z"/><path d="M222.6 75.5h.2l-.1-.3zm.2-1l.2-.1-.1-.2zm.7-.3v.3l.3-.2zm-1 .9h.4l-.2-.4zm.6.1v.2l.3-.2zm2-1.3l-.3.2.3.2zm1.4 1.5l.1.4.3-.2zm-2-2.2l.1.4.3-.3zm1 1.1l-.2-.2-.1.3z"/></g><g xmlns="http://www.w3.org/2000/svg" fill="#93282d"><path d="M221.3 93.9l-1 .4.7.8zm-11.9 6.5l.5.2v-.6zm-.9 0l.6.2-.1-.6zm-1.5-.7l.5.2v-.6zm12.1-2.1l-.5-.4-.2.7zm2.8-5.4l.2-1-1 .4z"/><path d="M221.6 93.1l.3-1-1.1.2zm-8.1 10.2l.6.1-.1-.6zm4.3-4.8h.6l-.2-.5zm-.1 2.1h.6l-.2-.6zm-4.9 1.1l-.4-.6-.4.6zm.2.7l.4-.4-.8-.2zm3.6-10.6l-.3-.3-.3.6zm2.5.2l-.4-.4-.2.7zm-3.6-.7l-.4-.2v.5zm-3.9 5l.1-.3h-.3zm1.8 3l.1-.3h-.3zm2.2-6.8l-.5-.2.1.6zm-6.1 6.4l.1-.3-.4.1zm6.5 4.4l.1-.3-.4.1zm-6.1-9.5l.1.3.3-.4zm3.6 9.1h.3l-.2-.4z"/><path d="M209.3 99.9l-.1-.7-.6.5zm.8 1.8l-.1-.7-.6.4zm-1.8-2l-.1-.7-.7.5zm7.2 4.1l-.3-1.1-1 .8zm1.3.2l-.3-1-.9.8zm1.2 0l-.3-1-.8.9zm1.1-3l-.5-1-.8 1zm1.1-7.5l-.6.1.4.7zm-6.4 8.5l.2-.5-.6-.1zm5.6-9.9l.3-.5h-.5z"/><path d="M220.5 92.8l.2-.5-.5.1zm-1.2-1.1h.5l-.1-.5zm.9 2.5l-.6.2.6.4zm-.3-1l-.3-.4-.3.5zm1.5.6l.2-.7-1 .1zm-3.7-1l.3-.3-.5-.1zm2.1-.1l.3-.4h-.5zm.7-1.8l-.5.3.6.3zm1-.4l-.8.5.9.5zm-.3 1l-.6.4.7.3zm-2.7-.6l.3-.4h-.6zm-.2 12.3l.1-.7-.8.3zm.9-3.1l-.1-.6-.6.3z"/><path d="M219.3 100.6l.2-.6h-.6zm-.3 1.1l.1-.6h-.5zm-.8-3.2v-.6l-.6.3zm-.2 1.3h-.5l.4.5zm-.5 1.1h-.5l.4.5zm3.5-5.8l-1.3.2.8 1.3zm-2.7-.4h-.4l.2.4zm-6.3 8.1l-.1-.9-.9.4zm-2.7-1.4v-.9l-.9.3zm4.1 1.9l-.1-.4-.4.2zm6-7.8h-.5l.3.5zm.6 1l-.8.4.9.5zm-1.6 3l-.1-.5-.5.3zm.1 2.1l-.1-.5-.5.3zm.8-2.1l-.1-.5-.5.3zm-.5-1.1l.3.4.2-.4z"/><path d="M219 98.8l.7.3-.1-.7zm-.7 1.7l.5-.3-.4-.3zm.4-6.8l-.1-.5-.5.3zm.3 3.6l.4-.2-.4-.4zm.6-3l-.6.1.3.5zm1.5-1.4l-.7.1.3.7zm-.7 4.1l-.6.1.3.5zm-.5-.4l-.3-.6-.5.6z"/><path d="M220.1 95.2l-.2-.4-.3.4zm.4 1.7l-.3-.9-.5.7zm.3-1.9l-.2-.4-.3.4zm-3.8 1.3l.3-.3-.5-.2zm-2.4 5.9l-.2-.7-.6.5zm1.7.6l-.3-.7-.5.6zm1 .6l-.3-.7-.5.6zm.1-5.9l-.4-.6-.5.7z"/><path d="M217.1 98.5l-.3-.7-.5.7zm-3.2 4.1l-.2-.6-.6.6zm.4-1l.4.3.1-.6zm3.4 2l.5.3.1-.6zm-.7-4.9l.5.3v-.7zm-2.1 2.3l.5.2v-.6zm2.1 1.9l.5.2v-.6zm-6.9-3.6l.3.3.2-.4zm10.2-4.9l.6-.4-.9-.4zm-.7 4.9l-.5.2.4.4zm-3.4 2.3l-.5.2.5.4zm1.6-6.4h-.5l.4.6zm2.4 2.4l-1.1.3.7 1zm-1.2 3.9l-1.1.3.7 1zm-3.7.9l-.2-.6-.4.5z"/><path d="M215.7 102l-.3-.6-.4.5zm2.2-5.4l-.4-.6-.4.6zm-.9 6l-.3-.5-.5.5zm-4.9.2l.7.3.1-.8zm2.1-.2l.4.3.1-.5zm-2.3-.5l.4.4.2-.5zm3.3-5.9l-.6.1.3.5zm-.6 3.1l-.6.2.3.4zm1.4.8l-.6.1.3.4zm-3.9-.8l-.1-.6-.4.4zm-2.7-1.1l-.3-.6-.3.5zm8.1 4.4l-.1-.5-.4.4zm.4-5.8l.6.1-.2-.6zm1 2l-.5-.3-.1.7z"/><path d="M218.8 95.8l-.1-.7-.7.5zm-.6.2l-.4.1.4.4zm0-1.8l-.2-.4-.4.3zm-1.4-1.1l-.6.1.4.4zm-.3 2.6l-.5.1.3.6zm-2.4 4.9l-.5.2.4.5zm-2.6.3l-.5.2.4.5zm5.1-1.4l.2-.4h-.5zm.7 1.1l-.5-.5-.2.8zm-.9.2l-.5-.5-.2.7zm.9 1l.5.2-.1-.7zm-.8-.1l.5.1-.1-.6zm1.1-2.2l-.5-.4-.2.6zm-2.7.4l-.6.2.5.4zm1.1-.9l-.4.3.5.4zm-5.2-.2l-.2-.6-.5.4zm-.1 1.7l-.2-.5-.5.4zm0 .8l-.2-.5-.5.4zm8.9-7.9l-.5.1.3.5zm-2.2 1.3l-.2-.4-.3.5zm.4 3l.4-.3-.5-.3zm5.7-11.5l-1 .4.7.8zm-2.1 3.5l-.5-.3-.2.7zm2.6-5.2l.3-1.1-1 .5z"/><path d="M224.3 83.4l.3-1-1.1.5z"/><path d="M224.5 82.6l.3-1-1 .4zm-.7 2.8l.2-.9-1.1.1zm-10 11.7l-.4-.3-.2.6zm6.9-11.6l-.4-.5-.2.7zm-1.1-2l-.3-.1v.4zm2.1-1.7l-.4-.2v.4zm.6 4.1l-.6.1.4.7zm-.8-1.6l.2-.5h-.5z"/><path d="M223.3 82.2l.3-.5-.5.1zm-.7 2.9l.2-.5-.5.1zm-.9-1.8h.5l-.1-.5zm.9-1.3l.5.1-.1-.5zm-.3 4.7l-.5.2.5.4zm-.4-1.3l-.2-.3-.3.5zm1.6.8l.3-.8-1 .1zm-4.2.1l.3-.3-.5-.1zm2.5-1.4l.3-.4h-.5zm.9-1.8l-.4.3.5.3zm1-1.1l-.5.3.6.4z"/><path d="M223.7 82.6l-.8.5.9.6zm-.4 1.2l-.6.4.7.3zm-2.6-.6l.3-.5h-.6zm2.5 4.2l-1.3.1.9 1.4zm-2.7-.6h-.4l.1.4zm1 .9h-.5l.3.5zm.6.9l-.8.4.8.6zm-.9 1.9l.3.4.2-.4z"/><path d="M221.3 90.9l.8.3-.1-.7zm-.2-1.4l.4-.2-.4-.4zm.5-2.9l-.6.1.4.6zm1.6-1.4l-.8.2.4.6zm-.7 3.9l-.6.2.3.5zm-.5-.3l-.3-.6-.5.6z"/><path d="M222.2 87.4l-.2-.4-.3.4zm.5 1.8l-.2-.9-.6.7zm.2-1.8l-.2-.5-.3.4zm-.5-.7l.6-.4-.9-.3zm.2 2.9l-1.2.3.8 1zM220 89h.6l-.2-.5zm1.3 1.9l-.5-.3v.7zm-1.8-1.3l-.1-.7-.7.6z"/><path d="M220.3 88.2l-.4.1.4.4zm0-.5l-.1-.4-.5.3zm-2.8.5l-.6.2.4.4zm4.2-2.6l-.6.1.4.6zm-2.4 2.4l-.3-.4-.2.5zm.8 1.9l.3-.4-.5-.2zm-8.6 11.9l.2.3.3-.5zm4.4-7l.4-.3-.5-.2zm-10.1 1l.4.4.2-.6zm-1.1 1.8l.5.4.2-.7zm.4-1.7l-.1-.7-.7.3zm-.4.7l.6-.2-.6-.5zm3.4-2.2l.1-.3-.3-.1zm7.3 3.2l.1.3.3-.3zm-1.8.6l.2-.3h-.3zm-7.8-3.8l.2-.2-.4-.1z"/><path d="M206.6 98.8l.2-.3h-.4zm8.1-3.5l.2.3.2-.4zm-9.8 1.9l.3.2V97zm-1.1-1.9l.3-.7-.8.1zm2.3 3.7l.3-1.1-1.2.2z"/><path d="M207 99.8l.3-1.1-1.2.2zm1.4.9l.1-1.1-1.2.3zm-2.8-4.1l.4-.4-.5-.3zm-1.9-.3l.2-.4h-.5zm1.1 1.1l.1-.4-.5.1zm8.9 3.4v-.7l-.7.3z"/><path d="M207.1 98.5v-.8l-.7.4zm6.5 2.7l-.2-.7-.6.4zm-2.7 1l-.2-.8-.6.5zm-5.4-5v-.6l-.7.2zm9-3.2l.2.5.4-.5zm-9.2 1.2l.2.4.3-.2zm1.3 2.5l.2-.6-.7.2z"/><path d="M206.9 97.5l-.1-.7-.6.3zm.8 1.1V98l-.6.3zm-3.9-2.1l.5.6.5-.6zm1.8.8l.1.5.4-.4zm-1.5-1.5l.2.6.4-.3zm4.7 2.9l-.6-.1.1.5zm2.6 1.9v-.7l-.5.3zm1.4 0l-.4-.5-.2.5zm-4.3-4l.1-.5-.7.1zM208 98v-.6l-.6.3zm-4.1-2.6l.1.4.5-.3zm10.9 4l.3.5.4-.5zm-12.6-5.3l.4.5.3-.6zm10 0l.2-.2-.3-.1zm-2.3 2.6l.3-.2-.4-.2zm-7.4-2.9l.2.2.1-.5z"/><path d="M201.3 91.5l.4-.3-.5-.3zm2 4.2l.5-.9-1.2-.2zm-1.7-2.9l.2-.4-.4-.1zm.7 1.3l.2-.4-.5-.1zm2.2 1.6l.2-.7-.8.1zm-1.5-1.8l.2-.7-.8.1zm8.2 5.1l.1.6.5-.4zm-7.8-6.5l.1.4.4-.3z"/><path d="M214.9 98.9l.2-.5-.7.1zm-10.3-4.2l.1-.7-.6.1zm-3-1.8l.4.7.5-.6zm1.5 1.1v.5l.5-.3zm9.4 5.2l.1.5.4-.2zm-2.2-3.6l.1-.6-.5.2zm2.1 2.9l.1-.5h-.6zM212 97l.1-.6-.7.2zm-10.2-5.2v.4l.5-.3zm6.5 5.7l.5-.2-.4-.3z"/></g><defs xmlns="http://www.w3.org/2000/svg"><path id="hd-F" d="M217.2 109.2h-.1a.55.55 0 0 1-.3-.5l4.7-14.4c.9-3 3.6-13.1 3.6-13.1a.55.55 0 0 1 .5-.3.55.55 0 0 1 .3.5l-3.6 13.1c-.8 2.7-4.7 14.3-4.7 14.3 0 .3-.2.4-.4.4z"/></defs><path xmlns="http://www.w3.org/2000/svg" d="M132 407.6c-1.8-4.7 1.8-10.3 7.6-14.6 2.9-2.1 6.2-7.1 8.9-12.1 12.6-23.3 20.7-39.7 29.3-53.5 9.9-15.9 15.9-23.3 19.2-28.8 4.9-8 9.4-35.1 9.4-35.1l38.3.5s-3.6 21.4-7.5 32.1c-3 8-9.5 16.9-12 19.4-34.2 42.4-62.4 74.3-66.2 83.8-.8 1 11.3 11.8 13 13.5 5.6 2.6 12 3.6 12 6.5s-1.7 3.2-1.7 3.2l-19.8-.1-30.5-14.8z" fill="#e79a7a"/><linearGradient xmlns="http://www.w3.org/2000/svg" id="bt-A" gradientUnits="userSpaceOnUse" x1="190.7325" y1="332.8633" x2="219.3166" y2="351.0551"><stop offset="0" stop-color="#cc7a5e" stop-opacity="0"/><stop offset=".9241" stop-color="#aa5f4b"/></linearGradient><path xmlns="http://www.w3.org/2000/svg" d="M159.3 398.6c4.6-9.6 33.2-43 67.1-84.8 2.5-2.6 10.1-14.1 11.5-20.2 3.9-11.6 5-26.6 4.7-28.4l-7.7-1.3 13.6 2.1c-.8 1.3-30.3-5-32.9-.2-2.7 5.1-15.1 48.3-27 63.2-11.8 15-43 63.6-41.7 74.2.7 6.4 6.2 12.7 16.5 8.8-4.2-10.2-5.3-10.7-4.1-13.4z" fill="url(#bt-A)"/><linearGradient xmlns="http://www.w3.org/2000/svg" id="bt-B" gradientUnits="userSpaceOnUse" x1="221.3754" y1="290.3193" x2="224.0988" y2="268.05"><stop offset="0" stop-color="#cc7a5e" stop-opacity="0"/><stop offset=".9241" stop-color="#aa5f4b"/></linearGradient><path xmlns="http://www.w3.org/2000/svg" d="M212.8 288.9c11.2.4 25.2 4.8 25.2 4.8s2.5-7.4 3.2-12.3c.5-3.4 3.6-15.9 3.6-15.9l-37.9-1.8-5.8 24.6c.1.2 7 .4 11.7.6z" fill="url(#bt-B)"/><g xmlns="http://www.w3.org/2000/svg" fill="#ad5c49"><path d="M237.3 279.3l1.1-.6-1.3-.8zm-2.9-2.1l.7-1.4h-1.8zm5 8.1l.6.7.5-1.2zm-15.5-2.6l.8.3v-.9zm-3.5-2.5l.7.2v-.9zm-3.2 1.2l.8.3-.2-.9zm.1-9.1l.1.7.6-.4zm17.5 10.3l-.7.1.5.5zm.3 4.1l.4.8.7-.8zm-2-1.9l1-.6-1.2-.8zm-4.8-6.2l.7.8.5-1zm-3.8-2.5l.6.8.5-.9zm11.4 8.8l-.9-1.1-.7 1.5zm-4.2-.2l.6-.8-1.3-.2zm-16.6-11.9l1.2.4-.3-1.4zm22.3 15.7l.7-1-1.4-.2z"/><path d="M238.4 281.1l1.1.5v-1.3zm1.4 6.7l.3-1.5-2 .7zm-27.1-13.4l1 .3-.3-1.1zm25.4 3.5l.3 2.1 2.2-1.3zm-21.2-6.9l1.6 2.7 2.2-2.2zm3.7 5.5l1.5-1.1-1.4-1.2zm19.3 2.8l.4.6.4-.8zm-2.8-3.6l.4.7.5-.7zm-1.2 1.1l.4.7.5-.7zm3.7-2.9l.6.7.3-.9zm1.6-2.5l.5 1.2 1.1-1.3zm-13.8 5.2l.8.5.1-1zm-19.6-5.8l1 .2-.3-1zm6.9 2.6l.1.8.8-.4zm8.9-1.9l-2.9-.1 2.3 2.9zm13.4 9.7l.4.7.7-.8zm-26.3-9.9l.6 1.9 1.9-1.4zm24.4 6.5l-2.1.3 1.5 2zm-2.1 1.5l-.4-.7-.6.6zm-1.5 8.2l-.4-.7-.5.8zm-7.8-1.3l-.4-.7-.5.7zm-6.5 2.3l-.5-.7-.5.8zm6.8-10.8l-.4-.7-.6.6zm14.1 8.1l.7-.5-.9-.5zm-7.4-3.4l.9.8.4-1.2zm-9.5-4.4l1.1-.4-1.1-.9zm-1.8-.2l.7-.7-1.1-.4zm-.7-2.4l.8 1 .6-1.3zm20.3 8.3l-1-1-.7 1.4zm-2 2.5l.7-.9-1.3-.3zm-8.3-8.4l1.1.6.1-1.3zm6.4 10.5l.8.5.4-.9z"/><path d="M229.3 289.9l.8.6.4-.9zm-19.5-15.4h.8l-.4-.8zm6.1 1.4l-.6-.5-.3.8zm-5 2l-.6-.5-.3.8zm2.3 1l.9.4.1-1.1zm27.8 3.3l.5-1.8-2 .6zm-2.3 1.2l.7-.9-1.4-.3zm-25.6-12.9l1 2.5 1.8-2.1zm-3.5-.7l.3 1.7 1.5-1.4zm31 14.1l.3-1.3-1.7.4zm-1.2-8.2l1.2.4-.1-1.3zm-1.6-1.3l1.1.6v-1.3z"/><path d="M240.6 274.6l1.2.5-.1-1.4zm-2.7-3l1.6 1.8 1-1.9zm5.4-.2l-1.7 1.9 1 1.1zm-1.2 5.3l.4-1.7-2.1.6zm-2.3 1.3l.6-.9-1.5-.3zm1.9.8l.3-1.4-1.6.4zm-11.6-3.1l1.2 2.2 1.4-2.1zm6.4 3.9l-.2 1.2 1.4-.2z"/></g><path xmlns="http://www.w3.org/2000/svg" d="M307.7 421.3c-3 0-4.9-5.6-4.2-10.3.5-3.5-.8-6.4-2-9.9-1.6-4.5-10.1-21.9-22.8-49.5-8.3-19.2-11.6-35.5-13.5-44.2-1-4.4-24.2-45.7-24.2-45.7l39.6-12.4 12.7 45.6c3.6 12.2 8.9 31.2 13.9 52.4 6.2 25.8 11.8 47.2 14.7 51.1 1.9 2.5 12.4 4.1 25.7 6.3 6.4.6 11.7.8 14.3 2.7.9.7 1.6 3.5 1.6 3.5l-55.8 10.4z" fill="#e79a7a"/><linearGradient xmlns="http://www.w3.org/2000/svg" id="bt-C" gradientUnits="userSpaceOnUse" x1="271.8811" y1="289.1803" x2="264.7648" y2="266.4037"><stop offset="0" stop-color="#cc7a5e" stop-opacity="0"/><stop offset=".9241" stop-color="#aa5f4b"/></linearGradient><path xmlns="http://www.w3.org/2000/svg" d="M276.5 291.6c10.6-2 13.8-6.3 13.8-6.3l-6.8-26.4-39.3 9.6 15 26c2.2-.2 8.5-1.3 17.3-2.9z" fill="url(#bt-C)"/><g xmlns="http://www.w3.org/2000/svg" fill="#ad5c49"><path d="M283.6 269.3l.5-1.2-1.5.1zm3.1 5.3l.9.2-.3-1.3zm-9.1 6l.8-.3-.7-.6zm10.8 2.8l.7-.2-.5-.7zm-12.9-11.3l.5.5.3-.6zm7.9 1.3l-.4.5.7.2zm.2 4.3l.8.5.1-1zm-.1-1.4l.4-1.2-1.4.2z"/><path d="M277.2 276.2l1.1.1-.4-1.1zm-12.4-3.3l1 .1-.3-1.1zm18.6 2.9l-1.4-.5.1 1.7z"/><path d="M282.2 277.1v-1l-1.1.5zm-8.4-3.5l1.3-.4-1-.9zm-1.7-1.6l1.3-.4-1-1zm-5.8-.5l1.3-.3-1-1zm-.5-2.6l1.2-.3-.9-1zm8.2 2.4l1.2-.4-.9-.9zm12.7 6.8l.2-1.2-1.4.5zm-3.2-6.8l1.2-.2-.8-1.1zm4.5 5.4l-.3-1.4-1.5 1.3zm-16.7-2.7l1-.2-.7-.9zm-21.9-.6l1.3.3-.5-1.6zm18.7-1.9l1-.2-.7-.9zm-3.2-1.1l.4 1.1.8-.9zm18.4-2.8l1.6 1.5.7-2.5zm-7.3 2.9l1.3 1.5.8-2.3zm3.8.9l.4-1.8h-1.9z"/><path d="M284 268.8l.8.2-.2-.8zm-8.8 6.8l.9-.4-.8-.7zm-8.7-.2l.9-.4-.7-.7zm7.2-1.1l.5.6.4-.8zm8.8-6.4l-2.6 1.1 2.5 2zm-.2 4.1l.8.5.2-1.1zm-15.3-4.5l1.5 1.5.9-2.2zm6.2-.2l-1 1.8 2.3.4zm8.1 3.3l-1.2 1.8 2.5.3zm-.4 2.7l-.8-.3.1.9zm2.9 6.1l-.8-.3.1.9zm2.6 2.4l-.7-.4v.9zm-1.7 1.7l-.4-.8-.6.7zm5.1 1.8l-.3-.8-.5.7zm-15.7-8.2l-.8-.3.1.9zm-6-7.2l-.8-.3.1.9zm1.7-.8l-.8-.3.1.9zm15.8 6.2l.4-.6h-.9zm-5.6.5l1.3.1-.5-1.2zm5.5-2.6l-1.5-.5.1 1.7zm-.5 3.2l.2-1.2-1.4.4zm-8-1.1l1.2-.3-.9-1zm7.4 3.8h.9l-.1-.9zm-1.7 1.6l1 .1-.2-1zm-28.7-.2l.6-.3-.6-.5zm7.1-4.3l.8.3v-1zm-2.4-1.1l.3-1-1.3.3zm-5.5 1.6l1-.1-.5-.9zm7.3-2.9l-1.3.2.9 1.2zm-2.8 3.2l-.1-.9-.9.6zm6.3-1.1l-.2-1.1-1.1.7zm.7-1.5l-.5-1.2-1 1.5z"/><path d="M251.4 276.3l.8-.4-.8-.6zm-1.4-1l.4.5.4-.7zm9.3 3.6l-.7-.2.2.8zm-10.1-7l-.7-.1.1.8zm15.1 7.2l-.7-.2.2.8zm5-4.3l-.7-.1.2.7zm-6.1 6.1l-.5-.5-.3.6zm-7.5-6.4l.7.9.5-1.1zm6.5.2l-.2-1.1-1.1.7zm-7.6-.1l-1.1.3.7.9zm7.5 2.6l.8-.1-.3-.8zm-1.1 1.7l.8-.1-.3-.9zm-11.8-7.5l.8-.1-.3-.8zm38 9.4h.9v-1zm1.3.5h.9l-.3-.9zm-1.9-10.4l-.7-2.6-1.5 2.3zm-1.6 2.2V272l-1.3.4zm-15.3-6.3l1.9 1.7.9-2.6zm-2 6.1l1.2.9.4-1.5zm2.3-2.8l1.2 1 .4-1.6zm16.9 2.6l-.4-1.4-1.3 1.1zm1.9 6.8l-.4-1.3-1.3 1zm-11.7-5.5l2.3-.6-1.6-1.9zm-12.2-3.5l1.4-1.9-2.5-.5zm16.5 1.3l.5 1.2 1-1z"/></g><linearGradient xmlns="http://www.w3.org/2000/svg" id="bt-D" gradientUnits="userSpaceOnUse" x1="296.2552" y1="334.9048" x2="331.4037" y2="326.1155"><stop offset="0" stop-color="#cc7a5e" stop-opacity="0"/><stop offset=".9241" stop-color="#aa5f4b"/></linearGradient><path xmlns="http://www.w3.org/2000/svg" d="M321.6 398.1c-2.9-4.4-9.5-29.8-18-64.1l-10.4-39.9c-.8-3.5-9.5-34-13.5-42.7-4.9-8-16.4 3.8-18.1 3.1h-.2v.1c.7 1.4-11.9 12-9.3 16.9 2.7 5.1 31.8 49.8 37.5 68s18.1 71.6 27.5 76.5c3.9 2.1 18.1 2.4 26.6-1.7 3.9-1.9 5.5-5.6 6.3-9-14.6-2.5-26-3.6-28.4-7.2z" fill="url(#bt-D)"/><linearGradient xmlns="http://www.w3.org/2000/svg" id="bt-E" gradientUnits="userSpaceOnUse" x1="242.3274" y1="264.4721" x2="260.6188" y2="303.8384"><stop offset="0" stop-color="#cc7a5e" stop-opacity="0"/><stop offset=".9241" stop-color="#aa5f4b"/></linearGradient><path xmlns="http://www.w3.org/2000/svg" d="M245.1 270.3h0v.2c-.1-.2 0-.2 0-.2z" fill="url(#bt-E)"/><linearGradient xmlns="http://www.w3.org/2000/svg" id="bt-F" gradientUnits="userSpaceOnUse" x1="244.9917" y1="270.2211" x2="244.9917" y2="270.2211"><stop offset="0" stop-color="#cc7a5e" stop-opacity="0"/><stop offset=".9241" stop-color="#aa5f4b"/></linearGradient><path xmlns="http://www.w3.org/2000/svg" d="M245 270.2h0z" fill="url(#bt-F)"/><path xmlns="http://www.w3.org/2000/svg" d="M173 250s13.8 20.5 53.8 21.7 67.7-14.3 67.7-14.3-3.2-10.3-12.6-20.8-13.6-28.8-13.6-28.8l-66.9.2s-.9 16.8-11.5 26.2C179.2 243.5 173 250 173 250z" fill="#c12f4f"/><g xmlns="http://www.w3.org/2000/svg" fill="#ad203a"><path d="M170.4 252.5c-.6-.5-.6-1.5 0-2 4.1-3.2 15.2-14.4 22.2-23.6 7.8-11.1 8.6-19.1 8.6-19.1h7.5s-1.4 15.4-12.5 30.7c-6.7 9.3-13.8 17.9-16.3 20.6-.5.5-1.3.5-1.8.1l-7.7-6.7z"/><path d="M192.6 265.9c-.5.8-.2 1.8.7 2.2l5.6 2.4 5.5 1.9c.7.2 1.5-.1 1.8-.8 1.9-3.8 7.8-16.5 12.5-31.9 5.6-18.4 4.4-31.9 4.4-31.9h-5.8s-.9 15.7-11 34.3c-5.9 10.9-11.6 20.3-13.7 23.8z"/><path d="M231.1 207.8s-1.8 33.3-3.6 43.2l-4.4 22.9c-.1.7.4 1.4 1.1 1.5l8.3.3c1.6-.1 3 0 4 0 .7 0 1.2-.5 1.3-1.2.1-5.4-.1-25-.1-36.1 0-13.8-1.2-30.6-1.2-30.6h-5.4zm14.1-.1l2.7 47c.9 9.9 2.2 16.3 2.7 19 .2.8.9 1.3 1.7 1.2l11.5-1.6c1-.1 1.6-1.2 1.2-2.2-2.4-5.3-9.1-21-11.2-33.9-2.6-15.9-4.1-29.4-4.1-29.4h-4.5v-.1zm10 .3s1.8 18.5 8.9 37.5c5.2 13.9 8.8 21.1 10.3 23.9.5.8 1.5 1.2 2.4.8l9.6-4.1c1.2-.5 1.5-1.9.7-2.9-3.2-4-10.7-13.7-16.6-26.3-7.8-16.6-10.8-29.2-10.8-29.2l-4.5.3zm13.1-.2s7 18.5 16.3 28.2c7.4 7.7 15.4 15.6 18.4 18.5.6.6.5 1.6-.2 2.1l-5.1 3.7c-.6.4-1.3.3-1.8-.2-2.8-3-12.2-13-19-23.6-8.1-12.6-12-28.7-12-28.7h3.4z"/></g><g xmlns="http://www.w3.org/2000/svg" fill="#961d37"><path d="M243 212.7l.2 1.4-1.6-.4zm2.2-3.5l.2 1.5-1.6-.4zm-5.9.5h-.8l.3-.9zm5.5 5.5l-1.5 1-.3-2zm4.4-5.6l-1.5.9-.3-1.9zm3.7-.6l-1.4 1-.3-2zm-8.1 0l-1.4 1-.4-2zm-.7 2.3l-1.4 1-.4-2zm3.2-.2l-1.5.9-.3-1.9zm-7.8 0l-1.5 1-.3-1.9zm2-.4l-1.5 1-.3-1.9zm18.7 2.5l-1.4.9-.3-1.9zm-6.2 1l-.5-1.7 2 .3zm2.8-1.2l-.4-1.7 1.9.3zm-7.4.6l.3 1.5-1.7-.5zm-8.2-.1l.3 1.5-1.7-.5zm18.2 1.8l.2 1.5-1.6-.4zm-7.8-2.5l.2 1-1.1-.2zm-6.7 0h.9l-.4.9zm4.6 7.2l.2-.9.8.6zm-2.3 3.4l-.9.2.2-1.1zm.1-6.7v.8l-.9-.4zm-7.1 4.5l.8.3-.6.7zm18.9 5.6l-1 .3.3-1.2zm.1-6.6v.8l-.9-.4zm-7.1 4.5l.8.2-.6.7zm20.9.6l-.9.4-.1-1.1zm-1.6-6.5l.2.8-1-.2zm-5.8 6.2h.9l-.4.9zm1.4-1.5l-1 .2.2-1.1zm0-6.7v.9l-.8-.5zm-7.1 4.5l.8.2-.6.8z"/><path d="M269.6 215.5l-.3 1-.8-.8zm-5.6-3.6l.7.5-.8.5zm0 8.5l.7-.6.3.9zm-4.8-4.6v1.9l-1.9-.9zm-4.2 3.5l.8.2-.6.7zm6.2-2.6l-.5-.9h1.2zm-4.2-.1l-.8-.7 1-.4zm5.5-3.7l-.7.4-.2-.9z"/><path d="M254.7 209.6l.3.8-1-.1zm4.5 7.7l-1.4.2.5-1.5zm1.3-8.8l-.2 1.1-1-.7zm-10.3 4.7l1.1.5-1 .9zm13 4.9l-1.1-.6 1.1-.9zm5.5-6.3l-.7.8-.5-1.1zm-10.4-1.5l.6.9-1.2.2zm-7.2 6.8l-.8-.7 1.1-.5z"/><path d="M256.6 213.3l-.7.5-.1-1zm-7.8-3.2l.3.8-1-.1zm2.4-1l.2 1.4-1.6-.4zm1.6 1.6l-.7 2.2-2-1.7zM250 212l-1.9 1.2-.4-2.6zm9.7-.8l-2 1.2-.3-2.6zm5 .1l-1.9 1.2-.4-2.5zm.9 1.2l-.8-2.2 2.6.2z"/><path d="M263.6 214.7l.5-1.6 1.5 1.2zm5 .8v-1.7l1.8.8zm-9.2-2.1l.5-1.7 1.5 1.3zm6.9.4v-1.7l1.8.8zm0-4.1l-2 1.1-.3-2.5zm-11.4.7l.2 1.4-1.6-.4zm.5-1.9l.3 1.5-1.7-.5zm-11.2 10l-1 .2.3-1.1zM242 217l-.4-.7.9-.1zm2.7 3.4l-.1.8-.8-.4zm12-10.4h-.8l.3-.9zm-8 3.5l-.2.8-.8-.6zm12.2-4.8l-1.5 1-.3-2z"/><path d="M256.1 207.8l3.3-.1-1.4 3.4zm3.5.1l3.4-.1-1.4 3.3zm-7.8 0h3.3l-1.4 3.4zm12.8-.1l3.3-.1-1.3 3.4zm6.9 12l1.4-1.7 1.1 2.2zm-23.7-12l3.3-.1-1.3 3.4zm-3.4 0h3.3l-1.6 3.4zm-4.1-.1l3.3.1-1.6 3.3z"/><path d="M267.1 209.4l-1.5 1-.3-1.9zm-3.6-1.3l.4 1.8-2-.5zm4 2.2l1.7.2-.9 1.7zm2 1.1l1.2 2.4-2.4.2zm2.2 4.5l1 2.1-2.2.1zm-4.7-2.2l.4 2.5-2.3-.5zm-3.6-2.3l.6 3.2-3-.6zm12 11.9l.7 1.5h-1.5zm-2.6-2l.6 1.2-1.3.1zm-5.2-2.6l.2 1.2-1.1-.2zm-8.3-6.1l.4 2.3-2.1-.5zm6.6 3.6l-.7 2.1-1.6-1.4z"/><path d="M269.8 216.3l.9 1.8-1.9.2zm-6.3 2.5l-.9-.4.9-.8zm4.4-5l-.5.6-.4-.8zm-8.4-1.2l.5.7-.9.1zm-4.7 4.9l-.7-.5.8-.4zm-2.3 2l-1.2-.8 1.5-.8z"/><path d="M257.2 218.2l-.6-.5.8-.4zm-2.1-1l-.6-.6.8-.4zm6 1.3l.3.6h-.9zm-9.2 4.3l-1-.8 1.2-.6z"/><path d="M257.8 218.1l-.8.6-.2-1.1zm-9.1-3.1l.4.9H248zm-27.1-2.4l.2 1.5-1.6-.5zm2.2-3.4l.2 1.5-1.6-.5zm-.4 6l-1.5 1-.3-2zm4.4-5.6l-1.5.9-.3-1.9zm4.1-.7l-1.5.9-.3-1.9zm-8.5.1l-1.4 1-.4-2zm-.7 2.2l-1.4 1-.3-1.9zm3.2-.2l-1.5 1-.3-1.9zm-5.8-.3l-1.5.9-.3-1.9zm-3.6-.5l.2 1.8-1.8-.6zm-1.9.6l-.8-1.6 2-.1zm24.6 2.2l-1.4.9-.3-1.9zm-6.1.9l-.5-1.7 2 .3zm2.7-1.1l-.5-1.7 2 .3zm-7.3.5l.3 1.5-1.6-.5zm-8.7.2l.3 1.5-1.6-.5zm-1.8-1.2l.2 1.5-1.6-.5zm12.2.5l.2 1-1.1-.2zm-6.7 0h.9l-.4.9zm4.6 7.1l.2-.8.8.6zm-2.2 3.5l-1 .2.2-1.2zm0-6.7v.8l-.8-.4zm-7.1 4.5l.8.2-.6.8zm-.7 1l-1 .2.3-1.1zm.1-6.7v.9l-.9-.4zM211 220l.9.3-.7.7zm27.2 6.5l-.9.3.2-1.2zm.1-6.7v.9l-.9-.4zm-7.1 4.6l.8.2-.6.7zm7.1-8.9v1.9l-1.9-.9z"/><path d="M234.1 218.9l.8.3-.6.7zm3.8-2.5l-.8-.7 1.1-.4zm5.5-3.8l-.7.5-.2-1zm-7.8-3.2l.3.8-1-.1zm4.6 7.7l-1.4.2.5-1.5zm1.2-8.8l-.2 1.1-1.1-.7zm-10.3 4.8l1.1.5-1 .8zm12 3.4l-.9-.9 1.3-.5z"/><path d="M249.9 211.7l-.8.7-.3-1.2zm-9.7-3.9l.4 1-1.2-.1zm-10.5 9.3l-.8-.7 1.1-.5zm5.5-3.9l-.7.5-.1-.9zm-7.8-3.2l.3.8h-1zm2.9-1.3l.2 1.5-1.6-.4zm1.5 1.9l-.7 2.2-2-1.7zm-3.2 1.4l-1.9 1.2-.4-2.6zm12-1l-2 1.2-.3-2.6zm-6.7-.8l.2 1.5-1.6-.4zm.5-1.8l.2 1.4-1.6-.4zm-11.6 10.1l-1 .2.3-1.1zm-5.1-.7l-1 .2.3-1.1zm2.9-.8l-.4-.8h.9zm-5.9-.9l-.4-.8h.9zm8.6 4.2v.9l-.9-.5z"/><path d="M235.7 209.8l-.9.1.4-.9zm-8.4 3.7l-.2.8-.8-.6zm12.4-4.4l-1.5.9-.3-1.9z"/><path d="M234.9 207.9l3.3-.1-1.4 3.4zm-4.2 0l3.3-.1-1.4 3.4zm-3.9-.1l3.3-.1-1.3 3.5zm-11 .1l3.2.1-2.1 2.3zm-3.7-.1l3.1.1-2 2.4zm10.9-.1l3.4.1-1.6 3.3zm-4 .1h3.3l-1.6 3.3zm14.9 9.4l-.7-.5.8-.5z"/><path d="M231.6 219.2l-1.1-.8 1.4-.8zm4.7-1.3l-.6-.5.8-.4zm-2.1-1.1l-.6-.5.8-.4zm-3.2 5.7l-.9-.8 1.1-.6z"/><path d="M236.9 217.8l-.8.5-.2-1zm-9.1-3.1l.4.9h-1.1zm-21.7-1.7l.3 1.5-1.7-.5zm2.3-3.3l.2 1.4-1.6-.5zm-5.9.3h-.8l.3-.9zm5.4 5.6l-1.5 1-.3-2zm.1-6.2l-1.4 1-.4-2zm-.7 2.2l-1.4 1-.4-1.9zm3.7-.4l-1.5 1-.3-2zm1.5-1.8l-1.5.9-.3-1.9zm-9.8 2l-1.5 1-.3-2zm2-.3l-1.5.9-.3-1.9zm-.3 2.8l.2 1.4-1.6-.4zm10.9-.8l.2 1-1.2-.2zm-6.7-.2l.8.1-.4.9zm4.4 7.2l.3-.8.7.7z"/><path d="M214 211.1l.2 1-1.1-.3zm-6.7-.2l.8.1-.4.9zm4.4 7.2l.3-.8.7.7zm-1 5.5l-1 .1.3-1.1zm.2-6.8v.9l-.9-.4zm-7.2 4.5l.8.2-.6.7zm3.5-2.4l-1 .2.4-1.1zm-2.1-1.5l-.4-.8h.9zm3.1 3.1v.9l-.9-.5zm-.6-12.7l3.3-.1-1.4 3.4zm-4-.1h3.4l-2.1 2.8zm-1.2 5.6l-1.5.9-.3-2zm-4 5.7l.8.2-.6.8zm3.9-2.9l-.9-.9 1.3-.5zm10.2-3.5l-.8.6-.2-1.2zm-8.9-4l.3 1-1.2-.1z"/><path d="M270.9 214.2l.5 1.4h-1.6zm-68-4.8l-1.5.9-.3-1.9z"/></g><linearGradient xmlns="http://www.w3.org/2000/svg" id="bt-G" gradientUnits="userSpaceOnUse" x1="237.9799" y1="228.3328" x2="239.7257" y2="195.5326"><stop offset="0" stop-color="#7f0026" stop-opacity="0"/><stop offset=".9975" stop-color="#7f0026"/></linearGradient><path xmlns="http://www.w3.org/2000/svg" d="M187.2 233.5s21.6 6.4 33.3 4c31.9-6.7 67.4 2.7 67.4 2.7s-8.5-9.5-12.1-15.6c-4.1-7.1-7.7-16.6-7.7-16.6l-66.9.1s-2.2 10.6-7.5 17.5c-3.9 5.5-6.5 7.9-6.5 7.9z" fill="url(#bt-G)"/><path xmlns="http://www.w3.org/2000/svg" d="M323.3 415.1l-21.4-1.2.6-6.2 20.9 1.7z" fill="#fffdf3"/><path xmlns="http://www.w3.org/2000/svg" d="M306.3 430.3c.3 1.4 1.6 2.3 3 2l55.3-10.3c1.4-.3 2.3-1.6 2-3l-.5-2.9-60.5 11.2.7 3z" fill="#ad203a"/><path xmlns="http://www.w3.org/2000/svg" d="M362.6 411.2l-55.3 10.3c-1.4.3-2.3 1.6-2 3l.5 2.9 60.5-11.2-.5-2.9c-.4-1.5-1.7-2.3-3.2-2.1z" fill="#fffdf3"/><linearGradient xmlns="http://www.w3.org/2000/svg" id="bt-H" gradientUnits="userSpaceOnUse" x1="344.4407" y1="403.6791" x2="345.099" y2="414.66"><stop offset="0" stop-color="#db405b"/><stop offset=".9241" stop-color="#99203a"/></linearGradient><path xmlns="http://www.w3.org/2000/svg" d="M351 413.5l-.3-8c0-.4-.3-.6-.6-.7l-10.6-2.2c-.6-.1-.9.2-.8.7l.3 12.4 12-2.2z" fill="url(#bt-H)"/><linearGradient xmlns="http://www.w3.org/2000/svg" id="bt-I" gradientUnits="userSpaceOnUse" x1="326.7864" y1="398.9272" x2="328.4779" y2="419.4369"><stop offset="0" stop-color="#db405b"/><stop offset=".9241" stop-color="#99203a"/></linearGradient><path xmlns="http://www.w3.org/2000/svg" d="M334.1 416.5l.2-13.9c0-.3-.2-.7-.5-.8l-11-3.1c-.2 0-.5.1-.5.4l-.8 19.7 12.6-2.3z" fill="url(#bt-I)"/><g xmlns="http://www.w3.org/2000/svg" fill="#e88097"><path d="M322.8 398.8l3.3.9-2 1.7zm3.3 1l3.2.8-1.9 1.8zm3.7 1l3.3.9-2 1.8zm-4.7 1.7l1.1-1.2.3 1.2zm3.4-.2l1.1-1.2.4 1.2zm-5.3-.1h1.2l-.5.8zm4.5 1.2l1.2-.1-.5.9zm5-.4l1.3-.1-.5.9z"/><path d="M326.9 402.7l1.1-.7v1zm-2.2-2.5l1.5.4-.9.8zm-1.4 1l-.2-.5h.5zm1.3 2.9l-.1-.6.4.1zm1.7.6l-.2-.5.5.1zm2.1 1.4l-.2-.6.4.1zm-1.8-2.6l-.2-.7.5.2zm3.6-.2l-.2-.8.6.1zm-1.1 2.1l-.2-.7.6.1zm1.8-1.2l-.2-.7.6.2zm-5.6-.5l-.4-.8.6.2zm6.6.2l-.2-.7.5.2zm1.4-1.1l-.4-1.1.9.2zm-9.6 2.2l.5-.4v.5zm1.5.9l.4-.4.1.4zm5.5-.8l.4-.3.1.4zm-1.4-1.2l.5-.3v.4zm-6.6 2.5l.5-.4.1.5zm2-4.2l-.2-.6.6.1zm-2.5 1.3l.5-.4.1.5zm.5-.7l-.1-.6.5.1zm.9-.7v-.6l.3.2zm-1.3-1.5l.5-.4.1.5zm0-1.4l.5-.4v.6z"/><path d="M322.2 400.7l1 1-1.2.3zm0-1.5l1.1.9-1.2.3zm16.9 3.3l3.4.7-1.8 1.9zm3.4.8l3.4.5-1.8 2zm3.8.7l3.3.6-1.8 2zm-4.5 2l1-1.2.4 1.1zm3.4-.5l1-1.2.3 1.2zm-5.4.4l1.3-.2-.5.9z"/><path d="M344.4 406.7l1.2-.2-.4 1zm5-.8l1.3-.2-.5.9zm-5.8.2l1-.7.1.9zm-2.4-2.3l1.6.2-.9.9zm-1.3 1.2l-.3-.7.6.1zm1.5 2.6l-.2-.5.5.1zm1.8.6l-.3-.6.4.1zm2.1 1.1l-.2-.5h.4zm-2-2.3l-.2-.8.6.2zm3.7-.7l-.3-.6h.5zm-1 2.3l-.3-.6h.5zm1.8-1.4l-.3-.6h.5zm-5.8 0l-.3-.7.6.1zm6.6-.2l-.3-.8.7.2zm1.4-1.4l-.4-.9.8.2zm-9.4 3l.4-.4.1.5zm1.6.8l.4-.4v.4zm5.3-1.3l.4-.4.2.5zm-1.4-1l.5-.4v.5zm-6.3 3l.4-.4.1.4zm1.6-4.3l-.3-.7.6.1zm-2.4 1.5l.4-.5.2.6zm.4-.8v-.6l.3.2zm.8-.8v-.6l.4.2zm-1.4-1.2l.5-.6.2.6zm-.1-1.5l.5-.4.2.5z"/><path d="M338.7 404.5l1.1.8-1.1.5zm-.1-1.5l1.2.8-1.1.4z"/></g><path xmlns="http://www.w3.org/2000/svg" d="M148.8 411.6l-14-15 4.3-4.2 14 14.3z" fill="#fffdf3"/><path xmlns="http://www.w3.org/2000/svg" d="M126.5 414.9c-.4 1.4.4 2.8 1.8 3.2l30.9 14.4c.7.3 1.5.5 2.4.5l21 .1c1.8 0 3.7.2 3.8-1.5l.2-3.7-24.9-.3-34.4-15.6-.8 2.9z" fill="#ad203a"/><path xmlns="http://www.w3.org/2000/svg" d="M185.5 422.7l-21.8-.2c-.7 0-1.4-.2-2-.5l-30.4-14.5c-1.4-.4-2.8.4-3.2 1.8l-.7 2.7 33.1 15.3c.8.4 1.6.5 2.5.5h23.6l.2-2.1c0-1.4.1-2.6-1.3-3z" fill="#fffdf3"/><linearGradient xmlns="http://www.w3.org/2000/svg" id="bt-J" gradientUnits="userSpaceOnUse" x1="173.2849" y1="411.9519" x2="171.8785" y2="422.8615"><stop offset="0" stop-color="#db405b"/><stop offset=".9241" stop-color="#99203a"/></linearGradient><path xmlns="http://www.w3.org/2000/svg" d="M177.9 422.7l1.1-7.9c0-.3-.1-.7-.5-.8l-9.9-4.1c-.4-.2-.9 0-1 .5l-2 12.3h12.3z" fill="url(#bt-J)"/><linearGradient xmlns="http://www.w3.org/2000/svg" id="bt-K" gradientUnits="userSpaceOnUse" x1="163.325" y1="401.8183" x2="151.635" y2="419.4594"><stop offset="0" stop-color="#db405b"/><stop offset=".9241" stop-color="#99203a"/></linearGradient><path xmlns="http://www.w3.org/2000/svg" d="M157.9 420.3l9-11c.2-.3.2-.7.1-.9l-6.8-9.3c-.1-.2-.4-.2-.6 0l-13.2 15.5 11.5 5.7z" fill="url(#bt-K)"/><g xmlns="http://www.w3.org/2000/svg" fill="#e88097"><path d="M160.2 399.1l2.1 2.8-2.7.1zm2 2.9l2 2.7-2.6.2zm2.3 3.1l2 2.7-2.6.2zm-4.7-1.7l1.5-.2-.4 1.1zm2.7 2l1.7-.2-.6 1.1zm-4.1-3.3l1.1.6-1 .5zm2.8 3.6l1 .8-.9.3zm4.3 2.9l1 .7-1 .4z"/><path d="M161.1 404.8h1.2l-.6.9zm-.2-3.4l.9 1.3h-1.2zm-1.8.1l.2-.7.4.4zm-.8 3l.3-.7.3.4zm.9 1.5l.3-.6.3.4zm.9 2.3l.2-.5.3.4zm.2-3l.2-.8.4.5zm3.1 1.9l.3-.6.3.4zm-2.3 1l.3-.6.3.4zm2.2.3l.3-.8.3.5zm-4.2-4l.3-.7.4.5zm5 4.3l.4-.7.2.5zm1.9 0l.4-1.1.6.7zm-8.9-4.2h.6l-.2.3zm.6 1.6l.6-.1-.3.5zm4.8 2.8l.7-.1-.3.5zm-.3-1.8l.6-.1-.3.5zm-6.7-2.1l.6-.1-.3.5zm4.1-2.1l.3-.6.3.4zm-2.8-.5l.7-.1-.3.6zm1-.3l.2-.5.2.4zm1 0l.4-.5.2.4zm-.1-1.9h.6l-.2.4zm.8-1.1h.7l-.3.4z"/><path d="M158.6 400.2l.2 1.5-1.1-.5zm1-1.1l.2 1.3-1-.4zm8.7 10.7l3.2 1.2-2.2 1.5zm3.3 1.3l3.2 1.2-2.3 1.7zm3.4 1.5l3.2 1.2-2.1 1.6zm-4.8 1.1l1.3-1.1.1 1.2zm3.4.2l1.2-1.1.3 1.2zm-5.3-.7l1.3.1-.6.8z"/><path d="M172.7 414.9h1.2l-.5.8zm5 .1l1.3.1-.5.8zm-5.7-.8l1.2-.7-.2 1.1zm-1.9-2.8l1.5.5-1 .8zm-1.5.9l-.1-.6.5.1zm1 3l-.1-.7.4.2zm1.6.8l-.1-.5.4.1zm1.9 1.5l-.1-.6.4.3zm-1.5-2.6l-.2-.8.6.2zm3.7 0l-.2-.7.6.2zm-1.4 2.1l-.1-.8.5.2zm2.1-1l-.3-.8.6.2zm-5.7-1.2l-.2-.7.6.2zm6.5 1l-.1-.8.5.2zm1.6-1.1l-.2-1 .7.4zm-9.9 1.2l.6-.3v.5zm1.5 1.1l.4-.4.1.5zm5.5-.2l.5-.3.1.5zm-1.3-1.3l.6-.3v.5zm-6.7 1.8l.5-.4v.5zm2.4-4.1l-.2-.5.6.1zm-2.7 1.2l.6-.5v.5zm.7-.8v-.6l.3.2zm.9-.6v-.6l.4.3zm-1.2-1.6l.5-.3.1.5zm.1-1.3l.6-.4.1.6z"/><path d="M167.5 411.7l.9 1-1.1.2zm.2-1.6l.9 1-1.1.2z"/></g><path xmlns="http://www.w3.org/2000/svg" d="M153.8 191.4c-3.9 19.5-5.5 38.8-5.5 38.8s-3.3 6.3-1.8 13.9c0 .6.9 1.2 1.7 1.9.5.4 1.3-.4 1.8-.1.4.1.2 1.2.6 1.4.6.3 1.7 1.1 2.1.6 1.7-1.9 2 .6 2.8.7 1.1.1 1.8-.7 1.9-.9.6-2.1 1.4-4.2 1.5-5.2.2-1 .94 2.33 1.34 3.83.6 1.7 2.46 2.17 2.26-.93s.2-5.7 0-6.5c-.1-.8-.2-4.1-1.2-6.1-.6-1.3-1.9-2.9-1.2-6.3 1.3-5.5 9.4-24 13.4-33 1.9-4.5-16.9-16.2-19.7-2.1z" fill="#ea9d7d"/><linearGradient xmlns="http://www.w3.org/2000/svg" id="tp-A" gradientUnits="userSpaceOnUse" x1="155.528" y1="227.773" x2="141.551" y2="222.25"><stop offset=".005" stop-color="#cc7a5e" stop-opacity="0"/><stop offset=".924" stop-color="#aa5f4b"/></linearGradient><path xmlns="http://www.w3.org/2000/svg" d="M150.9 208.5c-1.7 12.3-2.6 21.7-2.6 21.7s-2.8 6.1-1.8 13.9c.3 2.7 6.5-3.5 7.8-7.8 8.8-29.2-2.7-33.1-3.4-27.8z" fill="url(#tp-A)"/><g xmlns="http://www.w3.org/2000/svg" fill="#ad5c44"><path d="M151.3 224.8l.5-.5.5.6zm3.4 1.1l.5-.8.7.8zm-1.9.2h-1l.2-.9zm-1.4-.2h-1.3l.5-1.2zm1.4-1.4l1.4.2-.9.9zm-4.1 1.7l.2-1.8 1.2 1.1z"/><path d="M149.1 223.8l1.7.3-1.1 1.1zm1.8.8l.4-.2.1.6zm4.7 2.7h-.4l.2-.4zm-1.5-1.6l.2.5h-.5zm-4.4.6l.1-.6.4.3zm4.3 1.6l.5-.2-.2.5zm-4.5-.5l-.9-.5.9-.6zm-2.2 8.2l.3-.7.7.5zm2.1-5.4l-.9-.4.8-.6zm1.5-.8l-.8.4-.1-1zm-1.4 2.9l.1.9-.9-.2zm-1.1-.2l.3-1.3.8.9zm0-2.7l.2-1.8 1.2 1zm-.7 4.8l.2-1 .6.7zm2.4-6l-.1-.3.4-.1zm2.2-.4h-.3v-.3z"/><path d="M150.3 225.8v.2l-.3-.1zm-.5 8.2l.5-.4v.6zm-2.1 2.8h-.4l.1-.4zm2.5-9.2l.4-.2.1.6zm-1.1 3.3l.5-.2.1.5zm-.1 4.8l.1-.6.4.3zm2.3-4.9l-.2-.3h.5zm.4-4.2l.5-.2-.1.5zm.2 2.7v-.5l.4.2zm-5.2 9.4l.1-.5.5.2zm5.1-6.4l-.4-.2.3-.3zm-2.8 4.1l-.1.3-.4-.4z"/></g><path xmlns="http://www.w3.org/2000/svg" d="M160.74 247.86c-1.1-.9-1.84-4.36-2.14-5.56-.8-.4-3.2-1.8-3.8-4.7-.7-3.5.8-5.1.8-5.2.2-.2.5-.2.7 0s.2.5 0 .7c0 .1-1.1 1.4-.6 4.3.5 2.8 3.4 4.1 3.4 4.1.1.1.3.2.3.4.4 1.9 1.3 4.8 1.9 5.3.9.12.4-4.4.4-4.9.1-2.9.1-6.8-1.2-9.3-1.4-2.5-1.6-3.9-1.5-5.8 0-.3.3-.5.5-.5a.47.47 0 0 1 .5.5c-.1 1.8.1 3 1.4 5.3 1.4 2.7 1.4 6.8 1.3 9.8v4.7c-.1.7-.96 1.82-1.96.86z" fill="#cc7a5e"/><path xmlns="http://www.w3.org/2000/svg" d="M156.5 241.2c-1.2-.2-1.9 1.4-2.2 3.3-.4 2-.3 3.7 1.1 3.9 1.7.3 1.9-1.4 2.2-3.3s.6-3.7-1.1-3.9z" fill="#ea9d7d"/><path xmlns="http://www.w3.org/2000/svg" d="M155.8 248.9h-.4c-.5-.1-.9-.3-1.2-.7-.5-.7-.6-1.9-.3-3.7.2-1.2.5-2.8 1.5-3.4.4-.3.8-.4 1.3-.3 2 .4 1.8 2.3 1.5 4.2v.2c-.2 1.6-.4 2.8-1.3 3.4-.3.2-.7.3-1.1.3zm.5-7.3c-.1 0-.3 0-.4.1-.5.4-.9 1.4-1.1 2.8-.3 1.5-.2 2.5.1 3 .1.2.3.3.6.3.4.1.6 0 .8-.1.6-.4.7-1.8.9-2.8v-.2c.3-2.1.3-2.9-.7-3.1h0-.2z" fill="#cc7a5e"/><path xmlns="http://www.w3.org/2000/svg" d="M153 240.7c-1.2-.2-1.9 1.4-2.2 3.3-.4 2-.3 3.7 1.1 3.9 1.7.3 1.9-1.4 2.2-3.3.4-2.1.6-3.6-1.1-3.9z" fill="#ea9d7d"/><path xmlns="http://www.w3.org/2000/svg" d="M152.3 248.4h-.4c-.5-.1-.9-.3-1.2-.7-.5-.7-.6-1.9-.3-3.7.2-1.2.5-2.7 1.5-3.4.4-.3.8-.4 1.3-.3 2.2.4 1.8 2.6 1.5 4.5-.2 1.6-.4 2.8-1.3 3.4-.3.1-.7.2-1.1.2zm.5-7.2c-.1 0-.3 0-.4.1-.5.4-.9 1.4-1.1 2.8-.3 1.5-.2 2.5.1 3 .1.2.3.3.6.3.4.1.6 0 .8-.1.6-.4.7-1.8.9-2.8.4-2.4.3-3.1-.7-3.3h0-.2z" fill="#cc7a5e"/><path xmlns="http://www.w3.org/2000/svg" d="M149.8 239.9c-1-.2-1.7 1.1-1.8 2.9-.3 1.7-.3 3.1.9 3.3 1.3.2 1.7-1.1 1.8-2.9.3-1.6.4-3.1-.9-3.3z" fill="#ea9d7d"/><path xmlns="http://www.w3.org/2000/svg" d="M149.2 246.6h-.4c-2-.4-1.5-2.8-1.3-3.9.1-1.4.6-2.5 1.2-3 .4-.3.8-.4 1.2-.3h0c.5.1.9.3 1.2.7.5.8.4 2 .2 3.2-.1 1.4-.4 2.5-1.1 3a1.93 1.93 0 0 1-1 .3zm.4-6.2c-.1 0-.2 0-.3.1-.4.3-.7 1.2-.8 2.3-.4 2.3 0 2.7.5 2.8.3.1.5 0 .6-.1.4-.3.6-1.4.7-2.3.2-1 .3-2 0-2.5-.1-.1-.3-.2-.7-.3h0z" fill="#cc7a5e"/><linearGradient xmlns="http://www.w3.org/2000/svg" id="tp-B" gradientUnits="userSpaceOnUse" x1="146.383" y1="218.407" x2="163.909" y2="219.616"><stop offset=".298" stop-color="#f5b02a"/><stop offset="1" stop-color="#e46c26"/></linearGradient><path xmlns="http://www.w3.org/2000/svg" d="M159.9 226.2l-10.8-1.5c-1.2-.1-2.1-1.2-1.8-2.5l1.5-10.5 16 3.9-2.5 9c-.2 1.1-1.3 1.8-2.4 1.6z" fill="url(#tp-B)"/><linearGradient xmlns="http://www.w3.org/2000/svg" id="tp-C" gradientUnits="userSpaceOnUse" x1="150.743" y1="129.28" x2="215.491" y2="184.887"><stop offset=".298" stop-color="#f5c52a"/><stop offset="1" stop-color="#e46c26"/></linearGradient><path xmlns="http://www.w3.org/2000/svg" d="M240.6 113.9c6.9 6.4 8.5 23.2-16.4 40.7s-35 26.2-38.5 39.6c-3.9 14.7-5.4 20.9-12.9 24.3s-20.4 0-25.8-1.7-13.8-12.2-8-33.3c5.7-21.1 22.3-37.8 35.4-49s30.9-25.8 42.2-30.5c13.2-5.6 16 2.4 24 9.9z" fill="url(#tp-C)"/><linearGradient xmlns="http://www.w3.org/2000/svg" id="tp-D" gradientUnits="userSpaceOnUse" x1="172.255" y1="154.037" x2="268.458" y2="154.037"><stop offset=".298" stop-color="#f5c52a"/><stop offset="1" stop-color="#e46c26"/></linearGradient><path xmlns="http://www.w3.org/2000/svg" d="M269.8 192.4l-.8-12.9-.9-13.2-1-12.9c-.4-4.9-.8-8.9-1.1-11.2-.1-.9-.3-1.7-.5-2.6-.8-4.2-2.3-8.6-4.2-12.9-6.4-14.2-18.3-27.3-33.2-26.6-3.6.1-15 .3-21.4 26.6-.8 3.4-1.6 7.2-2.2 11.5a19.71 19.71 0 0 0-.3 1.5c-.5 3.1-1.5 8-2.5 13.8l-2.4 12.9-2.5 13.2-5.5 28.4h79.3a1526.11 1526.11 0 0 0-.8-15.6z" fill="url(#tp-D)"/><g xmlns="http://www.w3.org/2000/svg" fill="#fcd842"><path d="M207.4 150.9l1.3.4-.2-1.6zm-3.5 1.7l1.4.4-.3-1.6zm1.1-5.5l.2-.8-.9.2zm4.6 5.8l1.1-1.3-1.8-.5zm-6.3 3.4l1.3-1.4-2-.7zm-1.1 3.8l1.3-1.4-2.1-.6zm1.5-7.9l1.1-1.2-1.8-.6zm2.2-.3l1.1-1.3-1.8-.6z"/><path d="M205.4 154.5l1.3-1.4-2-.7zm.9-7.1l1.1-1.3-1.8-.5zm-.6 1.9l1.1-1.3-1.8-.5zm-.6 19.4l1.3-1.3-2-.8zm2.4-6.5l-1.7-.8-.1 2.2zm-1.9 2.8l-1.7-.8-.1 2.2zm2.1-7.8l1.6.6-.2-1.8zm.7-7.8l1.4.4-.3-1.6zm-1.2 20.9l1.5.5-.1-1.8zm-.7-10.8l1 .4v-1.3zm1.2-7.2l-.1.9 1-.2zm6.8 6.2l-.9.1.5.9zm2.5-2.3l.3-.9-1 .1zm-6.3-.7l.8.1-.3-.9zm5.1-6.2l.1.8.8-.5zm4.1 21l.5-1h-1.3zm-7.1-1.3l.9.2-.3-1zm6.2-6.7l.1.9.9-.4zm-2.3 21.3l.4-1h-1.2zm-7.2-1.3l.9.2-.2-1zm6.3-6.7l.1.9.9-.5zm-1.4 4.4l.4-1h-1.2zm-7.2-1.2l1 .1-.4-1zm6.3-6.8v1l.9-.6zm-7.1 12.7l1.1-.4-.9-.9zm-4.3-5.8l.6.7.5-.9zm9.2-.6l-.6.7 1 .3zm-3.1-10.2l2 .4-.7-2.2z"/><path d="M212.7 164.3l.1 1 .9-.6zm-4.4 8.3l-.9-.7-.2 1.2zm.8-4.6l-.6-1-.7 1zm-5.1 5.1l.6-.7-1-.3zm-2-8.9l.8.4.1-1zm7.4 6.3l.4-1.4-1.7.2zm-9.7-.3h1.2l-.5-1.3zm7.1-10.1l.3 1.2 1.1-.9z"/><path d="M207.8 173.2l-.8-1.2-.8 1.4zm-6.2 6.6l.8-.9-1.2-.4zm-2.7-11.1l1 .5.1-1.2zm12.2-8.9l-.5-1-.8 1.1zm-5.2 5.1l.7-.7-1-.3zm-1.8-9l.8.4.1-1zm-1.6 2.4l1.6.5-.2-1.8zm1.5 2l2.5-.3-1.4-2.4zm1.9-2.7l1.6-1.9-2.6-.8zm-3.2 12.2l1.7-1.9-2.7-.8zm-.8 5.4l1.6-1.9-2.6-.8zm.7.9l-2.1-1.2-.3 2.8z"/><path d="M205.7 174.7l-1.9.2 1.1 1.8zm-.6-4.7l-1.8.2 1 1.8zm-5.3 6.5l1.6-1.8-2.6-.9zm3.4-14l1.6.5-.2-1.8zm-2 .2l1.5.5-.2-1.8zm12.8-10.1l.4-1-1.3.1zm-2.4-2.1l-.7-.5-.1.9zm4.3 3l.9.1-.3-1zm-13.4 10.9l.2-.9-1 .2zm5.3-8h.9l-.5-.9zm-6.9 12.1l1.3-1.4-2-.7z"/><path d="M200 163.7l-.7 3.5 3.9-.8zm-1.1 5.4l-.7 3.6 3.9-.8zm2-10.3l-.7 3.5 3.9-.8zm-3 17.2l-.7 3.6 3.9-.9z"/><path d="M201.8 154.7l-.7 3.5 3.9-.8zm.5-3.6l-.5 3.5 3.8-1zm.8-3.6l-.3 3.2 3.4-1.1zm-4 29.7l1.3-1.4-2-.7zm-1.3-2.7l1.8.6-.2-2.1zm-.5 5.6l1.7.7-.1-2.1zm.1.8l.3 1.9 1.7-1.2zm2.8-.1l1.5 1 .3-2zm-1.7 3.1l1.5 1 .3-2zm10.5-10.1l-.6-1-.7 1.1zm-5.1 5.1l.6-.6-1-.4zm-2-8.9l.8.4.1-1zm9-6.3l-.5-.8-.6.8zm2.6-2l-.7-1.4-1.1 1.4z"/><path d="M211.1 166.5l-.4-.8-.6.9zm-.7-2.5l-.4-.8-.6.8zm-1.9 10.8l1.4-1.3-2-.7zm1.7-2l.6.4.1-.9z"/><path d="M217 161.7l-.6-1.1-.9 1.1zm-6.1 5.4l.7-.7-1.1-.5zm-1.5-10.3l.8.6.2-1.2zm-2.2-24.1l1.3.5-.1-1.6zm-1 3.5l1.1-1.3-1.8-.5zm-1.1 3.8l1.1-1.3-1.8-.5zm1.9-7.8l1.3-1.1-1.7-.8zm2.3 0l1.3-1.1-1.8-.8z"/><path d="M207.9 134.6l1-1.3-1.7-.5zm.8-4.6l1-1.1-1.5-.6zm-.6 17.4l1.1-1.3-1.8-.5zm1.6-5.7l-1.5-.6v1.9zm-1.4 2.5l-1.5-.7v1.9zm1.4-6.9l1.4.4-.3-1.5zm.9 9.5l1.8.2-.6-1.9z"/><path d="M211.5 146.6l-.5-.8-.6.9zm-4.2 4.7l.5-.6-.8-.3zm-2.1-7.7l.7.3v-.9zm6.6 5.2l.3-1.3-1.4.3zm-8.5.1h1.1l-.5-1.1zm5.8-9.1l.3 1 .9-.8zm1.9 11.7l-.7-1-.7 1.2zm-5.3 5.9l.7-.8-1.1-.3z"/><path d="M203.1 147.7l.9.5v-1.1zm-4.3 31.6l1.3-1.4-2-.7zm-1.4 3.9l1.3-1.4-2-.7zm2.8 8.8l1.4-1.4-2-.7zm2.5-6.6l-1.7-.9-.1 2.2zm-1.9 2.9l-1.7-.9-.1 2.2zm2.4-7.8l1.5.7-.1-1.8zm-.9 13.1l1.5.6-.1-1.9zm-.4-10.8l1 .4V182zm1.5-7.2l-.2.9 1-.2zm6.5 6.5l-.9.1.5.9zm4.2-1.6l.4-1h-1.2zm-7.2-1.4l.9.1-.2-1zm6.4-6.6l.1 1 1-.5zm1.7 21.4l.5-1h-1.3zm-7.1-1.4l.9.1-.3-1zm6.4-6.6v.9l1-.4zm-2.9 21.2l.5-1h-1.3zm-7.1-1.4l.9.1-.2-1zm6.4-6.6l.1 1 .9-.5zm-1.5 4.4l.5-1h-1.3zm-7.1-1.4l.9.1-.3-1zm6.4-6.6l.1.9.9-.5zm-7.4 12.5l1.1-.4-.9-.9zm-4.1-6l.5.8.5-.9zm9.2-.3l-.6.7 1 .3zm-2.9-10.3l2 .5-.6-2.3zm4.6-3.6l.1.9.9-.5z"/><path d="M203.4 195.9l-.9-.7-.3 1.2zm.8-4.6l-.5-1-.8 1zm-5.2 5l.6-.6-.9-.4zm-1.7-9l.7.5.2-1z"/><path d="M204.5 193.9l.4-1.4-1.6.1zm-9.7-.6h1.2l-.5-1.3zm7.3-9.9l.3 1.2 1.1-.8zm1 13.4l-.7-1.2-.8 1.3z"/><path d="M196.6 203.1l.9-.8-1.2-.5zm-2.1-11.2l1 .6.1-1.3zm11.9-9l-.6-1-.7 1.1zm-5.2 5.1l.7-.7-1-.3zm-1.8-9l.8.4.1-1zm-1.6 2.4l1.5.5-.1-1.8zm1.5 2l2.4-.3-1.4-2.4zm1.9-2.7l1.6-1.8-2.6-.9zm-3.4 12.3l1.7-1.8-2.6-1zm-1 5.3l1.7-1.8-2.6-.9zm1.1 1.2l-2.2-1.3-.4 2.8zm2.7-1.5l-1.8.1 1 1.9z"/><path d="M200.2 193.2l-1.9.1 1 1.9zm-5.5 6.4l1.7-1.8-2.6-.9zm3.8-14l1.5.5-.2-1.8zm-2.1.2l1.5.5-.2-1.8zm1.3 1.7l.2-.9-1 .2zm5.5-7.7h1l-.5-1zm-7.2 11.8l1.4-1.4-2-.7z"/><path d="M195.8 186.2l-.8 3.5 3.9-.7zm-1.3 6.2l-.8 3.5 3.9-.7zm2.1-10.7l-.7 3.6 3.9-.9zm-3.6 17.5l-.6 3.5 3.8-.9z"/><path d="M197.3 177.7l-.8 3.5 4-.8zm-3 22.7l1.3-1.3-2-.8zm-.6-4.1l1.8.8-.1-2.1zm-1.4 6.9l1.7.8v-2.2zm0 .8l.2 1.9 1.9-1.1zm2.8 0l1.5 1.1.4-2zm-1.8 3.1l1.5 1 .4-2zm10.7-10l-.6-1-.7 1.1zm-5.3 5l.7-.6-1-.4zm-1.7-9l.8.5.1-1.1zm9.1-6l-.4-.8-.7.8zm2.7-1.9l-.7-1.4-1.1 1.3z"/><path d="M206.3 189.9l-.4-.8-.7.8zm-.7-2.5l-.4-.8-.6.8zm-2.1 10.7l1.4-1.3-2-.7zm1.7-2l.7.5.1-.9z"/><path d="M212.3 185.3l-.5-1.2-1 1.1zm-6.3 5.2l.8-.7-1.1-.5zm-1.2-10.3l.9.6.2-1.2zm2.5-6l-.7-1.2-.8 1.3zm-6.4 6.3l.8-.7-1.2-.5zm-2.3-11.1l1 .6.1-1.3zm14.5-30.5l-.5-.8-.6.9zm-4.3 4.8l.6-.6-.9-.3zm-2.1-7.8l.8.3v-.9zm-1.5 2.6l1.3.4-.2-1.6zm1.6 1.6l2.1-.4-1.3-2.1zm1.6-2.8l1.4-1.7-2.4-.7zm-2.3 11.2l1.3-1.7-2.3-.7zm0-6.5l1.4.4-.2-1.6zm-1.8.3l1.4.4-.2-1.6zm1.3 1.4l.1-.8-.9.2z"/><path d="M210 136.2l.8-.1-.5-.8zm-5.6 11.2l1.1-1.3-1.8-.5z"/><path d="M203.8 142.7l-.5 3.1 3.4-.9zm.6-3.7l-.5 3.1 3.4-.9zm.7-3.8l-.5 3.2 3.4-.9zm.9-3.6l-.7 3.1 3.4-.7zm.3-3.1l-.5 2.7 3.1-.7zm6.4 14.4l-.4-.7-.5.7z"/><path d="M213.1 145.3l-.4-.7-.5.8zm-.7-2.2l-.5-.6-.4.7zm-3.3-24.6l1.1.5-.1-1.4zm2.1-4.1l.3-.7h-.8zm-.6 5.5l1.1-.4-1-.9zm.4 4.5l1-.5-.9-.8zm-1.9 3.2l.9-.4-.9-.7zm2.7 1.9l-.2-.9-.8.6zm-.5-2.6l-.2-.9-.9.6zm.8-8.4l-.2-.9-.8.6zm.3-4.9l-.1-.6-.6.4zm1-2.1l-.5.2.5.5zm.6-.9l-.6.2.5.4zm-2.9 11l1.1-.8-1.4-.8zm-.9 4.2l-.1-1.4-1.4.7zm.2-3.3l-.1-1.4-1.4.7z"/><path d="M209 118.3l-.8 2.7 3.1-.4zm-.7 2.8l-.8 2.7 3.1-.3z"/><path d="M207.6 123.7l-.8 2.8 3.1-.5z"/><path d="M207 126l-.7 2.8 3-.5zm3.2-10.1l-.7 1.7 2-.1zm0-.3l1.5.3-.4-1.6z"/></g><g xmlns="http://www.w3.org/2000/svg" fill="#e06c1e"><path d="M229 186.1l-1.2.6 1.2.9zm1.4-3.8l-1.3.3 1 1.2zm-4.6 2.6l-.3 1.5 1.8-.5zm-3.8-4l-.1 1.5 1.6-.5zm-3.5-2.9l-1.6.3 1 1.4zm6.9.6l-.2 1.5 1.6-.4zm1.2 2.8l-.2 1.5 1.7-.5zm2.1-2.2l-.2 1.7 1.7-.5z"/><path d="M226.6 176.1l.3 1.5 1.4-.9zm3.5 6.4l.1 1.7 1.6-.9zm-1.6 1.2v1.5l1.6-.9zm-.3-2.4l-.3 1.5 1.7-.4zm1.6 4.6l-.3 1.5 1.7-.4z"/><path d="M230.6 186l-.1 1.6 1.6-.6zm-5.2-5.9l-1.3.3 1 1.1zm4.2 7l-.9 1 1.4.5zm-4.4-8.6l-.9.2.6.8zm2.5 5.4l-.4-.7-.5.7zm-7.4-1.1l.6-.5-.9-.4zm-2 3.1l.2.8.8-.6zm5.4-2.6l-.8.4.7.5zm-1 7.5l-.6-.6-.3.7zm-2.6-3.7l.9.2-.3-1.1zm-.7-5.8l.1.7.7-.5zm6.7 3.2l-.7.3.6.6zm2.6-7.3l-1.2.3.9 1.2zm-1.8-.5l-1.6 1.2 2 1.1zm-.4 2.8l-.3 2 2.2-.7zm-1.2-3.5l-1.2.6 1.4.9z"/><path d="M224.1 175.1l-1.2.7 1.2.9zm-.7 11.5l.1.8.9-.6zm3.1 2.7l.8-.2-.5-.7zm-4.8-2.4l-.7.3.6.5zm4-5.8l-.6.5.8.3zm3-3.9l-1.2-2.6-2.3 2.3zm1.5 2.9l-1.3-2.6-2.2 2.5zm1.4 2.7l-1.4-2.5-2 2.6zm1.6 2.8l-1.5-2.5-2 2.6z"/><path d="M234.5 188.2l-1.3-2.7-2 2.6z"/><path d="M236 190.4l-1.5-2.5-1.9 2.7zm-11.5-6.4l1.3.3-.3-1.4zm-3.9.1l1.3.3-.3-1.4zm7.2 3.1l-.2 1.5 1.8-.6z"/><path d="M229.4 189.8l1.5-.4-1.1-1.4zm5.9 2.3l1.6-.2-1-1.5zm-2.1.6l1.6-.4-1-1.4zm-1.2-2.5l1.6-.4-1.1-1.5zm-1.4 1.5l-.8-.2.1.9zm-.3 5.9v-.7l-.8.3zm-6-4.4l.7-.2-.5-.7zm-8.4-7.7l-.2.9 1.1-.2zm5.9 0h-.7l.4.8zm-4 6.3l-.1-.6-.7.4zm15 .2l-1.7.4 1.2 1.4zm-9.8-.3l-.4-.7-.5.7zm2.6-2.1l.9.3v-1zm.8-5.8l-.1.7.9-.3zm5.7 4.7l-.8.1.5.8zm-19.9-2.8l.5.8.5-.9z"/><path d="M216.7 181.3l-.5.5.7.3zm1.7 7.3l-.7-.4-.1.8zm9.3 13.3l.9-.1-.6-.8zm.1-7.4l.9-.2-.6-.9zm-2.1 1.8l.3.8.5-.7zm7.3 1.2l-.6.5.8.4zm-2.3-10.7v2l2.2-.8zm.7-1.7l-.3 1.4 1.7-.3zm-.6 5.3l.8 1 .7-1.2zm-7.3-.9l.5.5.2-.8zm-4 2.5l.7.8.5-1zm4.2-5.2l-.5.7 1 .2zm2.7 8l-.8-.4v1zm9-2.4l-1-.6-.3 1.5zm1.5 1.3l-1.1.5 1.2 1z"/><path d="M236.8 194.2l-1.1-.6-.2 1.4z"/><path d="M235.9 196l2-.1-1.1-2.2z"/><path d="M235.8 194l2.3-.2-1.5-2.2zm-1.1 1l.1 1.5 1.6-.8zm2 1.8l.2 1.6 1.5-1zm-.9.1l-1.1.7 1.3.8zm2.2-1.7l-1.1.6 1.2 1zm-6.3-.8l.5.6.3-.9z"/><path d="M239.5 196.1l-1.5-2.4-1.8 2.8zm5.5 8.2l-.8.6 1 .4zm-1.3-.8l.3 1.2 1-.9zm-2.7-3.6l.3 1.2 1.1-.8zm2.8 4.9l.1 1 1-.6zm-5.2-2.2l1.2-.8-1.4-.8zm2 1.1l1.1-.8-1.5-.8zm-3.4-4l1.2-.6-1.3-1.1zm-3.6 1.1h.8l-.2-.8zm-.8-5.3l.1.6.7-.4zm6.2 2.7l-.7.3.6.5zm-2.8 9.2l1.3.3-.5-1zm-.6-4.4l.1.7.7-.4zm6.1 3.1l-.8.3.6.5zm-3.3 1l.1.7.7-.4zm-5.3-3.2l.8.2v-.9zm-1.9-4.7l.1.6.6-.4zm5.8 2.9l-.7.3.6.5zm-1.6 3.2l-.4.8h1zm5.7 1.5l-.7-.3.1.8zm-15.7-.3l-.4.7.8.2zm5.5.1l-.6.7.8.2zM217 193.9l.9-.2-.6-.8zm7.3 6.6h.9l-.4-.8zm-1.1-5.3l.2.7.6-.5zm2.7 4.1l.2.6.6-.5zm-4.9-2.7l.8.1-.4-.9zm2 1.1l-.2.9.9-.1zm3.4 4.1v-.7l-.8.4zm2.8 1.7l-.8.1.6.8zm-12.9-6.1l-.5.6.9.3zm5.1 2l-.8-.3.1.8z"/><path d="M218.3 206.3v-.6l-.6.2zm.5-6.3l-.4.7.9.1zm7.5-.6l-.6-.3-.1.7zm-6.1 3.1l.3-.7-.8.2zm21.3-1.6l-.6.8 1 .3z"/><path d="M239.9 200l-.5 1.5 1.8-.2z"/><path d="M240.1 200l-1 .6 1.1.6zm.7-2.3l-1.1.7 1.2.7z"/><path d="M238.9 198.5l.4.5.4-.7zm2.1-.5l-1.5-2.1-1.8 2.3zm1.5 2l-1.4-2-1.2 2.2z"/><path d="M243.7 201.5l-1.4-1.9-1.3 2.1z"/><path d="M245.1 203.2l-1.4-1.8-1 2.1zm1.4 1.5l-1.4-1.4-.8 2.1zm-3.9 1.2l-1.5 1 1.8 1.1zm-10.3-8.9l.1 1.8 1.7-1zm-8.1-10.3v1.8l1.8-1zm21.5 19.1l-1.1.7 1.3.9z"/><path d="M244.8 205.5l-1.1.8 1.4.7zm-11.4-11.7l-.8 1 1.5.4zm-4.4 1.3l-.8 1.1 1.4.4zm9.1 9l-1.5 1.2 1.9.9zm10.4 3.3l-1.7-2-1.5 2.8zm-25.7-21.9l.2-.7h-.9zm-5.4-.2h.7l-.3-.7zm4-5.6l.1.7.5-.5zm2.6-1.3l.3 1 1-.7zm2.7 12.9l.6 1.5 1.2-1.2zm1.7-.2l1.4.6-.1-1.7zm1.8 4.9l1.4.7-.1-1.8zm-9.5-26.4l-1.2.6 1.1 1zm1.7-3.5l-1.2.2.8 1.2zm-4.8 2.1l-.4 1.5 1.8-.3zm-3.4-4.2l-.3 1.5 1.6-.4z"/><path d="M215.6 160.8l-.1-1.6-1.6.9zm.4-15.9l-.5-1.8-.9.9zm1.7 17.1l-.3 1.4 1.7-.3zm1 2.8l-.3 1.6 1.7-.4zm2.2-1.9l-.3 1.5 1.7-.3zm-1.8-3.3l.2 1.5 1.5-.9zm3 6.7l.1 1.5 1.6-.7zm-1.8.9l.1 1.6 1.6-.7z"/><path d="M220.3 164.9l-.3 1.5 1.7-.3zm1.3 4.6l-.5 1.5 1.8-.2z"/><path d="M222.3 169.7l-.2 1.5 1.6-.5zm-4.7-6.3l-1.2.2.8 1.2zm1.4-8l-1.3.2.8 1.3zm-3.4-1.5v1.3l1.3-.8zm1.2-6.1l-.9 1 1.4.4zm4.5 23l-1 .8 1.3.6zm-3.8-9l-.9.1.5.9zm2.1 5.6l-.3-.7-.7.6zm-7.3-1.6l.6-.6-.7-.3zm1.8-8.3l.7-.5-.8-.3zm1.7-10.3l.6-.6-.8-.3zm-5.7 21.5l.2.8.8-.5zm5.5-2.2l-.7.3.6.7zm-1.6 7.3l-.4-.6-.5.7zm-2.2-3.8l.9.2-.2-1zm1.6-15.8l.1.7.7-.4zm1.9-1.1v.7l.8-.4zm-1-1.3l-.1.7.8-.3zm3.6 16.1l-.7.2.7.6zm3.3-7.1l-1.2.2.8 1.3zm-1.8-.7l-1.7 1.1 1.9 1.2zm-.9-2l-.6.5.8.6zm-1-2.4l-.8.5.9.5zm-1.9.2v1l1-.5zm3.1 7l-.4 2 2.2-.5zm-.9-3.7l-1.2.6 1.2 1z"/><path d="M216.6 158.5l-1.1.4 1.1 1zm.9-6.1l-1.2.6 1.1 1zm-2.5 17.3l.2.9.8-.6zm3 2.9l.8-.1-.5-.7zm-4.6-2.8l-.7.3.5.6zm4.5-5.4l-.7.4.7.5zm3.4-3.6l-1-2.6-2.4 2zm1.2 3.1l-1.2-2.7-2.2 2.4z"/><path d="M223.6 166.7l-1.2-2.7-2.2 2.3zm-5.4-14.6l-.7-2.2-2.1 1.7zm1 3.2l-.8-2.4-2 1.9zm1 2.8l-.9-2.4-2 1.9zm4.8 11.4l-1.3-2.6-2.1 2.4z"/><path d="M226.1 172.1l-1.2-2.7-2.2 2.5z"/><path d="M227.4 174.5l-1.3-2.5-2.1 2.5zm-11-7.2l1.3.4-.2-1.5zm-3.9-.2l1.2.4-.1-1.4zm7 3.5l-.3 1.5 1.7-.4z"/><path d="M220.8 173.3l1.5-.2-.9-1.4zm4 2.8l1.7-.2-1-1.5zm-1.4-2.1l1.6-.3-.9-1.4zm-1.5 1.4l-.8-.3.1 1zm-6.4 1l.8-.1-.5-.8zm-2.7-26.1l-.3.8 1-.1zm.8 18.2h-.7l.4.8zm-4.4 6l-.1-.7-.8.5zm14.9 1.4l-1.7.3 1.1 1.5zm-9.8-1.1l-.4-.7-.5.7zm2.8-1.9l.9.4v-1zm1.2-5.8l-.2.8.9-.2zm5.3 5.3h-.7l.4.8zm-13.3 8l.4.7.6-.8zM213 159l-.6.5.8.4zm-.9 13.9l-.6-.4-.2.9z"/><path d="M218.9 178l.9-.2-.5-.8zm3.5-7.5l-.1 2.1 2.1-.7zm.9-1.7l-.5 1.5 1.8-.2zm-1.1 5.3l.7 1.1.8-1.2zm-7.3-1.4l.6.5.3-.8zm-1.3 6.8l.5.8.7-.9zm1.7-9.5l-.5.6.9.3zm7.5 8.2l.5.6.2-.9zm1 1.2l.1.6.6-.3zm-8-9.4v1.8l1.9-.9zm5.5 6.7l-.9.8 1.4.6zm-1.2 2l-.9 1 1.3.5zm-5.6-10.1l.4-.7h-1zm-5.3-.7l.7.2-.2-.7zm4.4-5.1l.1.7.6-.4zm1.9-12.7l.1.7.7-.4zm-.8-1.6l.1.7.7-.5zm1.7 13.1l.2 1 .9-.6zm1.6 13.2l.5 1.4 1.3-1.1zm1.8-.2l1.3.7.1-1.7zm1.4 5.1l1.3.7.1-1.8zm19.8 24.6l1.2.8.3-1.7zm-6.2-4.2l.5 1.4 1.3-1.1zm-2.7 1.5l-1.2 1 1.7.7zm.7 4l-.3 1.5 1.8-.5z"/></g><g xmlns="http://www.w3.org/2000/svg" fill="#dd6d22"><path d="M198.8 147.3l-1.2-.2.3 1.4zm3.6-1.9l-1.2-.5v1.4zm-5.5-1.2l-1.1 1 1.6.8zm6.1-2.2l-1.1 1 1.5.7z"/><path d="M203 137.9l-.7 1.3 1.7.2zm-1 7.5l-.9 1.2 1.6.3zm-1.9-.2l-.9 1.2 1.6.3zm1.2-2l-1.1 1 1.5.7zm-1.7 4.5l-1.1.9 1.4.8z"/><path d="M200.1 148.2l-1 1.2 1.6.5zm-.1-7.6l-1.1-.6v1.4zm-1.3 7.9l-1.3.1.7 1.3zm1.9-9.3l-.7-.4-.1 1zm-1.3 5.6l.2-.7-.8.1zm-5.1-5.4h.8l-.4-.8zm-3.5.9l-.4.8h1zm5.6 1.5l-.7-.2.1.8zm-5.5 4.9l.1-.8-.8.4zm5.6-5.7l.7.6.3-.9zm2.9-5l-.3.6.8.1zm3.5 6.5l-.7-.2.1.8zm1.3-2.4l-1.2-.5v1.4zm-1.3-1.6h-1.9l.9 2zm2.1-7l-1.4-.5.1 1.7zm-3.7 9.2l-1.5 1.4 2.1.9zm.8-3.7l-1.2-.2.4 1.4zm1.6-.6l-1.3-.1.5 1.3zM194 144l-.3.8h1zm.7 4l.7.3v-.8z"/><path d="M192.6 143.1l-.7-.1.2.8zm7-1.6h-.7l.3.8zm4.6-2.8l.6-2.8-3.1.6zm-.7 4.4l.6-2.8-3.1.7zm-.6 3.3l.6-2.8-3.1.7zm-.5-13.1l-1 1.1 1.6.6zm2.4 2.1l.7-2.8-3.2.6zm.8-4l.6-2.3-2.7.4zm.6-3.2l.3-1.6-1.7.3zm-3.9 21.5l.6-2.8-3.2.7zm-.5 3l.5-2.8-3.1.7z"/><path d="M201.3 155.5l.4-2.9-3.1.8zm-4.4-12.5l.7 1 .7-1.3zm.3 4.2l-1.1 1.1 1.6.6zm-.3 3.1l1.3.7.1-1.7z"/><path d="M199.3 155.8l1.3.8.1-1.8zm-1.4-.9l1.3.7.1-1.7zm.7-2.6l1.3.7.2-1.8zm-2.3.1l-.5-.7-.6.8zm-4 4.3l.5-.6-.8-.3zm-1.8-7.1l.7.3v-.8zm5.4 19.5l-.6.6.9.4zm-2.3-26.8l-.6-.5-.2.8zm-2.5 15.3l.3-.7h-.8zm6.7-3.6l-1.4-.7v1.8zm-8 8.1l.1-.7-.8.2zm4.2-14.2l.4.8.6-.8zm4.5-4l-.6.6.8.3zm1.2 7.2l-.7-.4-.1.8zm-2.6-20.8l-.2.8 1-.2zm5.8-.2h-.7l.4.7zm-3.9 5.8l-.1-.7-.7.5zm6.6-10.2l-1-.6-.1 1.4zm.6-1.3l-1-.1.4 1.1z"/><path d="M206.7 126.2l.5-2.3-1.5.3zm-1.9 1.1l-.9.7 1.2.6zm2.4-3.9l.5-1.6-1.2.5zm-4.5-1.2l-.2.6h.8zm2.8 0l-.6-.1.3.7zm1.9-1.2h-.6l.3.6zm.2-2.1h-.5l.2.6zm-4.4 8.5l-.1-.5-.5.3zm-10.8 23.4l.1.9.9-.5zm5.7-1.8l-.7.2.6.6zm-2.1 7.1l-.4-.6-.4.6zm3.7-7.1l-1.2 1.5 2.1.7zm1.7-.9l-1.2.9 1.5.8zm-3.8 3.6l-.1 1.3 1.3-.6zm-5.3-5.4v.7l.8-.5zm-.4 17.6v1l1-.4zm2.2-19.5l-.7.2.5.7zm-3 7.7l-.4-.8-.6.8zm.1 12.8l-.2-.7-.6.4zm-3.2-6.8l-.7-.2.1.8zm3.3 9.7l.6.2v-.8zm-.6-4l-.5-.5-.2.8zm2.6 4.9l.2.9.8-.6zm-5.7-7.5l.2.7.6-.5zm4.5-1.2l.2.9.9-.7zm0 10.2l-.4-.7-.5.8zm7.7-13.5l-.5-1.2-1 1.1zm-.6 3.4l-.4-1.2-1 1.1z"/><path d="M199.8 158.8l-.4-1.2-1 1.1zm-1.4 1l1.7 1.1.2-2.3z"/><path d="M198.9 157.8l1.6 1.1.4-2.3zm-3.1 6l-1.1 1.1 1.7.5zm1.1-1.6l-.8 1.3 1.6.3zm-1.8-2.3l-.6-1.1-.9 1.2zm2.2 2.1l-.6-1.1-.8 1.1zm1.8.1l-1.3-.4.2 1.5z"/><path d="M195.3 155.1l.1.8.7-.5zm4.3 8.5l.6-2.7-3.2.6zm-2.4-5.9l-.7.9 1.3.4zm-3.6-.8l1.3.3-.2-1.5zm1-2.2l1.3.4-.2-1.6zm-1.3-.8l.5.6.5-.8zm3.2-4.2l-.4.6.7.1zm2.3 6.3l-.7-.3.1.8zm-6.8-2.8l.5.6.4-.8zm3.2-4.2l-.4.6.7.1zm2.2 6.3l-.6-.3v.8zm-1.7 6.4h-1.1l.5 1.1zm-3.1 13.6l-1 .1.5 1zm3.9-18.5l-1.5.6 1.3 1.3zm-2.9 1.3l-1-.2.3 1.1zm1.6 14.8l.4-.6-.8-.2z"/><path d="M194.4 171l.3-.6-.8.1zm-2.2-5.8l1.3.5-.2-1.6zm4.8 6.1l-1-.2.4 1.2zm2.3-5.6l.3-1.9-2.2.3zm-1.1-7.5l.3-2.3-2.4.7zm-.3 3.1l.3-2.3-2.4.8zm-14.2 22.4h-.9l.5.9zm4.8-13l.7-.4-.7-.5zm-3.4 3.1l.5-.5-.8-.2zm.9 2.7l-.5.8 1 .3zm8.2.5l.2-1.2-1.3.3zm1.2-.8l.2-1.2-1.4.4z"/><path d="M194 176.1l.7 1.9 1.6-1.7z"/><path d="M195.4 174.8l.7 1.8 1.6-1.6zm-6.1 3.5l-1.4.4 1.2 1.4zm1.9-.7l-1.5.7 1.3 1.1zm-.4-2.9v-1.2l-1.3.5zm2.2 4l-.8-1-.6 1.3z"/><path d="M192.9 180.2l1.8-2.1-3.1-.9zm2.8-7l-1.1.4.9 1zm-3.6 0l1 1 .6-1.4zm-1.8 3.4l-.9-.6-.1 1.1zm3.9-14.4l-1.5-.5.2 1.8zm.7 6.7l-1.1 1.1 1.7.5zm1.1-1.6l-.8 1.3 1.6.3zm.4-.2l-.6-1.1-.8 1.1zm1.8.1l-1.3-.4.2 1.5z"/><path d="M198.7 168.7l.6-2.7-3.2.6zm-3.9-1.9h-1.1l.5 1.1zm3.6 4l.3-1.9-2.2.3zm-.8 4.1l.3-1.9-2.2.3z"/><path d="M197.9 173l.4-1.9-2.2.3zm-.9-6.6l.3-2.3-2.4.8zm-3.7.9l-1.5-.5.2 1.8zm-2.8 5.1l-.8-.7-.4 1.1zm.3 9.8l-.9-.7-.3 1.1zm-.7-2.1l-.5.6.8.1zm1.3 1.7l1.2-1.5-2-.7zm-6.4 4.1l-1 .4.9.8zm1.7-3.1l.2-.7-.8.1zm1.2-2.2l-1 .3.7.9zm-4.7 13.6l-.7.3.7.8zm-1.1-1.1l.3-.8h-.8zm.4 4.1l-.2.9 1.1-.1zm4.6-10.2l-.2-1.3-1.3.8zm.9-1.1l-.3-1.3-1.2.8z"/><path d="M186.6 186.1l1.3 1.6 1-2.1zm1.6-2.6l1.1 1.6 1.2-2zm-3 12l-1.5.3 1 1.4zm-.9-6.9l-1.1 1 1.5.6zm-1 12.5l-.3-1.2-1.1 1zm3.2-12.2l-1.1-.7-.2 1.6z"/><path d="M186.7 190.4l1-2.5-2-.2zm.5-7.5l-.9.8 1.2.6zm-2.5-1.6l1.3.6v-1.5zm-1.5 6.5l-.9-.3.1 1.2zm-.9 15.5l-1-.3.1 1.1zm3.2-10.4l-1.1-.4.1 1.3zm-1.5-1.7l-.1.7.7-.1zm2.2 1.6l.5-1.9-2.2.1z"/></g><g xmlns="http://www.w3.org/2000/svg" fill="#fcd842"><path d="M177 134.6l.7.9.5-1.2zm2.5-2.1l.4-.4-.6-.4zm-4.1 1.3l1.2.5-.1-1.5zm3 1.8l1.2-.4-.9-1.1zm-2.1 1.3l1.3-.3-.9-1.1zm2.7-2.7l1.3-.4-1-1.1zm6.1 6.2l.7.5.1-.9zm-6.6-9.6l-1.9 1.7 2.5 1.1zm10.8-4.7l.5.8.7-1zm-1.5-1.3l.5.9.7-1zm1.6-1.6l.5.9.7-1.1zm-.4 1l.5 1 .7-1zm-.7 4l1.2-.1-.8-1.3zm-2.9-1.4l1.3-.3-.8-1.2zm-2.4 1.4l1.1-.1-.7-1.2zm5.9-6l-1.3 1 1.7.9zm1.6 2.6h1.3l-.8-1.3zm-3.3 1.9l1.2-.3-.8-1.1zm4.5-3.4l1.3-.3-.8-1.2zM181.3 134l1.2-.4-.9-1.1zm3.2-2.8l-.7-1.1-.7 1.2zm-1.7.9l-.6-1.1-.9 1.2zm2.2-3.7l.7.9.6-1.2zm6.7-4.5l.6.9.7-1.1zm-1.2-1.8l.7.9.6-1zm-8.2 10.5l.3.6.5-.7zm3.7-3.2l-.4.4.6.3zm.7 6.2l-.5-.4-.1.7zm-5.1-1.3l1.1.9.4-1.4zm5.4-.2l-.2.6h.7zm1.7-3.4l-.2.7.9-.2zm6.1-4.3l-.3.5.7.3zm4.6 1.7l-.6-.2v.8zm-6.9 2.9l-.5-.2v.7zm1.9.8v-.6l-.7.2zm1.7-1.3l-.7-.1.3.7zm0 3l-.7.1.4.5zm-12.4-6.1l.6 1 .7-1.1z"/><path d="M183.3 128.9l1.6.7.1-1.9zm2.8-.4l1.7-.3-1.1-1.6zm-8.9 6.3l1.5-.5-1.2-1.4zm5-5l.7.9.5-1.1z"/><path d="M180.9 129.2l.7.8.5-1.1zm11.7-2.2l-.1-.7-.6.5zm-11.3 3.6l.5-.5-.7-.3zm5.8-2.6l.5.3.1-.7zm-8.1 4.4l1.2-.4-.8-1.1z"/><path d="M180.5 129.2l-1.8 1.6 2.3 1.1zm2.3-2.1l-1.8 1.7 2.4 1.1zm2.4-1.9l-1.9 1.6 2.4 1.2zm2.4-2l-2 1.8 2.4 1zm3.1-2.3l-1.9 1.3 2.4 1.4zm-4.5 12.3v-.7l-.5.2zm-.7-1.8l.1-1-1.1.4zm3-1.9v-.7l-.8.2zm-3.1 5.3v-.6l-.6.3zm10.9-12.1v.8l.7-.5zm3.9-6.7l-.2.7.8-.1zm3.2-.2h-.6l.2.7zm2-3.3l-.6-.1.2.7zm1.9-2.5l-.6-.1.3.7zm-8.3 12.4v-.6l-.6.4zm-.9-2.7l-.1-.6-.5.4z"/><path d="M198.5 116.8l.1 1.4 1.4-.7zm4.1 3.6l-.6.3.5.6zm3.8-8.9l-.6.3.5.4zm1.6-2.1l-.5.1.4.6zm-7.1 10.5l.5-.5-.8-.2zm-.3-1.9l.4-.5-.6-.2zm-4.5 7.4l.5-.3-.7-.4zm-10.2 7.7l-.1-.6-.5.3zm12.3-17.9l.4.6.5-.6zm-1.5 2.9l1-.1-.6-1.1zm-2.2.7l1.1-.1-.6-1zm4.5-4.3l.8.4.1-1zm-2.7 7l-.6-1.1-.8 1.1zm-2.1 1.1l-.5-1-.8 1.1zm.7 3.2l.1-.7-.7.3zm-4.4.7l.6-.2-.4-.5z"/><path d="M192.9 121.3l.2.6.5-.6zm2.4-2.7l.5.6.5-.9z"/><path d="M194.6 119.7l1.1.5v-1.5zm-.4.4l.5.8.5-.8zm-1.7-.4l.7.9.4-1.1zm.7 1.6l.4-.4-.5-.3z"/><path d="M192.5 119.4l-1.7 1.4 2 1.4zm1.8-1.4l-1.5 1.2 1.8 1.1zm1.9-1.5l-1.5 1.1 1.7 1zm5.1-3.6l-1.2.9 1.4.9zm-3.5 2.4l-1.3 1 1.6.9zm6.1-3.6l-.2.6h.7zm-1.2 2.3l.1 1.1 1.1-.7zm3.1-3.5v1.1l1.1-.7z"/><path d="M201.9 114h.8l-.4-.9zm1.1-2.2l-1.1.8 1.2.8zm2.2-1.3l-.8.5.9.6zm-46.1 41.4l.8.8.4-1.2zm2.3-2.3l.4-.6-.7-.2zm-4.1 1.6l1.1.4-.1-1.5zm3.2 1.5l1.3-.5-1.1-1zm1.6.4l1.2-.4-1-1zm-1.1-1.9l1.3-.4-1.1-1zm6.7 5.7l.7.4.1-.9z"/><path d="M160.2 148l-1.7 1.8 2.6.9zm10.5-5.7l.6.9.5-1.1zm-1.7-1.1l.6.9.6-1.1zm1.4-1.8l.6.9.7-1.1zm-.3 1.2l.7.8.6-1.1zm-.4 4l1.3-.3-.8-1.2zm-2.8-1.3l1.1-.2-.8-1.2zm-2.6 1.7l1.3-.4-.8-1.1zm5.6-6.5l-1.2 1.2 1.8.6zm1.8 2.6l1.3-.3-.9-1.2zm-3.2 2l1.3-.3-.8-1.2zm4.3-3.8l1.3-.3-1-1.1zm-9.5 11.6l1.3-.4-1.1-1.1zm3-3.1l-.7-1-.7 1.3zm-1.6 1l-.8-1-.6 1.2zm1.9-3.8l.7.8.4-1.1zm6.3-5.1l.7.9.5-1.1zm-1.3-1.6l.6.9.6-1.1zm-7.5 11l.5.7.4-.7zm3.6-3.4l-.4.5.6.2zm1.2 6.1l-.6-.3-.1.7zm-5.3-.8l1.1.8.4-1.5zm5.5-.7l-.2.6.7-.1zm1.4-3.5l-.1.8.7-.3zm5.7-4.8l-.3.7.8.1zm4.7 1.3l-.6-.1.1.7zm-6.6 3.5l-.6-.1.1.7zm1.9.6v-.6l-.7.2zm1.5-1.4h-.6l.4.6zm.3 2.9l-.6.1.4.7zm3-8.6l.5.2.2-.7zm-1.7-1l-.2.6.7-.2z"/><path d="M179 136.8l-.1.6.7-.1zm-1.5 3.8l.6.1-.3-.7zm-1.5-1.4l1.2.1-.4-1.2zm-4.3 6.3l1.1.1-.5-1.3zm6.1-7.9h.6l-.3-.7zm-12.7 6.3l.6 1 .6-1.1zm-.2 1.7l1.6.6v-1.9zm2.8-.6l1.6-.4-1.2-1.5zm-9.2 7l1.5-.8-1-.9zm5.4-5.4l.7.8.4-1zm-1.4-.4l.8.8.5-1.2zm11.5-3.3l-.2-.6-.5.5z"/><path d="M163.1 147.4l.4-.4-.7-.2zm5.5-3l.6.3v-.8zm-7.7 5l1.1-.4-.9-1z"/><path d="M162 146.1l-1.6 1.8 2.5.8zm2.2-2.3l-1.7 1.7 2.5 1zm2.1-2.1l-1.6 1.7 2.5 1zm2.3-2.2l-1.9 1.9 2.5.8zm2.9-2.6l-1.7 1.6 2.4 1.1zm-3.3 12.7l-.1-.6-.6.3zm-.8-1.6l-.1-1.1-1.1.5zm2.6-2.2v-.7l-.7.3z"/><path d="M167.5 151.3v-.6l-.6.4zm.4-1.7l-.1-.6-.6.3zm7.4-11.1l-.7-1-.7 1.2zm.9 3.1v-.7l-.6.3zm-4.3 1l.6-.2-.5-.5zm1.8-5.3l.3.5.4-.5zm1.3-1.3l.6.7.5-.8zm-1.7-.3l.6.8.5-1z"/><path d="M174.1 137.2l.4-.4-.5-.2zm-.9-1.9l-1.6 1.6 2.1 1.1zm1.8-1.4l-1.4 1.3 1.9.9zm-30 38.8l1 .4.1-1.2zm1.8-2.9l.2-.6h-.7zm-3.5 2.6h1.3l-.6-1.3zm3.3.7l1.1-.7-1.3-.8zm2.2-.9l1-.8-1.2-.7zm-2-.7l1-.6-1.2-.9zm3.5 4l.8.3-.1-.9zm-5.1-6.9l-1.1 2.1 2.6.3zm9.1-8l.8.8.3-1.2zm-1.9-.8l.8.7.3-1.1zm1-2l.8.8.5-1.2zm.1 1.2l.8.8.3-1.3zm.3 4l1.1-.5-1-1zm-3.2-.4l1.1-.7-1.1-.8zm-2 2l1.2-.6-1.3-.9zm4-7.6l-.9 1.3 1.8.4zm2.5 2.2l1.1-.5-1-1zm-2.9 2.8l1.2-.7-1.2-.9zm3.6-4.7l1.2-.6-1.1-1zm-6.9 13.3l1.1-.6-1.2-.9zm2.3-3.6l-1-.7-.4 1.3zm-1.4 1.3l-1-.8-.3 1.4zm.9-4.1l1 .6.1-1.2zm5.2-6.3l.9.7.3-1.1zm-1.5-1.4l.7.7.5-1.1zm-5 12.5l.5.5.4-.7zm2.6-4.1l-.3.6.7.1zm2.6 5.6l-.6-.2.1.7zm-2.2-4.6l1.2.4v-1.5z"/><path d="M154.1 169v.6l.7-.2zm.8-3.8v.8l.7-.4zm4.8-5.7l-.2.7.8-.1zm3.3 2.6l-.6-.2.3.8zm-4.4 2.6l-.6-.2.2.7zm2.6-2.5v-.6l-.7.4zm-3.2 5.5l-.6.2.5.6zm4.7-1.7l-.5.2.4.6zm1.4-9.1l.6.2-.1-.7zm-1.9-.7v.7l.6-.3zm-.8-2.5v.6l.7-.2zm-.8 4l.6-.1-.3-.6zm-1.7-1l1.2-.2-.7-1.1zm.1-1.8l.9-.8-1.2-.5zm-3.3 7.7l1.2-.1-.7-1.2zm4.7-8h.7l-.4-.6zm-11.3 9l.8.7.3-1.3zm.2 1.6l1.7.1-.6-1.7zm2.5-1.3l1.5-.8-1.5-1.1zm-4.6 7.1l1.4-.9-1.6-1zm1.3-4.5l.9.6.2-1.3zm-1.5-.2l1 .5.2-1.2z"/><path d="M157.6 160.7l-.3-.6-.4.5zm-9.7 6.7l.3-.6h-.7zm4.7-4.4l.6.2-.1-.7zm-6.4 6.9l1.1-.8-1.2-.7zm.2-3.8l-1.1 2.2 2.6.2zm1.6-2.6l-1.3 2.1 2.7.3zm1.8-2.5l-1.3 2 2.6.4zm1.7-2.6l-1.4 2.3 2.6.2zm2.6-3.2l-1.5 1.9 2.7.6zm-.7 13.2l-.2-.6-.6.4zm-1.2-1.5l-.3-1-1 .8zm2-2.7l-.1-.7-.6.4z"/><path d="M151.7 172.3l-.2-.6-.6.5zm1.4-3.9l-.3-.6-.5.5zm-4.8 14.5l.7.3-.1-.9zm-9.9 10.9l.7.3-.1-.9zm3.4-1.7l.8.3-.2-.9zm3.9-13.1l.5.6.3-.8zm2.7-4l-.4.5.7.1zm2.5 5.6l-.6-.2.1.6zm-11.8 12.2l.4.4.3-.7zm2.6-4.2l-.4.6.7.1zm3.2.2l-.3.6.7.1zm-4.6 6.7l-.3.5.7.1zm.1 2.7l-.4.5.8.1zm-1.5-.8l-.4.5.7.1zm-.9 1.8l-.3.5.7.1zm6.2-5l-.6-.1.2.7zm-5.2 1l-.6-.1.1.7zm11.5-16.2l-.1.6.7-.2zm3.9-1.3l-.7.3.6.5zm-4.8.7l-.1-.6-.5.4z"/><path d="M149.3 178.5l-.2-.6-.5.5zm8.8-22.6l-.9-.7-.4 1.2zm1.5 3l-.2-.7-.6.4zm-4.1 1.7l.6-.3-.6-.3zm.9-5.4l.3.3.4-.5zm1-1.6l.7.6.3-.9zm-1.7 0l.8.6.2-1zm1.1 1.3l.2-.4-.6-.1z"/><path d="M155.5 153.3l-1.3 1.7 2.3.9zm1.4-1.7l-1.1 1.4 2 .7zm-14.7 22.5h1.3l-.7-1.4zm.1 9.9l.9.5.1-1.2zm-2.1-.1l1 .3V183zm.5-2.3l.9.5.1-1.3zm.3 1.1l1 .4v-1.2zm1.6 3.7l1-.8-1.4-.7zm-2.9.7l.8-1-1.3-.4zm-1.2 2.6l.9-.9-1.4-.5zm1.2-8.6l-.5 1.7 1.9-.3zm3 1.2l1-.8-1.4-.6zm-1.9 3.5l.9-.9-1.4-.4zm1.9-5.5l1-.9-1.4-.5zm.4.6l1 .4V180zm-1.9-.9l.9.5.1-1.2z"/><path d="M144.3 185.5l1.1-.6-1-.9zm-4.5 5.4l1.1-.6-1-.8zm-2.7 3.9l1-.6-1-.9zm-.1 2.4l.8-.4-.7-.6zm4.1-9.3l1.1-1.2-1.8-.6zm4.4-4.9l-.5-.5-.1.7z"/><path d="M141.4 186.8h.7l-.4-.6zm-3-.9l-.5 2.4 2.6-.5zm.7-3l-.6 2.6 2.7-.6zm-1.5 7.4l-.3 1.6 1.7-.5zm9-16.7l.9.5.1-1.3zm-2.1-.2l1 .5v-1.2zm2.4 2.6l.9-.9-1.3-.6zm-1.8-.5l.9-.9-1.4-.6z"/><path d="M147 177.8l1.1-.5-1.1-.9zm-2.2.2l1.2-1.1-1.8-.7zm.9-1.6h.6l-.3-.6zm-2.4-4.1l-.7 2.7 2.7-.7zm-2.9 6.6l-.7 2.1 2.7-.1zm4.1-.5l-1-.5-.1 1.3zm2.3 2.3l-.3-.6-.5.6zm-3.4 3l.5-.5-.6-.2zm-.8-5.6l.5.3.1-.7zm.5-1.7l.9.3-.1-1z"/><path d="M141.5 177l.9.3v-1.2zm1.4.9l.1-.6-.6.1z"/><path d="M141.2 176.7l-.7 2.1h2.4zm.9-2.1l-.7 1.8 2.2-.2z"/></g><path xmlns="http://www.w3.org/2000/svg" d="M281.3 214.3c17.2 9.9 35.1 17.5 35.1 17.5s4.9 5.2 12.5 6.1c.6.2 1.4-.5 2.3-1 .5-.3 1.2-.4 1.6-.8.3-.3 0-.6.4-1 .5-.6 1.4-1.1 1.6-1.8.4-2.1.9-1.7 1.2-2.4.4-1-.1-1.9-.2-2.1l-4.4-3.1c-.9-.4 1.8-.6 3.4-.4 1.8 0 3.5-1.2.5-2.1s-5.4-1.9-6.2-2.1-4-1-6.2-.8c-1.5.1-3.4.9-6.4-.8-4.8-3-19.8-16.5-27.1-23.1-3.6-3.4-20.5 10.8-8.1 17.9z" fill="#ea9d7d"/><linearGradient xmlns="http://www.w3.org/2000/svg" id="tp-E" gradientUnits="userSpaceOnUse" x1="316.414" y1="223.929" x2="306.777" y2="235.459"><stop offset=".005" stop-color="#cc7a5e" stop-opacity="0"/><stop offset=".924" stop-color="#aa5f4b"/></linearGradient><path xmlns="http://www.w3.org/2000/svg" d="M296.6 222.4c11.2 5.6 19.8 9.3 19.8 9.3s5 4.6 12.5 6.1c2.7.5-1.2-7.3-4.9-9.9-24.8-17.6-32.2-7.9-27.4-5.5z" fill="url(#tp-E)"/><path xmlns="http://www.w3.org/2000/svg" d="M329.4 238.3c-1.7-.2-4.4-.9-6-1.5-2.4-.9-7-4.6-7.2-4.7-.2-.2-.3-.5-.1-.7s.5-.3.7-.1c0 0 4.7 3.7 7 4.6 2.9 1.1 5.3 1.6 6.2 1.4.7-.2.8-.5.8-.5 0-.2 0-.3.1-.4s.3-.1.4-.1c0 0 .9.1 1.2-.4.4-.6 0-1-.1-1-.2-.2-.2-.5-.1-.7.2-.2.4-.3.7-.1.2.1.8.4 1.3-.5.2-.3.3-.6.3-.8-.1-.5-.6-.9-.6-.9-.2-.1-.3-.4-.1-.7.1-.2.4-.3.6-.2.1 0 .7.2 1.2-.5.4-.7.3-.9-1.1-2l-.4-.3c-1.4-1.2-3.6-2.7-3.7-2.7-.2-.1-.3-.4-.2-.6a.55.55 0 0 1 .5-.3c1.8.2 4.9.3 5.7-.1.1-.1.1-.2.1-.2h0s0-.1-.3-.3c-.1-.1-2-.6-3-1l-.5-.2c-2.7-1-6.9-2.6-9.9-2-2.8.4-4.2.3-6.1-.4-.3-.1-.4-.4-.3-.7s.4-.4.7-.3c1.6.7 2.9.8 5.5.4 3.3-.6 7.6 1 10.4 2.1l.6.2c.9.4 3.8 1.1 4 2.1 0 .5-.3.9-.6 1.1-.9.5-2.9.5-4.5.4.7.5 1.6 1.1 2.3 1.7l.4.3c1.3 1 2.2 1.8 1.3 3.3-.3.6-.8.9-1.2 1 .1.2.2.4.2.6.1.5-.1 1.1-.4 1.6-.5.7-1 1-1.5 1.1.1.4 0 .8-.3 1.3-.4.7-1.2.9-1.7.9-.2.3-.9.97-2.3.8z" fill="#cc7a5e"/><g xmlns="http://www.w3.org/2000/svg" fill="#ad5c44"><path d="M312.3 227.2l-.4-.7.8-.3zm2-3l-.5-.7.9-.3zm-.4 2l-.2.9-.9-.5zm-.6 1.2l-.3 1.2-1.1-.8zm-.9-1.7l.8-1.3.5 1.1zm.3 4.3l-1.5-.7 1.2-.8z"/><path d="M310.7 229l.8-1.6.6 1.3zm1.3-1.5l-.1-.5.5.2zm3.9-3.7v.4l-.4-.3zm-1.9 1l.5-.1-.2.6zm-.9 4.4l-.4-.3.4-.3zm2.9-3.7l.1-.4.3.3zm-1.9 4.2l-.6.7-.4-1zm7.1 4.7l-.5-.6.6-.5zm-4.4-3.6l-.7.6-.3-1zm-.3-1.8l.1.8-1-.2zm2.3 2.1l.9.2-.5.9zm-.5 1.1l-1.2-.7 1.1-.5zm-2.6-.9l-1.7-.7 1.3-.8zm4.4 2.3l-1-.7 1-.3zm-5-4.3l-.4.1.2-.4zm.3-2.1l-.1.2-.3-.1zm-2.5 1.2l.3.1-.3.2zm7.5 3.1l-.1-.6.6.1zm2 2.9v.4l-.4-.4zm-7.8-5.3l-.1-.5.6.1zm2.8 2.1l-.1-.6.6.1zm4.4 1.6l-.5-.3.5-.3zm-3.8-3.7h-.4l.2-.4zm-4-1.8v-.5l.6.3zm2.7.7l-.5-.2.3-.3zm7.3 7.9l-.5-.2.5-.5zm-4.5-6.9l-.2.4-.3-.4zm3 3.9l.2.3-.3.2z"/></g><linearGradient xmlns="http://www.w3.org/2000/svg" id="tp-F" gradientUnits="userSpaceOnUse" x1="311.268" y1="215.621" x2="301.431" y2="230.86"><stop offset=".298" stop-color="#f5b02a"/><stop offset="1" stop-color="#e46c26"/></linearGradient><path xmlns="http://www.w3.org/2000/svg" d="M316 218.8l-5.4 9.5c-.6 1.1-2 1.4-3 .8l-9.2-5.2 9.6-13.4 7.5 5.6c.8.5 1 1.8.5 2.7z" fill="url(#tp-F)"/><linearGradient xmlns="http://www.w3.org/2000/svg" id="tp-G" gradientUnits="userSpaceOnUse" x1="276.457" y1="148.81" x2="222.552" y2="209.939"><stop offset=".298" stop-color="#f5c52a"/><stop offset="1" stop-color="#e46c26"/></linearGradient><path xmlns="http://www.w3.org/2000/svg" d="M229.2 98.8c9.6-3.6 24.3-.5 33.9 30.1s19.1 43.8 32.4 54.9c13.4 11.1 18.3 11.8 19.1 20.2s-8.6 20-12.5 24.3-11.3 12.3-32.1-1.9c-20.8-14.3-36.1-37.9-43.5-54.7-7.4-16.9-12.4-33.2-13.2-45.6-.8-14.8 4.7-23 15.9-27.3z" fill="url(#tp-G)"/><g xmlns="http://www.w3.org/2000/svg" fill="#fcd842"><path d="M228.7 99.2l1 .8.4-1.4zm17.6 11.4l-.7-.1.3.8zm8.4-.2l-.7-.2.2 1zm-11.7 1.7l-.1-.8-.7.5zm-8.4-13.3l-.3.8 1 .1zm12.3 6.5l-.4.8 1 .1zm2.9-.5l-.5.8 1.1.1zm-22.3-5.1l-1.7.5 1.3 1.4z"/><path d="M223.8 101.7l-1.5.8 1.6 1.1zm1.4-.9l-.5 1.1 1.4-.1zm-1.5 3.3l-.3.8h.9zm-2-1l-.4.8h1zm19.8-4.1l-.7-.1.2.8zm-5.1 1l-.2-1.4-1.3.8zm2.8.5l-.2-.8-.7.5zm3.3 2.5l.6.6.3-1zm1.5-2.8v1l1-.4zm-2.6 3.4l-.4.6.9.1zm-12.6.9l-.3.7.9.1zm-2.9.2l-.3.6.8.1zm-3.5-.1l-.3.6.8.1zm-.8.5l-.3.7h.9zm27.9 3.9l-.4.8.9-.1zm2.4-.4l-.4.6.9.1zm-4.8-.6l.5.6.3-.8zm-1.9-3.6l.5.6.4-.8zm3.7.2l-.8-.2.2.8zm-23.3 2.4l.5.2v-.6zm1.8-3.4l-.1.5.5-.1zm5.9 3.8h-.4l.3.5zm-2.9-1.8l.1.6.6-.3zm6.7 3.2l-.5.2.4.3zm12.6 5.3l-.6.1.4.4zm-9.9-1.5l-.3-.4-.3.4zm3.4 3.3l-.1-.4-.4.4zm-6.6 3.1l-.3-.4-.3.5zm5.2-12.8l.3.9.7-.9zm-3.9-8.4l.6 1.7 1.4-1.3zm-10.2 3.9l.5.8.6-.8zm19-.2l-.6.5.7.3z"/><path d="M246.8 109.2l-.6-.4-.2.8zm-4.1-7.2l1.1.7.2-1.5zm1.4 1.2l.8.5.1-1zm.6-1.6l.8.4.1-1zm-6.3 2.5l-.3.8.9-.2zm10.4-.9l-1-.7-.2 1.3zm-26.6.7l-.4.7h1zm6-3.5h-.6l.1.7zm-8.5 4.7l-.7-.1.3.7zm1-.4v-.6l-.6.3zm4.8-1.7l.6.5.1-.8zm-2.3-.1l.5 1 .9-1zm3.1-.1l.6.6.3-.9zm3.1-1.6l.6.5.3-.9zm-.7-1.6l-.8 1.3 1.7.2zm-4.6 2.1l-.3.5h.7zm6.4.8l-.6-.1.1.6zm-5.7 1.6l.6.4.2-.7zm-4.2 2.9l-.4.6h.8zm2.7-3.7h-.6l.2.6zm-1.1 3.6l.6.3.2-.7zm2.9 1.6l-.2.6.7-.1zm-6.3-2.2l-.2.7.6-.1zm4 2.9l-.6-.1.2.6zm-2.9-2.4l.5-.2-.5-.5zm-3.6 2.5l.6-.2-.5-.4zm1.5-1.6l.6-.2-.5-.4zm-1.8 2.7l.2.6.4-.6zm-.6 2.5l.2.6.4-.5zm2-3.7l.7-.2-.5-.7zm3.2-1l.2.6.5-.6zm-1.2 2.1l-.5.5.7.3zm-.8 2.2l-.6.4.7.2zm-4.2 3.1l.3.6.3-.5zm4.7-1l-.4.4.6.3zm-1.1 3.7l-.6.4.6.3zm12.4-19.9l1.3 1.7 1.1-2.2zm2.9.1l-.5.4.8.3zm-2.4 1.2l-.5.5.6.2zm3.9 2.4l-.5-.2-.2.6zm10.8 4.5l-.5-.4-.2.7zm-12.4-5.5l-.5-.4-.2.7zm3.4-3l.4.7.5-.7zm-.8 4.8l.3.7.5-.6zm-1.5-5.1l.7 1.3 1.1-1.3zm5.2 4.7l.4.6.4-.7zm2.3 6.1l.3.7.6-.7zm-2.2 5.9l-.7-.1.2.8zm-3.3 1.6l-.1-.8-.7.4zm-3.2.5l-.3-.5-.4.4zm2-4l.3.6.5-.6zm-4.1 1.6l.4.6.6-.6zm-3.7 3l.3.7.6-.7zm-5-5.1l.4.7.5-.7zM242 99.6l-.6.5.8.3zm-1.3 0l-.5-.4v.8zm2.1 1.7l-.5-.3v.7zm7.1 6.4l.7.7.3-1zm-1 .7l-.5.7.8.1zm3.7.8l.6.6.4-.9zm-3.3 1.8l.3.8.7-.8zm1.4-4.5l.8.5.1-1zm.9 1.5l.7.5.2-1.1zm1.5 3.3l-.5-.4-.2.7z"/><path d="M248.9 107.3l-.5-.4-.1.7zm-13.2-2.5l.3.6.6-.7zm2.1-3.2l-.4.5.6.2zm1.5 5.4l-.5-.3-.2.7zm4.2-7.5l-1.1-.5.3 1.6zm-6.4.8l-.8.1.5.7zm1.4-1.1h-.8l.5.8zm-6.1 4.2l-.3-.7-.6.7zm-1.1-2.2l-.6 1.2h1.6zm-1.1-.4v.5l.5-.1zm3.1 2v.6l.6-.3zm0-3.1l-.6-.2.1.7zm1.9.9l-.3-.7-.6.6zm.1 2.3l-.3-.7-.6.6z"/><path d="M235.7 106.4l-.3-.7-.7.6zm-1.6-5.7l.9 1.1.6-1.4zm6.4.8l.9.2-.2-1zm-.7 3.6l1 .2-.2-1zm-12.4-2.5l.8.3-.1-1zm.9 4l.9.2-.1-1zm3.9-5.3l.5.4.4-.7zm6-1.1l-.3.6.7.1zm-1.6 1.5l-.5-.2.1.7zm2.4 1.1l-.5-.3v.8zm-4.7 1.6l-.4.5.8.2zm-7.1 9.2l-.4.3.4.2zm3.9-.6l-.3.3.5.2zm-1.2-4.7l.2.7.6-.5zm5.2 2.3l.6.4.2-.9zm-7.2-.4l.6.4.2-.8zm4.2.1h-.6l.2.6zm-5.6.2v.6l.7-.3zm13-9.1l-.6-.2.1.8zm5.9 4.5l-.3.7h.9zm-2.6-1.2l.4.6.5-.7zm3.7-.4l.4.7.6-.6zm-1.5-.9l-.5.5.6.3zm-1.2 0l-.6-.2v.6zm2.3 1.2l-.5-.2v.8zm.6-1.3l-.6-.2v.7zm-13.6 1l-.5-.3-.2.7zm8.7 0l-.6 1.5 1.7-.1z"/><path d="M240.5 100.3l-.7 1.4h1.8zm5.3 2.8l.8.4.1-1zm-6.5 3.4l1.3 1.4.7-1.9zm-2.9-6.9l1.2 1.4.9-1.9zm-4.2-.7l1.6.9.2-2.1zm8.4 1.3l1.1 1.3.9-1.8zm.4 2.5l1.2 1.3.9-1.9zm-3.2-1.1l1.3 1.4.8-1.9zm4.7 1.9l.8 1.7 1.3-1.5z"/><path d="M243.4 103.2l.9 1.5 1.1-1.7zm-8.7 0l-.7 1.4h1.7zm8.5 1.7l-.2 1.6 1.6-.5zm-10.2-2.7l-.5 1h1.2zm6.8 1.7l-.9-.1.2 1zm-6.6 6v-.8l-.9.4zm1.3 4.2l1.1.4-.1-1.1zm1.8-6.8l-.3.9 1.1-.2zm6 6.5h-.9l.5.9zm-7.1-6.5l.8-.8-1.3-.4zm-6.1-3.5l.7.5.1-1.1zm7.9-4l-.2.8.9-.1zm-2.9-1.7l-.7 1.3 1.8.1zm-2 1.4v2.5l2.5-1.2zm-10.1 3.3l.5.9 1-.6zm12.8-1.1l1.7 1.8 1.1-2.4zm-4.6-1.2l-.1 1.5 1.6-.5zm-.7-1.8l-.1 1.5 1.6-.6zM239 110l.9.4v-1.2zm2.7-1l.6-.6-1-.2z"/><path d="M238 111.7l-.2.9.9-.2zm-2.2-8.1v1l.9-.5zm-2.2-5h-3.5l1.6 3.6zm4-.8l-3.6.1 1.7 3.5zm4.5 1.1l-1.9-.6-.7 2.8zm-14.8 2.7l1.7.7v-2z"/><path d="M229.3 98.8l-2.5 1 2.1 3zm16.4 2l-2-1.2-.3 2.6zm-8.1 6.2l1.2-1-1.5-.8zm12.8 8.9l-1.5.2 1.1 1.6zm2.7-3.4l-1.6.3 1.1 1.4zm.4 2l-.1 1.9 1.9-.8zm-2-4.7l.1 1.8 1.8-1zm-2.5-3.9l.5 1.8 1.6-1.4z"/><path d="M255.8 113.3l-.4 1.8 2-.4zm-4.4.9l-.5 1.8 2.1-.3zm.1-1.9l.1 1.8 1.8-1zm3.9 4.9l-.4 1.8 2-.4zm-13.9-11l.8 1.6 1.3-1.7zm3.7 3.1l1.5-1.1-1.8-1.1z"/><path d="M244.7 107.6l1.3-1.3-2-.7zm4.6 4.5l-1.3 1 1.7.8zm3.6 5.8l-1.5.4 1 1.4zm-5.6-9.3l-.9.3.8 1zm3.8 6.2l-.5-.7-.6.8zm-8.9-.3l.6-.8-.9-.3zm.3 4.6l.4 1 .8-.8zm3.9-4.6l-.9.6.9.5zm1.9 10l-.7-.7-.3 1zm-8.1-7.1l.7.9.5-1.1zm-3.3-6.8l-.5.6.9.3zm4.8 9.1l-.7-.3v1zm-.5-10.7l-1 1.8h2.3zm2.3 5.2l-.9-.1.2.9zm3.8-2.4l1-.3-.7-1zm-9.6-7.9l.5.8.6-.9z"/><path d="M246.6 104.6l-.7.6 1 .3zm-19.8 3.8l1.2-.1-.8-1zm-2.6-6.4l.2.7.8-.7zm8.8 1.5l-.8.6.9.5zm11 9.3l1 .1-.2-1.1zm-.4-7l.1.8.9-.5zm7.7 4.6l-.9.2.7.8zm-.4-3.2l-1.2 1.1 1.6.7zm-2.5.3l-.9 2.2h2.7zm.5 3.1l.3 2.4 2.4-1.3zm-4.8-6.8l1.4 2 1.3-2.3zm2.9 2l-1.2 1 1.6.8zm1.2-1.6l-1 1.2 1.8.4zm.3 15.3l.4.9.9-.9zm1.3.1l1-.1-.6-.8zm-3.2.4l-.8.5.9.5z"/><path d="M246.3 104.9l.7.5.2-1.1zm2.3 7.8l-.7.7 1.1.2zm-18.1-9.9l.7 1.7 1.4-1.5zm17.5-.3l-1.8-1.4-.6 2.9zm3.5 3.4l-2-2.1-1.1 2.6zm2.7 3.6l-2.1-2.7-1.1 2.8zm2 3.1l-1.6-2.7-1.2 2.8zm2.3 4.4l-1.2-2.5-1.8 2zm-14-4.4l.9-.1-.6-.8zm-1.8 2l1.6.1-.7-1.6z"/><path d="M241.9 112.2l.8-.2-.6-.8zm2.5 0l.8-.3-.6-.7zm11.9 10.2l-1.6.5 1.1 1.3zm1.6-2.3l-1.5.5 1.1 1.3zm2.9 5.5l.3.9.8-.7zm-8.2-6l-.4 1.9 2.1-.5zm1.5-6.8l-.2 1.3 1.4-.3zm3.5 4.1l-1.2.4 1 1.1zm-3.5-.8l-1.2.4 1 1.1zm4.2 4.4l-.4 1.8 2.1-.5zm-.9 1.6l-.4 1.8 2.1-.4zm-2-3.3l-.3 1.8 1.9-.4zm3.7 7.1l-.4 1.9 2-.4zm-.3-2.1l-.5 1.9 2.1-.5zm-3 1.1l-1.4.3 1 1.4zm-5.1-10.5l-1 .2.6 1z"/><path d="M255.5 121.6l-.4-.8-.7.8zm-8.8-1.6l.7-.6-.9-.4zm-3.1 3.2l.2 1 1-.6zm6.6-2.3l-.8.4.7.7zm-1.9 8.7l-.5-.7-.5.8zm2.1-3.2l.2 1 .9-.8zm2.2-.3l.9.2-.4-.9zm-5.9-1.1l-.8.3.7.7zm13.3-4.6l-1.3-2.9-1.7 2zm1.6 4.1l-1.2-3.1-1.6 2.2zm1.4 18.7l-1.4.4 1.1 1.4zm2.3-1.8l-1.5.3 1 1.4zm1.8 3.1l-1.5.3 1.1 1.4zm-1.5-1l-1.5.4 1.1 1.3zm-5-2.7l-.4 1.8 2.1-.5zm3.2-3.4l-.4 1.7 2.1-.4z"/><path d="M263.3 133.6l-.4 1.8 2-.4zm5.3 11.2l-1-2.3-1.9 2zm-4.5.5l-.4 1.9 2.1-.5zm-1-5.6l-.4 1.7 2-.3zm2.5 8.4l-.1 1.9 1.9-.7zm-9.1-23.3l.6 1.8 1.5-1.5zm3.1 9.2l1.8-.3-1.2-1.8zm-.5-3.8l1.8-.2-1-1.8zm2.7 5.8l-1.5.4 1.2 1.4zm2.7 11.9l-1.4.5 1.3 1.2zm3.3-1.2l-1.5.4 1.1 1.3zm-10.3-17.6h-1.1l.5 1.1zm2.6 8l-.4-.9-.7.7zm-9.5-4.6l.8-.5-.8-.6zm6-5.6l-1.9.6 1.7 1.5zm-3.4 7l-.5-.7-.5.9z"/><path d="M249.8 130.5l1 .5.1-1.2zm1.8-6.8l-.2.9.9-.1zm6.4 8.1l-.8.1.4.8zm-11.3-9.9l.9.8.3-1.2zm.2-4.1l-.3.8h1zm6.8 8.3l-.9-.1.2.9zm10.2 8.5l-1.7.4 1.1 1.5z"/><path d="M262 133.5l-1.7 1.7 2.5 1zm-.9 4.4l-.2 2.4 2.5-.9zm-2.3-13.1l-.4 2.4 2.7-.6zm1.7 5.7l-1.5.5 1.1 1.4zm2.4-.9l-1.5.3 1.1 1.4zm-2.7 18.7h.9l-.5-.8z"/><path d="M260.9 129.2l.4 1 .7-.7zm.5 10.2l-.6.6.9.4zm1.7-10l-.9-3.2-2.2 2.2zm1.6 4.9l-1.1-3.3-2.8 2.5zm1.4 3.6l-1.2-3.2-2.8 2.6zm1.5 4.6l-1.3-3.8-2.7 2.8zm2.2 5.4l-1.3-3.1-2.7 2.8zm-14.6-14.2l.8.5.1-1zm3.6 1.5l1.2.7.2-1.8zm-.1 4.4l.8.5.1-1.1zm-5.2-8.3l.6.5.2-1.1zm1.8-.6l.8.3v-.9zm16.3 22.6l-.5 1.4 1.7-.2zm-5 .4l1.6-.2-1-1.7zm2.1 3.1l1.7-.3-1.1-1.6zM258.1 138l1.6-.7-1.4-1.3z"/><path d="M265.4 151.5l1.6-.4-1-1.5zm-4.5.2l.9.3-.1-1.1zm.6-6.4l-.1.9.9-.4zm6.4 5.1l-.8.1.5.7zm-14.4-10.7l.8.3v-1zm-1.7-4l-.1.8.9-.2zm7.6 7.5l-.8.1.5.7zm-4.5 2.3l.8.5.2-1.1zm4.9.3l-.1.8.9-.1zm5.3 6.3h-.8l.3.8zm6.4 2.5l-1.1.4 1 1zm-1.3-2.1l-1.4 1.3 1.9.8zm-.8-.9l-1.2.2.7 1.2zm1.3-1l-1.3.6 1.2 1z"/><path d="M268.1 150.9l.4.6.6-.7zm3.1.1l-1.3-2.9-2.6 2.3zm1.4 3l-1.3-2.4-1.9 2.3zm1.6 3.2l-1.4-2.4-1.9 2.4zm1.9 12.5l-1.4.6 1.4 1.2zm1.9-2.2l-1.5.5 1.3 1.2zm2.5 2.6l-1.5.8 1.5 1zm-1.8-.7l-1.4.7 1.4 1.2z"/><path d="M267.8 157.9v1.8l1.9-1zm7.8 5.9l.1 1.8 1.8-.8zm-1.2-3.6l-.1 1.9 2-.8zm7.5 9.7l-1.4-1.9-1.3 2.5zm-4 1.9l.1 1.8 1.9-1.1zm-2.4-5.6l-.1 1.9 1.9-.9zm4.6 7.8l.4 1.8 1.6-1.1zm-8.4-14.4l-1.4.8 1.5.9z"/><path d="M279 174l-1.2 1 1.5.8zm2.7-2l-1.3.8 1.4 1zm-6.6-10.8l-1.4.6 1.3 1.1z"/><path d="M273.1 160.4l-1.3 2 2.7.5zm-1.4-2.5l.2 1.1 1-.6zm2.6 17.4l.9-.2-.6-.8zm-.6-9.1l-.5.8 1.1.1z"/><path d="M275.9 160.6l-1.7-3.1-2.4 3.1zm2.1 3.3l-1.8-3-2.2 3.2zm2.3 4.1l-1.9-3.4-2.1 3.3zm3.8 4.6l-2.2-2.7-1.8 3.5zm3.2 4.7l.1 1.5 1.5-.8zm1.8 3.1l1.6-.7-1.4-1.2zm5.1 4.5l1.4-.8-1.4-1.1zm-13.4-7.5l1.5-.9-1.5-1.1z"/><path d="M291.1 184.7l1 .1-.3-1zm-20-18.2v.8l.8-.4zm11.8 9.1l-.7.4.6.5zm-13.7-12.7l-.8.2.7.7zm2.8 6.6l-.1.8.9-.2zm16.4 12.2l-.8.1.5.7zm-.7-3.1l-.9.7 1.2.7zm-2-1.5l-.8 1.6 2.1.2zm-1.9 0l-1.2.6 1.1.9zm1.9-2.1l-1.2.9 1.5.7z"/><path d="M283.1 176l.7.5.3-.8zm3.1-.8l-2.1-2.4-1.8 3zm2.4 2.5l-2-2-1.1 2.9zm4.4 4.3l-1.9-2-1 3z"/></g><g xmlns="http://www.w3.org/2000/svg" fill="#e06c1e"><path d="M278.2 229.4l.5-1h-1.3zm-3-2.1l-.5-.3-.1.7zm3.1 3.8l-.3-1.3-1.2.8zm.2-3.4l-.9-1-.6 1.3zm2.2 1.1l-.8-1-.6 1.3zm-3.6-1.5l-.8-1-.7 1.2zm3.7-7.9l.2-.8-.9.2zm-6.6 9.4l2 1.4.4-2.7zm-7.7-9.3l.8-.8-1.1-.4zm-.7 1.8l.7-.8-1.1-.4zm-2.1-1.2l.8-.8-1.2-.4zm1.2.1l.7-.8-1.1-.4zm4-.2l-.4-1.2-1 1zm-.6 3.1l-.6-1.2-.9 1.2zm1.9 2.1l-.5-1.2-1 1.1zm-7.3-4.4l1.4 1 .3-1.9zm2.2-2.2l-.5-1.3-1 1.1zm2.7 2.9l-.6-1.3-1 1.1zm-4.6-3.8l-.5-1.2-1 1zM276 225l-.7-1-.8 1.3zm-3.7-2.2l-.8 1 1.4.4zm1.3 1.4l-.8 1 1.5.4zm-3.8-1.1l.7-.8-1.3-.3zm-6-5.5l.7-.8-1.2-.3z"/><path d="M262.4 219.1l.7-.7-1.1-.4zm11.9 5.6l.5-.6-.7-.3zm-4.2-2.5l.5.3.1-.7zm5.5-2.8l-.1.6.6-.1zm.6 5.3l.5-1.3-1.6.1zm-2.1-5.2h.7l-.2-.6zm-3.1-.5h.8l-.4-.8zm-5.5-5.1l.6.3v-.8zm.5-4.9l-.1.8.7-.3zm4.4 6.2l-.1.6.7-.2zm.4-2.1l-.5.1.3.6zm-1.7-1.2l.2.6.5-.5zm2.7-.8l.2.6.6-.5zm-2.7 13.6l.8-.8-1.2-.4z"/><path d="M270.6 224.6l.4-1.6-1.9.4zm-1-2.6l-.7-1.5-1.3 1.5zm8.7 7.2l-1.1-1.3-.8 1.7zm-6.5-3.6l.5-1-1.2-.2zm-.2 1.3l.5-.9-1.2-.2zm-5-10.9l-.6.2.6.4z"/><path d="M272.7 226.1l-.6-.3v.7zm-3.7-4.9l.1-.6-.6.1zm6.3 6.5l-.7-.9-.8 1.2z"/><path d="M271.8 227.4l2.1 1.3.4-2.7zm-2.7-1.7l2 1.2.4-2.6zm-2.5-1.9l2 1.4.6-2.6zm-2.3-1.9l2 1.7.7-2.6zm-3.2-2.6l1.8 1.5.8-2.6zm12.5 1.3l-.6.2.4.5zm-1.4 1.2l-1 .3.7.9zm-2.3-2.2l-.7.1.5.7zm5.5 1.2l-.6.2.5.5zm-13.8-7.4l.9-.3-.7-.6zm-6.9-2.9h.7l-.2-.8zm-1-3.1l.1.6.7-.3zm-3.3-1.3l.1.6.5-.4zm-3-1.4l.2.6.6-.3zm13.5 6l-.6.2.5.5zm-2.1 1.3l-.6.2.5.5z"/><path d="M255.8 212l1.4-.2-1-1.2zm3-4.6l.3.6.4-.5zm-9.6-2.1l.4.6.3-.6zm-2.5-1.1l.3.5.4-.6zm11.7 5l-.4-.3-.2.6zm-2 .5l-.5-.4v.7zm8.1 3.2l-.6-.3-.1.7zm9.2 8.1l-.6.2.4.5zm-19.4-8.4l.5-.5-.8-.4zm3.1 1.1l-.3-1-.9.7zm.9 2.1l-.3-.9-.9.7zm-4.9-3.8l.3-.9-1 .1zm7.1 1.6l-.9.8 1.2.5zm1.5 1.7l-.8.8 1.2.5zm2.8-1.3l-.7.1.4.7zm1.8 4.1l-.3-.5-.4.5zm-5.6-.9l.4-.4-.5-.3zm-2.9-2.3l.6-.6-.9-.2z"/><path d="M259.2 215.7l.2-1.4-1.5.3zm.4.2l.7-.7-.9-.3zm0 1.7l.7-.8-1.1-.2zm1.4-1l-.6-.4-.1.7z"/><path d="M259.3 217.7l1.8 1.4.8-2.2zm-1.8-1.5l1.5 1.2.7-2zm-1.4-1.8l1.2 1.3.7-1.9zm-4.4-4.4l1.1 1.1.5-1.6zm2.7 3l1.2 1.2.7-1.7zm-4.5-5.3l.6.1-.2-.7zm2.5.7l1.1-.3-.9-1zm-4.2-2.2l1.2-.3-.9-.9zm4.4 3l-.3-.8-.7.6zm-2.3-.7l.8 1 .6-1.4zm-1.8-1.8l.7.6.4-1zm37.1 23.9l.3-1-1.2.1zm-.1 2.1l.4-1.1-1.2.2zm-2.3-.2l.4-1h-1.2zm1.2-.5l.3-1-1.2.1zm3.4-2.2l-1-.7-.4 1.4zm1 3.2l-1-.9-.3 1.5zm2.9.4l-1-.7-.3 1.4zm-8.6-.2l1.6.6-.1-1.9zm.7-2.8l-.8-.9-.6 1.4zm3.7 1.3l-1-.7-.3 1.4zm-5.8-1.3l-1-.9-.4 1.3zm11.9-.8l.1 1.2 1.3-.5zm-3.3 2.2l.1-1.2-1.1.5zm-8-1.8l.3-1-1.2.1zm-.9 2l.5-1-1.2.1zm11-6l.6-.2-.5-.5zm-3.1 1.8l.6-.4-.7-.5zm-6.8-1.7l.7-.1-.4-.8zm-1.3-4.8l.2.5.5-.4zm5.6 3.5l.3.6.5-.4zm.1-1.8l-.6.4.6.4z"/><path d="M284.8 222.6l.5.5.3-.7zm2.4-1.9l.4.5.3-.7zm-5.4 2.5v-.6l-.7.2zm0 1.8l.7-.1-.5-.6zm-2.4 1.6l.6-.2-.5-.6zm1.3-.7l-.2-.6-.5.5zm2.3 2.1l-.5-1.1-.8 1zm4.4-.2l-.8-1-.6 1.2zm-6.8-.5l-.3-.5-.4.5zm10 6.2l.2-1.1-1.2.4z"/><path d="M291.9 232.5l-.8-1.6-1.2 1.4zm-2.3-1.6l-1.5-.8-.2 1.8zm4.1 1.1l-.2-1.1-1 .6zm1.4 1.3l-.1-1.1-1 .6z"/><path d="M284.2 227.5l-.3.5.6.2zm10.5 4.3l-.6.2.5.6zm-6.2-.9l-.2-.6-.6.4zm3.4 3.4l2.4-.4-1.4-2.2zm-3.7 0l2.4.1-1.2-2.5zm-3.3-.5l2.6.5-.8-2.6zm-4.1-1.5l2.3 1-.1-2.8zm11.6-4.9l-.3.4.6.2z"/><path d="M291.9 229.1l-.8.7 1.2.5zm-3.3-.3l-.5.5.7.3zm4.1-1.2l-.4.5.7.1zm-13 1.2l-.4 1h1.3z"/><path d="M281.8 226.4l-.5.4.6.4zm3.3 3.1l-.4-.4-.2.6zm-5.5 1.2l.3-.4-.6-.1zm.9-.3l.4-.9h-.9zm.5 1.6l.3-.9h-1zm.9-1.4l-.5-.1.1.6z"/><path d="M278.6 231.3l1.8.7v-2.1zm18.7-10.5l-.5-.6-.3.8zm12.8-6.5l-.5-.6-.3.8zm-3.6 0l-.6-.5-.2.9zm-8.2 10.9l-.3-.6-.6.6zm-4 2.9l.5-.4-.6-.3zm-.3-6.2l.5.5.1-.7zm15.3-7.1l-.3-.7-.6.6zm-3.9 2.9l.4-.4-.6-.4zm-3.1-1.3l.6-.4-.7-.4zm6.8-4.5l.5-.5-.6-.3zm1-2.6l.5-.4-.7-.4zm.9 1.4l.6-.4-.7-.3zm1.6-1.3l.4-.4-.6-.4zm-7.6 2.1l.5.4.2-.7zm5.2 1.2l.5.4.1-.7zm-16.4 10.9l.3-.6-.7-.1zm.6.9l-.1.6.6-.3z"/><path d="M294.7 224.5l-.1.6.7-.2zm3.5 7.4l-1.2-.7.1 1.3zm4.9-10.2l-.8-.7-.4 1.1zm1.7 1l-.6-.8-.5 1.2zm-1.2 1.9l-.7-.7-.4 1.1zm.2-1.2l-.8-.8-.5 1.2zm-.1-4l-1.2.5.9 1zm2.9.4l-1.1.6 1 .9zm2.1-2l-1.1.6 1 .9zm-4.2 7.8l1.1-1.4-1.8-.4zm-2.4-2.4l-1.2.4.9 1zm3.1-2.6l-1.2.6 1 .9zm-3.7 4.6l-1.2.5 1.1.9zm-.1-.6l-.8-.8-.4 1.1z"/><path d="M302.6 225.9l-.7-.9-.5 1.2zm-.9-6.3l-1.2.2.6 1.1zm6.2-3.4l-1.3.1.7 1.2zm4.1-1.9l-1.1.3.4 1.1zm1-2.2l-.7.3.3.8zm-7.3 6.5l-1.6.7 1.4 1.2z"/><path d="M299.9 221.7l.2.6.5-.5zm4.9-2.3l-.6-.1.2.6zm2.8 2.3l1.3-2-2.6-.5zm-1.9 2.6l1.6-2.3-2.7-.3zm4.1-6.1l1-1.7-1.7-.1zm-13.7 9.5l-1.3.5 1.1 1zm.4 1.6l-1.3.3.8 1.1zm.2-3.3l-1.2.1.5 1.2z"/><path d="M298.8 226.6l-1.6.6 1.4 1.3zm-1.5 1.1l-.6-.2.1.7zm-1.9 5.8l2.7-1.5-2.2-1.4zm7.5-6.1l1.6-1.7-2.7-.8zm-3.7-1.1l.8.8.5-1.2zm-1.5-3.1v.6l.7-.3z"/><path d="M301.8 221.6l-.6.3.5.4zm-1.3 5.5l-.3-.4-.3.5zm-.8 1.6l-.6-.6-.3.9zm1.8.1l-.8-.7-.3 1.1z"/><path d="M301.3 229.3l-1.2-.5v1.6zm-.9-1.9l-.3.5.6.1z"/><path d="M301.4 229.2l1.5-1.7-2.3-.9zm-2.8 2.4l1.5-1.2-1.9-1z"/></g></g></svg>