<svg width="720" height="640" viewBox="0 0 720 640" fill="black" xmlns="http://www.w3.org/2000/svg">
  <g xmlns="http://www.w3.org/2000/svg" fill="none" fill-rule="evenodd">
    <rect width="720" height="640"/>
  </g>
<g transform="translate(120, 80)"><path xmlns="http://www.w3.org/2000/svg" d="M226.2 79l-7.5 24.5-2.2 5.7s3.2 4.1 10.8 5.7c5.2 1.1 8.7 1.2 11 1 1.9-.2 4.2-.6 3-4.1-1.7-5.2-1.1-8.5-1.1-8.5l2.7-14.7-16.7-9.6z" fill="#ea9d7d"/><linearGradient xmlns="http://www.w3.org/2000/svg" id="hd-A" gradientUnits="userSpaceOnUse" x1="229.27" y1="95.88" x2="236.14" y2="87.03"><stop offset="0" stop-color="#bc5a32" stop-opacity="0"/><stop offset=".99" stop-color="#bc5a32"/></linearGradient><path xmlns="http://www.w3.org/2000/svg" d="M225 92.2a26.6 26.6 0 0 0 9.4 8.2c3.5 1.7 6 2.1 6 2.1l2.2-12.2L226.1 79l-.9 1.7-.7 2.8s-1.8 5.2.5 8.7z" fill="url(#hd-A)"/><path xmlns="http://www.w3.org/2000/svg" d="M250.5 55s2.9 4.7 3.4 6.9a20.1 20.1 0 0 1 .6 4.9c0 4.2-.3 10.1-.8 13.4-1 5.7-3.7 9.1-6.9 10.1s-9-1.1-12.9-3.1c-3.3-1.7-5.2-3.5-5.7-5.6-.5-2.2-1.5-5-1.5-5l.2-6.5 7.7-16.4 15.9 1.3z" fill="#ea9d7d"/><linearGradient xmlns="http://www.w3.org/2000/svg" id="hd-B" gradientUnits="userSpaceOnUse" x1="241.43" y1="65.86" x2="238.44" y2="58.92"><stop offset="0" stop-color="#bc5a32" stop-opacity="0"/><stop offset=".99" stop-color="#bc5a32"/></linearGradient><path xmlns="http://www.w3.org/2000/svg" d="M230.6 73.1s5.8-6.5 9.5-7.9c7.1-2.9 14-2.6 14-2.6l-1.1-3.5-17.7-.9-7 10.8 2.3 4.1z" fill="url(#hd-B)"/><ellipse xmlns="http://www.w3.org/2000/svg" cx="224.5" cy="75.5" rx="5.3" ry="5.7" fill="#ea9d7d"/><path xmlns="http://www.w3.org/2000/svg" d="M217.1 109.4h-.1c-.2-.1-.3-.3-.3-.5l4.7-14.4c.9-3 3.6-13.1 3.6-13.1.1-.2.3-.3.5-.3.2.1.3.3.3.5l-3.6 13.1c-.8 2.7-4.7 14.3-4.7 14.3-.1.3-.2.4-.4.4z" fill="#cf7653"/><path xmlns="http://www.w3.org/2000/svg" d="M224.5 81.6c-3.2 0-5.8-2.8-5.8-6.1s2.6-6.1 5.8-6.1 5.8 2.8 5.8 6.1-2.6 6.1-5.8 6.1zm0-11.4c-2.7 0-4.9 2.4-4.9 5.3s2.2 5.3 4.9 5.3 4.9-2.4 4.9-5.3-2.2-5.3-4.9-5.3z" fill="#b76349"/><linearGradient xmlns="http://www.w3.org/2000/svg" id="hd-C" gradientUnits="userSpaceOnUse" x1="224.59" y1="78.83" x2="224.93" y2="73.51"><stop offset="0" stop-color="#cc7a5e" stop-opacity="0"/><stop offset=".92" stop-color="#aa5f4b"/></linearGradient><ellipse xmlns="http://www.w3.org/2000/svg" cx="224.8" cy="75.5" rx="2.4" ry="2.5" fill="url(#hd-C)"/><path xmlns="http://www.w3.org/2000/svg" d="M230.3 71.9l-1.7 1.5-.7 5.6.3 1.6s2.4-1.3 2.6-3.9c.2-2.5-.5-4.8-.5-4.8z" fill="#ea9d7d"/><path xmlns="http://www.w3.org/2000/svg" d="M243.5 90.7c-1.1 0-2-.2-4-.7a26.5 26.5 0 0 1-10-5.5c-2.2-2.2-2-4.3-2-4.4 0-.2 0-.5.2-.5s.3.2.4.4c.1.4.1 2.1 1.9 3.9a25.8 25.8 0 0 0 9.6 5.3c3.1.7 3.7.9 6 .7 2.2-.2 3.5-1.1 3.5-1.1.3-.2.6-.3.4 0-.2.2-1.8 1.5-3.8 1.8-1 .1-1.6.1-2.2.1z" fill="#b76349"/><g xmlns="http://www.w3.org/2000/svg" fill="#a84d3b"><path d="M229.2 85.6l.2.5.4-.4z"/><path d="M229.5 85l-.3.9 1-.1zm4.9 4.1l-.1 1.1 1.1-.4zm-2.6-1.8l-.2 1 1.1-.3zm-1.4-1.3l-.3 1.1 1.2-.3zm-1.6-2.1l-.5.9 1.2.1zm6.9 7.7l-.4-.6-.4.7zm-1.3-1.2l-.6-.8-.3.8zm4 2.4l-.7-.8-.3.8zm2.8 1.2l-.6-.8-.3.8zm-5-3.8l-.6-.4-.1.8zm1.2 3.1l-.5-.6-.4.7zm-3.6-4.3l-.7-.3-.1.8zm5.1 2.5l-.9-.5v1.2zm1.9.4l-.8-.1.2.9zm1.2 1.7l-.8-.1.3.8zm-2.8-.4l-.3-.7-.5.7zm2.3 2.5l.1-.8-.8.2zm-.4 1.3l.2-.8-.8.2zm-1.6-.2l-.4.3.5.3zm.6-3.8l-.5.3.5.3zm2.2-.6l-.5-.1.1.6zm-2.2 5.7l-.4.3.5.3zM230.9 87l-.5.4.6.3zm-3.1-4.8l-.4.4.5.3zm.2-1.2l-.4.3.5.3zm9.3 11.3l-.3-.3-.2.5zm-2.8-1l.2-.4h-.5zm1.4 1l.2-.4h-.5zm2 2.1l.1.5.5-.4zm3-1.8l-.4.3.4.2z"/><path d="M241.1 92.1l-.6.4.6.4zm-1.3.3l-.4.3.5.3zm0 7.2l-.4.2.4.3zm-1-1.2l.1.4.4-.3zm.1-2.4l.1.4.4-.3zm1.8 1l-.3-.2-.2.4zm-13.6-5.5l.2.2.2-.3zm1.9-1.2l-.2.2.4.1zm1.9 3.7l-.3-.1v.3zm-1-1.8l-.1.4h.4zm6.7 3.7l-.1.5.6-.2zm-.6-4.6v.5l.5-.2zm.1-1v.5l.5-.2zm-7.5-3.6l-.1.6.6-.2zm11.5 8.1l-.5.1.3.4zm-1.8 4.1l-.1-.4-.4.3zm.7-5.2l.2.4.4-.4zm1.5.7l.3.5.3-.5zm1.2-1.8l-.4.3.5.2zm-.8 3.1l-.4-.3-.1.6zm-10.8-9.6l-.6.4.7.4zm-2 .7l-.2-.3-.2.4zm-1.9-1.1l-.3-.3-.1.4zm-.8 3l.2-.3h-.4zm4-2l.2.4.4-.3zm-1.1-1l.2.6.6-.5zm0-2.9l-.4.6.8.1zM231 88l-.4.2.4.3zm.7-.3l-.3.1.4.3zm.8.4l-.3.2.3.3zm-1.6 2.6l-.3-.3-.1.4zm-5.8-3.8l.2.4.3-.4zm2.4-2.2l-.3.2.4.2zm-.4 3.8l-.2-.2-.1.4zm.7-4.2l.1.4.4-.4zm.9.7l.2.4.3-.4zm-2.3-1.2l-.3.2.4.2zm1.7-2l-.3.3.4.1zm-1.3 1l-.3-.2-.1.4zm5 5.8v.4l.4-.1zm1.8 1h-.4l.3.4zm-.8-.9l-.3.1.2.3zm6.5 3.5h-.3l.2.3zm-1.4-.8l-.3.1.2.3zm-4.7.5l-.1-.4-.3.3zm5.3 5.2l-.2-.3-.2.3zm-5.8-6.3l-.1-.4-.3.3zm2.7-.4l-.1.4.5-.2zm1.5.5v.4l.5-.2zm1.8 1l-.4.1.3.3zm-1.5 1.9l-.2-.3-.2.3zm-4.4-.4v.4l.5-.1zm2.1-.9l-.4.1.3.3zm3.3 1l-.1-.3-.3.3z"/></g><g xmlns="http://www.w3.org/2000/svg" fill="#f4b9a6"><path d="M243.8 75.6l.7-.5-.9-.4zm-8.7-.4l-.3-.5-.5.6zm11.6 1l.9.6.1-1.2zm-2.7-5.1l1.3.8.3-1.6z"/><path d="M244 70.3l1.3-.8-1.3-.9zm3 9l1.3-.8-1.3-1zm1.3-1.6l.5-1.5h-1.6zm-4.8-3l-.8.2.5.8zm.6-1.1l-.9.2.6.7zm-.2 4.3l.3.8.7-.6zm.4 1.5l.7.5.2-.9zm4.1 2.5l-.8.2.6.7zm-3.3-17.1l-.3.6.9-.1zm.8 4.9l-.7-.1.3.7zm.7-2.5l-.7-.1.3.8zm-5.8 1.5l-.1.8.9-.3zm1.9-1.4l-.7.4.8.5zm-3.2 1.1l-.5.1.3.4zm7.5 13.5l-.7.2.5.6zm-.8-.4l-.7.2.5.6z"/><path d="M240.2 77.1l-.7.1.4.6zm1.7 1.3l-.7.1.4.6zm-2.3-3.6l-.1.7.8-.3zm3.6-.8l-.2-.6-.6.6zm7.4 5.8l.3-.4-.7-.1zm-2.9-2l.4.1v-.5zm4.5-4.6v.5l.5-.2zm-2.1 2.3h.5l-.1-.5z"/><path d="M252.4 74l.1-.4h-.5zm-14.6-3.9l-.3.5h.6zm6.5-3.2l.9-.2-.7-.7zm.9 10.3l1.8-.5-1.4-1.5zm-1.4-6.8l-.7-.1.2.7zm-5.2 4.9v-.7l-.8.4zm4-6.9l.1.9.8-.5zm-1 1.6v.8l.9-.5zm.9-.6v.8l.9-.5zm7.4-1l.7.3V68zm-6 4.4l-.4-.6-.4.7zm3.4 8.3l-.6.2.5.5zm-3.1-4.3l-.2.5.7-.1zm.7 3.4l-.3-.5-.3.6zm1.1.5l.4-.4-.6-.2zm.2-1.2l.5-.5-.7-.3z"/><path d="M246.1 78.7l.6-.4-.7-.4zm-.4-3.1l.5-.4-.7-.3zm-1.4.3l.5.4.2-.6zm6 4.7l-.6.2.5.5zm-3.2-5.6l-.2.5h.7zm1.6 6.1l-.4-.4-.3.5zm-3.5 2.1l.1.6.7-.4zm-1.7-3.3l-.6.3.5.4zm-6.3-6.7l-.4-.4-.3.6zm6.7 8.2l.4.2.1-.6zm-1.8-1.1l.5.2v-.6zm-3.1.8l-.3.5.7-.1zm2.1 2.2l-.6-.1.2.6zm-2 .7h-.6l.2.6zm5.6-9.4l1.2-.3-1-1zm-.9-2.7l.3.4.4-.5zm.1 1l.6.9.8-1.1zm3.4-2l-.8.7 1.2.4zm-7.4 2v-.6l-.6.3zm6.3-.5l-.4.4.6.3zm-2.3-3.4l.7-.2-.5-.6zm4.5 1.5l.7-.2-.6-.6zm-4.8.1l.7-.2-.6-.6zm4.9-3.4l.7-.2-.5-.5zm-2.4-1.6l-.4.4.6.3zm-5.5 2.1v-.5l-.6.3zm.8 8.9l-.1.8.9-.3zm-1.1-.4l-.7.1.4.7zm1.6 3.1l-.1.7.7-.3zm.9-3l.1.8.8-.4zm-.6 1.5v.9l.9-.5zm-1-2.2V75l-.6.3z"/><path d="M250.1 70.8l.7-.2-.5-.5zm-2.6-2.3l.3.4.4-.5zm5.3 8l.5-.2-.5-.5zM242 67.6v-.5l-.7.3zm4.2 1.3l-.1.7.8-.3zm-.9-1.3l-.1.6.8-.2zm.5 6.6l1.2.8.4-1.5zm2.9.1l1.4-.5-1-1.2zm-3.2.6l.5.1-.1-.4zm-.6-2.8l-.2.5h.7zm1.2-1.5l-.7.1.5.6zm2.2.3l-.7.1.4.6z"/><path d="M245.7 71.9l1.4-.8-1.6-1zm2.1-5.7l.4-.7-1-.1zm-1.1 11.4l.4-.7h-1zm-1.2-3.7l1.2-.8-1.4-.9zm.8-6l.4.4.2-.6zm1.5 1.2l-.7 1 1.5.1zm1-1.5l-.3.5h.7zm.7 4.4l.4.3.3-.5zm-1.9-5l-.3.5h.7zm-8.9 5.9l-.6.3.5.5zm1.1-3l-.4.6h.8zm1.4 0l-.1-.5-.5.4zm-.8 3.2l-.1-.5-.5.4z"/></g><g xmlns="http://www.w3.org/2000/svg" fill="#a84d3b"><path d="M243.3 61.3l-.1.4h.5zm.3 1.2l-.4-.3-.1.5zm3.8-.7l-.3-.3-.2.5zm3.4-.9l.3.3.1-.5zm1.8-.5l.3.3.1-.5zm-.6.6l.4-.1-.4-.4zm-7.6.9l-.3-.4-.1.5zm4.8-.4l-.3-.3-.2.5zm-6.5.6l-.3-.4-.1.5zm-7.2-2.2l.1 1 1-.5zm3.7.7l-.2.5h.6zm-1.6.3v.6l.6-.2zm-.2 2l-.1.5.6-.2zm-1.4-.2v.5l.6-.2zm4.6-1.5l-.4-.3-.2.5zm.3-.3l.1.7.7-.5z"/><path d="M246.3 61.3l.2.5.4-.5zm-3.8-.1l.3.4.4-.5zm-3.6.1l.2.8.7-.6zm8.7-.1l.4.5.3-.6zm-3 .1l.2.6.7-.5zm-4.5.5l.1.4.4-.3zm-3.5 1.6l-.1.4.5-.1zm-.5.2l-.1.4h.5zm3.5-2.5l.2.2.1-.2zm2.2.3l.2.2.2-.3zm3.8.2l.1.3.2-.3zm-10 2.2l-.3.1.2.2zm1.9-2.3v.8l.8-.5zm-1.6 1.9h-.4l.2.4z"/><path d="M235.6 63.4l-.1-.5-.5.4zm2.6-1.5l.4.2v-.5zm.3-.9h.4l-.2-.5zm-1.4.4v.4l.4-.1zm.9 1.3l.4.1-.1-.5zm-2.4 2.1l-.1.4.4-.1zm1.4-2.3l-.4.1.3.3zm-2.1 1.2l-.1.7.7-.3zm.1 1.2l.4-.2-.4-.3zm-.8 1.3l.4-.2-.4-.2zm.2-.8l.5-.2-.5-.4zm-.3 1.4l.2.3.2-.3zm.7-.8l.5-.2-.4-.3zm-1.5 1.9l.5-.1-.4-.4zm3.6-7.5v.8l.8-.3zm-1.2 1.5l.3.3.2-.5z"/><path d="M238 60.5l-.1.8.9-.2zm-1.8 1l.3.3.2-.5zm4.5 1l.5.2v-.5zm9.1-1.1l.4.2v-.5zm-14.3 1.5l.7-.3-.7-.6zm.9-2.5l-.4.7h.8zm2 3.1l-.3-.1v.4zm-2.4-3.3l-.4.2.4.3zm.6-.3l-.1.4.4-.1zm-.4 1.5l-.7-.3v.8zm1.3-.2h-.4l.2.4zm-1.5.7l-.1.3h.4zm1.9-1.2l-.5-.4-.2.7z"/></g><g xmlns="http://www.w3.org/2000/svg" fill="#964c38"><path d="M227 76v-.3l-.4.1zm-1.7-2.9l-.4.1.3.4z"/><path d="M225.2 73.2l-.5.6.9.2zm-.9-.1l-.6.2.5.5zm2.6 1.5l-.3.2.4.2zm-.9-.5l-.3.3.4.1z"/><path d="M226.6 74.8l-.2.3.4.1zm-2.2-.8l-.2.2.4.2zm-.4-.3l-.5.5.7.2zm1.6 1.8l.2.2.1-.3zm1.1-1.2l-.1.2h.3zm.2.9l-.1.2h.3zm-3.6-1.6l-.4.4.6.1zm.9 1.5h-.3l.2.2zm.5.8l-.1-.2-.2.2zm.8-2.4l.2-.2-.3-.2zm-1.2 0l-.2.3.4.1zm-.5.3l-.3-.2v.4z"/><path d="M223.8 73.8l.1-.3h-.4zm2.4.4l.2.3.2-.3zm-.4-.9l-.1.7.7-.2z"/><path d="M225.5 73.8l.3.2.1-.4zm-2.4.9l-.2.3h.3zm1.8-1.6l-.3-.1.1.4zm-.6 1.8l.2.3.2-.4zm.8 1.2l-.1.3.3.1zM223 74l-.2.3.4.1z"/><path d="M224 76.2l-.3-.1v.3zm-1.2-1.6l.3-.1-.2-.3z"/><path d="M222.5 75.7h.2l-.1-.3zm.2-1l.2-.1-.1-.2zm.7-.3v.3l.3-.2zm-1 .8l.4.1-.2-.4zm.6.1v.3l.3-.2zm2-1.2l-.3.2.3.2zm1.4 1.5l.1.4.3-.3zm-2-2.2l.1.4.3-.3zm1 1.1l-.2-.2-.1.3z"/></g><path xmlns="http://www.w3.org/2000/svg" d="M238.3 68.5c-.1 0-.3 0-.4-.1-.3-.2-.4-.7-.2-1 .1-.1 1.7-2.5 5.3-2.2.4 0 .7.4.7.8s-.4.7-.8.7c-2.7-.2-3.9 1.5-3.9 1.6-.3.1-.5.2-.7.2zm14.8-2.1c-.1 0-.3 0-.4-.1-.8-.6-2-.2-2.1-.2-.4.1-.8-.1-.9-.5s.1-.8.5-.9c.1 0 1.9-.6 3.3.4.3.2.4.7.2 1-.1.2-.4.3-.6.3z" fill="#b4603f"/><g xmlns="http://www.w3.org/2000/svg" fill="#4f2b23"><circle cx="242" cy="71.9" r="1.4"/><circle cx="252.3" cy="71.1" r="1.4"/></g><path xmlns="http://www.w3.org/2000/svg" d="M247.7 80.4c-.3 0-.6-.2-.7-.6s.2-.8.6-.8c0 0 1.1-.2 1.2-1.1s-.8-3.4-1.3-4.7c-.2-.4 0-.8.4-.9.4-.2.8 0 .9.4.2.4 1.5 3.8 1.4 5.4-.1 1.5-1.5 2.3-2.3 2.4-.1-.1-.2-.1-.2-.1z" fill="#b4603f"/><path xmlns="http://www.w3.org/2000/svg" d="M235.7 60s-.2 3.6-2.2 6.8-2.3 3.2-2.1 4.3 3.2 7.1 10.1 9.6c5.2 1.9 9.7 1 11.9 0 0 0 .2-1 .3-1.6 0 0 .9.4.9 1.7.1 1.6-.1 4.3-.3 6a6.7 6.7 0 0 1-6.6 6.3c-3.2.3-8.8-1.1-14-4.1-2.6-1.5-5.3-5.1-5.6-6.5-.6-3.1.3-9.7.3-9.7s-.4-3.5-4.8-3.2c-3.2.2-4.4 3.4-4.4 3.4s-2.2-8.7-2.9-10.7c-1.1-3.4.7-5.4 2.3-6.7 1.6-1.2 3.2-1.1 3.2-1.1s-.7-5 4.8-7.6c2.7-1.3 4.9-1 7.1-1.1s4.3-.4 6.1-.4c4.4.2 5.7 2.7 5.7 2.7s8.6-3.7 12.1.9c3.5 4.5-.4 9.9-5.3 11.3-3.4 1.1-8.7 1.5-16.6-.3z" fill="#b23031"/><path xmlns="http://www.w3.org/2000/svg" d="M243.9 85.5h0a6.1 6.1 0 0 1-5.8-4.4c-.1-.4.1-.8.5-.9s.8.1.9.5a4.6 4.6 0 0 0 4.4 3.3c.4 0 .7.4.7.7 0 .5-.3.8-.7.8z" fill="#ea9d7d"/><g xmlns="http://www.w3.org/2000/svg" fill="#d3505d"><path d="M249.5 47.1l-.1.6.7.3.6-1.1zm4.8 5l-.4-.2v.5zm4.3 2.1l-.4-.3v.6zm-5-1v-.5l-.5.2zm-1-5.8l-.4.8.9.1zm3.6 5l-.4.5.7.2zm-7.1-5.2l-.9.2.7.9zm-1.4.3l-.8.5.8.6z"/><path d="M241.6 45.8l.2 1.2 1.1-.8-.7-.3zm-11.4.2l.7 1 .7-1.1zm13.9.8l-.2.9.9-.3zm13.1 1.8l-.8-.2.1 1zm-4.6 1v-1.7l-1.4.7zm1.8-.6l-1-1.3-.7 1.4zm1.1.7l.1-.9-.9.4zm.7 1l.6.9.6-1zm1-2l-.5 1.3h1.5zm-1.3 2.7l-.4.4.5.2zm-7.4-.3l-.3.5.6.1zm3.3 1.3l-.3.4.5.1zm-11.7-5.9l-.7 1.1 1.4.3zm-3.9 0v.6l.7-.2zm-8.8.8l-.1.8.8-.2zm1.1.4v.8l.8-.2zm-1.7 1.1l1.4.6.1-1.5zm3.4-1l-1 .6.9.7z"/><path d="M225.7 48.6l1.1.2-.2-1.3zm16.9-.7l-.3.4.6.1zm-4.6-1.2l-.3.4.5.1zm1.2.6l.1-.6-.7.1zm17.2 3.7l-.3.4.4.2zm2.1 1.9l-.3.4.5.2zm-1.5 1.3l.2.4.3-.5zm1-1.7l.2.5.3-.5zm0 1l-.4-.3v.6zm-8.6.2l.3.2v-.4zm-1.7-3.3l-.1.3h.3zm3.3 3h-.3l.1.3zm-1.6-1.4l-.1.4.4-.1zm3.8 2.7l-.3.1.2.3zm1.2 2.7l-.1-.3-.2.3zm1.2-4.3l.1.6.6-.4zm.1-5.6l-.1 1.1 1.1-.5zm-7.7 1.3l.2.6.4-.5zm10.6 2l-.6.6.8.4zm-2.6 3.7l-.3-.4-.3.5z"/><path d="M257.5 50.3l.4.4.2-.6zm0 1.3l.4.5.3-.7zm-.1-.6l.4.4.2-.6zm-3.1.8l-.1.5.5-.1zm1.5.6l-.5-.2.1.6zM245 47.6l-.2.5.5.1zm3.3.4l-.3-.1v.5zm-5.4-.8l-.7-.2.1.9zm-3.4.5l-.7-.2.1.9zm2-.9l-.7-.2.1.9zm-2.5-.3l-.7-.2.1.9zm-1.2-.1l.2-.8-1 .3zm-2.9-.3l-.8-.2.1.9zm1.4.1l-.7-.2.1.9zm-6.6.5l-.8-.3.1 1.1zm-1.5.9l.4-.8h-1.1zm4.3-1.4l-.7-.2.1.8zm-2.9.8l.9.5.1-1.3z"/><path d="M229 47.6l1 .5v-1.3z"/><path d="M230 47.8l.7.8.6-1.1zm13.4-.5l.1-.9-.9.4zm-5.3-1.7l.6.9.5-1zm-1.9.1l.6.9.5-1zm-1.5.2l.6.9.6-1zm-8.6 1.4l.9.6.1-1.2zm20.9 2.1l.3.4.2-.5zm2.2-.4l.3.4.2-.5z"/><path d="M249.1 47.6l-.8 1 1.3.4zm-2.4.3l-.7.2.5.6zM230 46l-.7.1.4.7zm-2.1.6l-.8.1.5.7zm-1.7.6l-.6.4.6.4zm23.5 2.8l-.4-.2v.5zm-.3 1.2l.3.4.2-.6zm-7.2-1.5l-.2.3h.5zm2.1-1.4l-.3-.1.1.4zm-1.3-.6l.4.4.1-.6zm-5.9-1.1l.3.3.2-.5zm5.3 2.1l-.1.4h.4zm-9.2 5.3l-.2.4h.5zm7.6-8.3l-.4.8 1.1.1zm.8 3.8l-.5-.1.1.4zm-.2-1.1l.4-.1-.3-.3zm-2.5 1l.5-.2-.4-.5zm1.1-3.1l.3-.7h-.9z"/><path d="M238.8 50l.1.4.3-.3zm1-3.3l.1-.7-.9.1zm-6.4-.1l.2-.7-.9.2zm-4.6.3l.1-.7-.9.2zm14.3 2.5l.2.3.3-.3zm-2.2.9l-.3.2.3.3zm-6.5 4.9l-.4.2.4.2zm5.8-3.6l-.3.2.3.3zm9.5-3.6l.3.9.7-.2v-.5zm3.1-1.1l-1-.1-.1.6.4.5zm-1.3-.1l-.8.6.3.6.6.1zm.8 3.1l-.6-.5-.3.9zm2 3.1l-.2-.3-.2.4zm-2.9-3.7l-.2-.3-.2.5zm3.2-2.1v1.1h.7l.1-.8zm-1.7 3.6l.1.4.4-.3zm.3-3.9l-.2.5.6.3.6-.7zm2 3.9l.1.9.4-.8zm-1.2 4.3v.4l.5-.3zm-1.2-1.6l-.3.3.3.2zm3.5-4.4l-.3-.3-.1.5zm-.2 1.6l-.2-.4-.3.5zm-1.2 1.7l-.4.3.5.2zm-1.1-4.8l.3.6.4-.7zm2.8 8.3v.6l.6-.4zm-.4-2.3l.4.5.2-.7zm.9-1.5l.3.5.3-.7zm-.2 3.2l-.2-.4-.2.5zm1-.9l-.2-.3-.2.4zm-5.2-2.4l.1.4.4-.4zm1.9-2.3l-.6.4.7.5zm.1 4l-.3-.2-.2.4z"/><path d="M256.8 50.1l-.3-.3-.2.4zm-2.3-.9l-.9-.1.4 1zm.7-.8l-.9-.1.3.8zm-4.4 2.4l-.1-.5-.5.3zm-.6-1.8l-.6.9 1.2.3zm-.5-.1l-.1.3.3-.1zm1.7 1.6l-.1.3.4-.1zm.3-2.4l-.7.1-.1.4.4.2zm1.1 1.1l-.1-.5-.5.4zm-.2 1.5l-.1-.5-.5.3z"/><path d="M252.4 49.2l.3.5.3-.6zm2.6.9l1.2.4v-1zm-1.6.4l.8 1 .6-.9zm-5.6-.8l.5.3v-.7zm-3-.1l.5.2v-.6zm5.7-.5l.6 1 .7-1.2zm4.1.2l-.2.3.4.1zm-.7.5l-.9-.4.2.9z"/><path d="M254.9 51l-.3-.2-.1.5zm-3.1.6l-.2.3.4.1zm3.5-1.4l-.3-.2-.1.4zm-1.3.8l-.3.4.5.1zm2.5 1.3l.1.5.5-.4zm.8.3v.5l.5-.3zm.7-.7l-.3.1.3.3zm-.7-.2l-.3-.3-.1.5zm.2 1.9l-.3-.2-.1.4zm1.4-1.4l-.3-.3-.1.5zm-7.8-.7l-.3-.3-.1.4zm-12.7.3v-.5l-.5.2zm-5.9-5.7l-.8.4.8.7zm6.1 1.7v-.9l-1 .4zm-5.4 2.8l-.5.8.9.2zm3.2.1l-.4.6.7.1zm-2.3 1.6l.4.2v-.4zm-2.6-1.9l-.1.3h.4zm4.3 1.6h-.3l.1.3zm-1.6-1l-.1.6.7-.2zm3.8 2.3l-.4.1.2.3zm-8-4.3l.3 1 .9-.9zm.7 3.7l.6.6.4-.8zm3.2-6.5l-.8.9 1.3.5.1-.7zm-.4 1.6l-.5.7.9.3v-.7zm.6 1.1l-.7-.1-.5.3.7 1.2z"/><path d="M230.2 52.9l-.5.8h1zm3.5-5.8l-1.6.5 1.1.9zm-1.7-.2h-.6l-.5.5 1 .7zm5.6 0l-1.3.2.8 1.2z"/><path d="M238.5 47.5l-1.3.2.8 1.3z"/><path d="M238.4 49l-.8-.5-.2 1.1zm-6 .5l-1.1-.7-.3.8.1.6zm-.8.9l-1.1-.1.4 1.2zm-1.7-1.1l-1.1-.7-.2 1.4zm7 .7v-1l-1 .4zm-1.8 1l.7-.7-1-.4zm.2 2.7l.5-.5-.8-.3zm-5.5-.7l.6-.7-.9-.3z"/><path d="M228.5 54.9l.5-.5-.7-.3zm5-1.7l.7.2v-.8zm1.1-2.6l-.6-.8-.6.9zm-1.3-2.6l-1.3.2.8 1.2zm2.8-1.1l-1.2.2.7 1.3zm.4 1.5l-1.2.3.7 1.2zm-1.4.4l-.5.7.8.2zm-1.7 3.5l-.4-.2.1.5z"/><path d="M232.4 51.5l-.7-.4v1zm1.7-1.7l.4.3.2-.5zm.6-3l.2.4.4-.3zm2.4 1.7l-.6-.5-.3.9zm-3.7 1h-.9l.4.9z"/><path d="M232.7 49.9h-.8l.3.9zm.1 2.6h-.8l.4.9zm-2.3-2.9h-.8l.4.8zm5.7-1.7l-.2-.3-.2.5zm2.7 3l.1.4.4-.3zm-1.3 1.2l-.3.3.3.2zm-.1-1.6l.1.5.4-.4zm-1.9-1.1l-.1-.5-.5.3zm-.6-1.8l-.7.5v.4l1.3.3zm-.5-.2l-.1.4.3-.1zm1.7 1.7l-.1.3.4-.1zm-.9 2.2l-.1.4.4-.1zm1.1-4.3l-.3-.1v.4zm4.2 1.5l-.1-.5-.4.3zm-.3 1.4l-.1-.5-.4.3zm-8.3 4.5l-.1-.5-.5.3z"/><path d="M239.2 47.9l.3.5.3-.5zm-8.5.7l.9.4v-1.1zm5-.7l.2.4.3-.4zm4.4 1l-.4-.2v.5zm-8.6 6.4l-.4-.2v.5zm5.1-5.2l-.2.3.4.2zm-.7-.1l-.3-.2-.1.4zm-19.8 9.3l1.5-.1-.8-1.5zm13.7-5.3l-.4.3.5.3zm-3-1.9l-.9.8 1.2.5zm.6 3.9l-.4-.3-.2.5zm.1-1.3l-.5-.4-.2.7zm-8 2.4l.4 1 .8-.9zm6.7-7.1l.4.9.8-.8zm1.7-.5l.2.5.5-.5zm.4 1.1l.2.6.5-.5zm-11.5 12.8l.4 1.6 1.1-.9zm.4 1.7l.4 1.2.7-1zm2.6-.6l.2.5.5-.5zm-1.4.4l.2.5.5-.4zm3.4-11.3l.1.9.9-.5zm-.4 3.5l-.4-.3-.1.5zm.1.8l-.7-.5-.2.9zm3.7-3.8h.9l-.5-.9z"/><path d="M225.3 55.2l.2.4.3-.3zm-5.2 7.1l.1.4.4-.3zm1.7 1.3l-.4.1.2.4zm-4.2.5l.3 1 .8-.8zm1.9 1.9l.2.4.4-.4zm9.3-16l.4 1.2 1.1-1zm-1.7 1.8h1.3l-.7-1.3zm-2.3-1.3l1-.1-.5-1z"/><path d="M228 49.8l-.7.4.8.6zm-8.3 15l.3-.2-.3-.3zm-.7-2.3l.2.3.1-.3zm4.3-1l-.2.2.3.1zm-1.5 4l-.2.3.3.1zm-1 1.7l-.1.2.3.1zm.4-5.2l.3.3.1-.4zm-1.4 1.3l.5.4.2-.6zm3.7-2.6l-.1.3h.3zm5-8.5l-.5-.2.1.7zm-3.8.7l.6.2-.1-.6zm-3.6 1.7l.5.9.6-.9zm-3.2 6.7l.6.2-.1-.6zm-1.2 0l.8.4-.1-1zm-.6-1.4l.9.4-.1-1.1zm7.8-8.9v.5l.5-.2zm-.7.1v.5l.5-.2zm6 .3l-1 .2.7.9zm-.1 1.5l-.9.2.6.8zm9.5-3.4l-.9.1.7.8z"/><path d="M223.8 50.9l.1-1-1 .3zm.5.9l-.9-.3.1 1zm-1-.6l-.6-.7-.4 1zm-.3 1.2l.2-.9-1 .3z"/><path d="M225.6 50.2l.6-.1-.4-.5zm-.8.2h-.8l.4.8zm-1.5-.9l.4.6.4-.6zm3.5-1l-.9.9 1.4.6zm-7.6 16.7l.2.4.4-.3zm-1.3-4l-.3.2.3.2zm.8 5.7l-.3.2.4.2zm.3-.7l-.3-.3-.1.4zm-1.6-2.7l1.1-.1-.6-1.1zm1.4-3h.5l-.3-.5zm-2.8-.1l.2 1 1-.7zm2.5 2.8l.2.7.6-.6zm-.5-3.7l-.7.4.8.5zm1.8 1.4l-.7.4.8.6zm-.5-3.5l-.7.4.8.5zm-2.7 5.8l1.2-.9-1.6-.8z"/><path d="M217.6 66.5l.3 1.3 1.2-.9zm1.6-2.5l-.5.4.7.4zm-1 2.2l.7-.1-.5-.7zm1.9-.6l.2.4.3-.4zm-.7 1.4l-.3.2.4.2zm3-10.8l-.2.5.6.1zm-1.1-.7l-.3.5h.6zm-2 .5l-.5.9 1.1.1z"/><path d="M222.3 54.5l-.2.4.5.1zm-1.1 2.5l-.3.4h.6zm.9-.7l.4.2v-.4zm-4 5.9l.7.3v-.9zm1.3-2.5l.3.2v-.5zm5.1-6.2l.3.1v-.4zm-1.2.7l.3.1.1-.4zm-.7-.6l.5.3.1-.7zm-3.4 5l.3.2v-.5zm2.3-2.3l-.2.4h.5zm-.7.3v-.7l-.7.3zm-1.1-.5l-.1-1-.9.5zm2.5-.4l-.3-.1.1.5zm-.5 1.5l-.2.4h.5zm-1.4.3h-.4l.1.4zm-.8 10.6l.2-.4h-.5zm-.4 2.1l.1-.3h-.4zm-.3-1.4l.1-.4-.4.1zm.6 2l.4.2-.1-.5zm0-1.1l.3-.4-.5-.1z"/><path d="M220.3 68.9l.2-.4-.5-.1zm-2.2-.9l.7.2-.1-.8zm.4.7l-.1 1.1 1.1-.4zm.6 1.6v.4l.4-.1zm-.8-11l.7.3-.1-1zm-1-2.3v.9l1-.4z"/><path d="M218.7 58.4v.4l.4-.2zm-.8-.2l-.1.8.8-.3zm3.8 0l-.7.1.5.7zm5.3-6.9l-.8.2.6.7zm-1.5 0h.5l-.2-.5zm-.8-2.9l.9.4-.1-1.2zm-.1 2.9l.2.8.7-.6zm-1-2.1l1 .4-.1-1.2z"/><path d="M221.9 53.3l1-.3-.8-.9zM226 52h-.5l.3.5zm.1 2.5l-.3.1.2.3zm-5.7 4.3l-.4.1.3.4zm-.4-3.9l.6.7.4-.9zm4.6-5.8l.9.3-.2-1zm-7.1 7.6l1.2.4-.1-1.3zm5.1 2.5l.4.1v-.5zm5-5.4l.4.1v-.5zm-4.3-.3l.5.4.2-.7zm.5-1.2l-.1.6.7-.1zm-1.1.2l.5.4.2-.7zm-.5.9l.5.4.2-.7zm.9 1.4l-.3.1.2.4zm1.7-.2l-.4.1.3.4zm-1.6 4.7l.5.2-.1-.5z"/><path d="M222.5 58v.4l.5-.1zm-1.9.3l-.4-.3-.1.5zm1.3 2l.3.4.3-.4zm-1.6-1.7l-.3.5.7.1z"/><path d="M219.9 58.7l.4.2v-.5zm-.2.9l-.2.6h.8zm.5 1.3l.5.1-.1-.5zm1.5-1.9l.4.2v-.5zm-.7 2.7l.5.2-.1-.6zm-.5-2.3v.4l.4-.2zm10.2-8.4l-.9.1.6 1zm-6.1 2.8h-.4l.3.4zm-2.8 6.5l-.3.1.2.3z"/></g><g xmlns="http://www.w3.org/2000/svg" fill="#93282d"><path d="M245.3 92.4l-.5-.5-.3.6zm-16.1-8.7v.6l.6-.2zm12.1 7.5l.4-.5-.8-.2zm-9.2-5l.3-.6h-.8zm-1.8-.6l.2-.6h-.7zM248 93l1.4-.2-.5-1.1zm-.9-.1l.6-.6-.9-.1zm-1.2-.2l.4-.5-.7-.2zm-9.5-2.6l.5.2v-.6zm4-.2l-.1.6.6-.2zm-2.1-.5v.6l.6-.2zm-3.2-.3v-.8l-.9.4zm.8-1.7l.3-.5-.6-.1zm10.4.5l.3-.4-.6-.2zm.4 2.5l.3-.5-.6-.1zm-17-5.4l.3-.5-.7-.1zm2.2-.8l-.4-.4-.2.6zm1.5 2.6l-.5-.4-.2.6zm-3-.8l.6.6.3-1zm21.4 3.3l-.4-.2v.4zm-4.6-.5l.1-.4-.4.1zm-1.9-1.9l.1-.5-.5.2zm-7.2 4.1l-.1-1.1-1.1.6zm8.3-1.1l-.2-.6-.6.5zm-13.6-1.6l.4-.4-.6-.2zM232 85l.4.3.2-.6zm2.1 4.1v-.6l-.7.2zm-1.7-1.2l.2-.9-1.1.2zm1.6 0l-.7-.5-.1.9zm-2.6-1.2h.6l-.2-.6zm15.3 4l.4.2v-.6zm1.4-.1l.5.2-.1-.6zm-.9.1v.5l.4-.2zm1.4-.7l-.3-.5-.3.6zm-3.2.3l-.4-.5-.2.6zm.2 1l.3-.3-.5-.2zm-.8-2.2l.5.2v-.5zm5 1.8l-.4-.5-.3.7zm-1.5.7l.2-.4-.5-.1zm.5-4.3l.5.2-.1-.6z"/><path d="M247.9 91.6l-.4-.4-.2.6zm2.8-4l.3-.5h-.6zm-2.9 2.2l.4.2v-.6zm-9-.3h.7l-.4-.7z"/><path d="M238.9 91.2l.6-.1-.3-.7zm-.9-.2l.6-.1-.3-.6zm2.4-.8h.5l-.2-.5zm-1.3-.4v-.5l-.5.3zm-4.2-1.4l-.1-.5-.4.3zm15.7 4l-.6-.6-.5 1zm-7 .3l-.3-1.3-1.2 1zm.6-2.5l-.1-.4-.4.2zm-9.4-.9l-.1-.4-.4.2zm1.5.7l-.1-.4-.4.2zm7 1.2l-.1-.5-.4.3zm-3.8-.8l.5-.1-.3-.5zm.9.5l-.3.3.4.2zm-2-.9l.2.5.4-.4zm1.9-.4l.4-.1-.3-.5zm1.2 1.2l.2.4.4-.4zm8-1.5l-.4.1.2.4zm1.2 1l-.4.1.3.5z"/><path d="M250.8 89.8l-.4.1.3.4zm1.3 1l-.1-.5-.4.3zm-1.7-2.7h-.6l.3.5zm-.4 3.7l-.2-.5-.3.3zm.8-.3l.4-.2-.4-.3zm.7.1l.4-.2-.4-.3zm-7.1-.4l-.1-.6-.5.4zm-2.2.4l.4-.2-.4-.3zm1.2.1l.4-.2-.5-.3zm-1.7-2.9l.3.3.2-.5zm-8.7-3.5l.4.2V85zm.8.8l-.4-.4-.2.6zm3.8 2.9l-.2-.6-.5.5zm-2.9-2l.3.3.2-.5zm8 2.8l.3.3.2-.5zm-2.8 1.9l-.1-.8-.7.5z"/><path d="M241.1 88.1l-.2-.5-.4.4zm.3 4.1l-.2-1.1-1.1.7zm-3.1-4.3l-.1-.6-.5.4zm-2.1.9l-.2-.5-.5.4zm-.6 1.1l.4-.3-.4-.3zm1.4-.2l.3.4.2-.5zm-1.3-.7l.5.5.3-.8zm5.5-2.2l-.2-.4-.3.3zm-3.9.2l-.1-.4-.4.3zm-8.1-3.6l-.2-.4-.3.3zm10.2 5.3l.4-.2-.4-.3zm2.7 1.2l-.1.6.6-.2zm.5.2l.6-.1-.4-.7z"/><path d="M242.9 90.3l-.1-.4-.4.2zm1.1-.2l.5-.1-.3-.4zm.9-1.4l-.2-.6-.5.4zm-2.8-.3l-.2-.5-.5.4zm1.1.9l.4-.2-.5-.3zm-8.4.2l.6.3.1-.8zm8.4-2.1l.3.4.2-.5zm9.5 2.3V89l.7.3zm1.8-4.4l-.1.9-.9-.5zm-2.6 6.3l-.2-.9.9.3zm-9.7.7l-.7-.1.5-.6zm9.5-3.9l-.7-.1.5-.6zm1.6 1.6l-.6.9-.5-1.3zm-3.4 1.6l.4.4-.6.2zm1.4-2.1l.4.4-.6.3zm1.1-3.1l-.1-.7.7.3z"/><path d="M251.5 86.7l-.6-.1.4-.5zm-5.7 6.3l-.8-.1.5-.8zm7.2-7.7v-.6l.6.3zm-8.6 4.9l-.2.2-.2-.4zm-.1 2.6l-.7-.1.6-.7zm10.3-10l-.3.2-.1-.4zm-3.1 7.1l-.5-.4.7-.3zm2.8-4.7h-.6l.2-.5zm-.7 1.9v-.7l.7.4zm-.2-.8l.2-.6.6.5zm-3.3 3.5v-.6l.6.3zm-2.2 3.2l-.8-.2.6-.7zm1.8-.5h-.4l.2-.5zm-4.4-1l-.1.4-.4-.4zm-5.1.3l-.4-.1.3-.4zm7.6 0l-.9.6-.2-1.2zm4.1-.2l-.6.4-.1-.7zm.8-1.6l-.8.7-.3-1.1zm-8.6 2l-.4.3-.2-.6zm6.6-1.4l-.3-.4h.5zm-.3 1.6l-.6-1.1 1.4-.2zm3.1-2.5l-1.1-1.1 1.7-.4-.3.8zm-3.9-.5l-.3-.3.5-.1zm4.6-1.3l-.7-.5.9-.5z"/><path d="M251.9 89l-.2-.4.4-.1zm-1.1 3.3l-.3-.3.5-.1zm-.6-3.3l1-.1-.4.9zm1.2 1.4l.1.4-.5-.1zm1.2-2.8l.2.9-.9-.1zm-.8.8l-.2-.5.6-.1zm-.4 3.5l-.4.1.1-.5zm2.2-5.9h-.5l.1-.5z"/><path d="M248.4 91.6v.6l-.7-.3zm2.9-2.5l-.3-.6h.7zm.8-3.5v.5l-.5-.3zm-2 5.7l-.2-.5h.6zm-2-.6l-.3-.5h.7zm4.9-3.2l-.3-.5.6-.1zm-3 1.2l-.2-.5.6-.1zm3.4-.4l-.5.1.2-.5zm-1.2.9v.4l-.4-.2zm-.1-2v.5l-.4-.3zm-5.1 2.7l-.3-.5h.7zm2.8.2h-.5l.2-.5zm-3.7 1.5l-.5-.3.4-.4zm3.3-.5l-.4.2-.1-.5zm-3.4 2l.5-1 .7 1zm1.6-1.5l-.2-.5h.6z"/><path d="M244.6 92.9l-.3-.5.6-.1zm5-1.7l-.4.1.1-.5zm5-7.4l-.1.4-.4-.2zm-1.4 3.5v.4l-.5-.2zm-7.1 4.4v.4l-.5-.2zm-7.4-31.5l.3-.6-.7-.1zm6.9.8l.5-.6-.9-.2zm1.8.1l-.8-1.1-.8 1.2z"/><path d="M244.3 61.1l1.1.1-.4-1.1zm-7-1.8l.3-.2-.4-.3zm-.9-1.1l-.3.6.6.1zm-2.4.3l.5.4.2-.7zm2.3.7l.6.5.2-.8zm1 .4l-.5.7.9.2zm7 1.6l-.3-1-.9.9zm-5.4-.6l-.3-1-.8.8zm2 .3l-.5-1-.7.8zm-6.8-3.3l.3-.3-.4-.2zm3.9 2.1l-.2-.4-.3.4zm6.7-3.8l.3-.2-.4-.2zm-8.8 1.1l.3.2.1-.4zm1.2.5h-.5l.2.6zm1.1-.1V57l-.4.1zm-3.4-1l.4-.1-.3-.3z"/><path d="M242.6 55.5h.4l-.2-.4zm-4.3.3l.3-.1-.2-.4zm.7.4l-.2.5h.5zm2.7 4.8l.9.1-.3-1zm-4.6-3l-.3.9h.9zm5.4-1.2l-.2-.4-.2.4zm1.8 1.6l.4-.5-.6-.2zm-2.5-2.4l.3.2v-.4z"/><path d="M241 55.1l.3.1v-.4zm3.9 4.9l.3-1-1.2.3zm-4.2.9l1.1.1-.3-1.1-.6.3zm.6-1.3l.9-.3-.6-.8-.4.6z"/><path d="M242.4 60.8l.5.3.6-.2-.5-1zm.8-2.1l.6 1.1.6-.5.2-.6zm1.6-1l.7.5.2-.9zm.4 1.8l.6 1.1.8-1.1zm-5.8.3l-.5.8 1.1.2zm1.2-1.3l-.9.4.7.8zm6.4-1.9l-.6.2.4.5zm3.8.3l-.6.2.4.6zm-9.4 3l1.1.5V59zm-5.6.1l1 .2-.2-.8zm4.9-2.1l.7-.2-.5-.7zm2.3-.8l.3.3.2-.4zm-1.2.4l-.1-.4-.4.3zm-1.6 3V60l-.5.2zm-2.1-1.9l.3.8.6-.7zm3.5-.4l.7.5.1-1z"/><path d="M242.7 58.1l.7.5.1-1zm2.1 1.1l.7.4.1-.9zm-5.6-.3l.2.3.3-.3zm1.2-1.7l-.1.4h.5zm.1 2.1l.8-.1.2-.4-.9-.9z"/><path d="M240.4 59.4l.3-.3-.4-.1zm-.7-1.6l.2-.3h-.4zm1.2-1.7l.2-.3-.4-.1zm-2.2 3.5l.3.3.2-.5zm-3.2-1.4v.5l.4-.2zm2.6.1l-.1-.6-.6.4zm6 1.7l-.5-.8-.5.9zm-4.3-.9l-.1-.5-.4.3zm-4.8-1.7l.3.4.2-.5zm11.2-1.7l.2.4.2-.4zm-6.5.9l.4-.1-.4-.3zm.8-.2l.1.4.3-.3zm-6.8 10.2l-1.4-.1.5 1.5zM245 57l.5-.1-.3-.4zm5.6 2l.9-.1-.6-.9zm2.8-3.8l.1.4.4-.3zm-3.3.4l.1.4.3-.3zm-1.5 4.8l.2-1-1.1.3zm-1.7-.1l.1-.6-.6.2zm.3-1.2l.1-.6-.6.2zm-11.9 3.6l.2-1.6-1.3.4zm.3-1.6l.1-1.3-1.1.7zm14-3l.3-.6-.7-.1zM252 56l.1-.4-.5.1z"/><path d="M230.3 63.1l-.1-.5-.4.3zm1.5-4.3h.4l-.2-.5zm14.7.6l.3-1.3-1.5.3zm2.3-1.1l-1.1-.5v1.3zm1.3 2l-.9-.4V61zm4.9-1.1l-.9-.6-.1 1.2zm-8 .7h.8l-.4-.9zm-14-.4l-.3.1.2.3zm-1.6 3.4l-.2-.2-.2.3zm-1.4 1.5l.2-.2-.3-.1zm-.8-1.3l-.3-.3-.1.4zm2.8-1.6l-.4-.4-.2.5zm0-1l.2-.3h-.3zm15.8-3.2l.4.4.2-.6zm-15 6.7l-.4-.4-.2.6zm1.1.4l-.6-.6-.3 1z"/><path d="M234 65.9l-.8-.5-.1 1.1zm17.2-5.6l.2-.4-.5-.1zm.5.3l.7-.2-.9-.3zm-4.9-2.5l.6.3-.1-.8z"/><path d="M247.7 56.7l.6.2-.1-.7zm-9.5 1.1l.8.1-.2-.9zm13 1.6l.5.8.5-1z"/><path d="M252.1 58.9l-.6.8 1 .2zm-2.8 1.6l-.6-.2.1.6zm.8.4l1.1-.2-.4-.8zm-2.6.2l1.2-.1-1-1.1zm-14.7 3l.4-.1-.3-.3zm1.3-1.9l-.9-.4.1 1.3zm-2.8 2.7h-.5l.2.5zm2.9.7l.4-.9-1.2.1zm-1.7-2.9l-.1-.8-.6.5zm-.4 3.5l.8-.2-.5-.8zm3.1-3.3l-1.4.3.9 1.3zm-2.3-1.5l.6-.4-.6-.4z"/><path d="M234.4 60.7h-.7l.3.8zm-1.4 2.4l-.5-.6-.4.8zm-2.5 2.5l-.2-.2-.1.5zm21.3-7.7l-.2-.3-.2.3zm1.4-.1l-.2-.2-.2.3zm.3.9l-.3-.5-.4.6zm-22.9 8.1l-.3-.2-.1.4zm3.6-7.4l-.4.4.5.1z"/><path d="M232.2 68.6l.2-.9-1.1.2zm-1.2-1.5l.1-.4-.5.1zm.8.2l.2-.7-.8.2zm-.6-1.4l.7-.1-.4-.7zm17.4-7.1l.8.3-.1-1zm1.6.8l-.6-.4v.7zm.5.3l.2-.9-1 .1zm3.1 0l-.9-.8.1 1.1zm-4-1.5l.5.3-.1-.6zm1.2-2.2l.3.1v-.5zm-20.5 12.3h.4l-.2-.4zm18.9-12.1l-.3-.3-.2.4zm4.4 1.5l.8.3v-.9zm0-1l-.5.3.5.4zm1 1.4l.8.3-.1-1zm.6-3.7l.3.2.2-.4zm-.5 2.2l.5-.1-.4-.4zm1.3.2v-.6l-.6.3zm-3.4 1.5l-.1-.6-.6.5zm-1 .8l.4-.5-.7-.2zm1 .3l-.2-.6-.5.5zm.9-.5l-.2-.6-.5.5zm.2-2.9l.4.1v-.4zm-1.8.5l.4.2v-.5zm-21 7.8l-.2-.5-.4.4zm-.6 2.2l.3-.4-.6-.2zm1.1-2.4l.3-.5-.7-.1zm0 4.8l-.5-.2v.6zm-.9.2l-.4-.3v.6zm4.1-9.8l.9.4-.3-.7zm17.1-1.9l.3.1v-.4zm-22 10.3h.3l-.2-.4z"/></g><linearGradient xmlns="http://www.w3.org/2000/svg" id="bt-A" gradientUnits="userSpaceOnUse" x1="169.558" y1="106.814" x2="169.558" y2="106.814"><stop offset="0" stop-color="#997ebd"/><stop offset=".406" stop-color="#7c59aa"/><stop offset="1" stop-color="#6629c8"/></linearGradient><path xmlns="http://www.w3.org/2000/svg" d="M169.6 106.8h0z" fill="url(#bt-A)"/><path xmlns="http://www.w3.org/2000/svg" d="M198.6 397.3l5.3-28.2 28.2 6.8-5.9 35.7z" fill="#ea9d7d"/><path xmlns="http://www.w3.org/2000/svg" d="M200.3 389.5c-.2-.1-.2-.3-.2-.4l3.2-17.3c.1-.2.3-.4.5-.3.2 0 .4.3.3.5l-3.2 17.3c-.1.2-.3.4-.5.3l-.1-.1z" fill="#cc7a5e"/><linearGradient xmlns="http://www.w3.org/2000/svg" id="bt-B" gradientUnits="userSpaceOnUse" x1="213.755" y1="393.3" x2="216.058" y2="384.441"><stop offset="0" stop-color="#cc7a5e" stop-opacity="0"/><stop offset=".924" stop-color="#aa5f4b"/></linearGradient><path xmlns="http://www.w3.org/2000/svg" d="M212.2 392.9c11.1 3.2 17.2.1 17.2.1l2.6-13.9-28.5-6.4-3 14.6c0-.1 3.7 3.2 11.7 5.6z" fill="url(#bt-B)"/><g xmlns="http://www.w3.org/2000/svg" fill="#ad5c49"><path d="M201.3 386.5l-.1.9.8-.3zm10.6.8l1 .2-.3-1zm-9.3-2.5l.8 2.2 1.2-1.9zm11.3 2.9l.8.2-.2-.8zm-5.5-.4l.7-.2-.5-.5zm-6 1.4l.2-.1-1.5-.9-.2 1.4 1.2-.3.4.8.7-.7zm2.4.3l.9-1.1h-1.5zm-2.5-1.6l1.3 1.3.2-1.6zm4.5.5l1.4-.3-1.1-.8zm-1.7 2.3l.9-1.1h-1.4zm-1.4.8l1.3-.7-1.4-.6zm8-4.7l-1.3-.1.5 1.3zm-1.4-.2l-1.3-.2.5 1.3zm-1.6-.3l-1.3-.2.5 1.3zm-2.2-.2l-1.9.2.6 1.8zm9.9 2.7l.4-.6-.9-.1z"/><path d="M211.9 389.5l.4-.6-.9-.1zm-5.1 1.8l.5-.7-1-.1zm1.8-1.7l1.3-.2-1-1.1zm-4.3-.5l-1.3-.5.1 1.2zm-2.9-2.9l1.2-.1-.9-1.2z"/></g><path xmlns="http://www.w3.org/2000/svg" d="M167.8 241.6s28.4 53.3 30.1 69.4c2.3 21.4-.2 59.2-1.1 71-.2 2 1.3 3.7 3.3 3.9l31.9 3c2.2.2 4.2-1.2 4.7-3.3 3.5-14.3 16.3-66.9 19.3-89 1.8-13.4-28-82.9-28-82.9l-60.2 27.9z" fill="#1e0700"/><linearGradient xmlns="http://www.w3.org/2000/svg" id="bt-C" gradientUnits="userSpaceOnUse" x1="210.796" y1="356.404" x2="211.961" y2="268.195"><stop offset=".326" stop-color="#110200" stop-opacity="0"/><stop offset="1" stop-color="#110200"/></linearGradient><path xmlns="http://www.w3.org/2000/svg" d="M167.8 242.3s17.1 30.6 23.1 49.2 8.9 25.3 8.2 35 43.2 35 43.2 35 12.4-51.7 13.6-65c1.3-13.3-28-82.9-28-82.9l-60.1 28.7z" fill="url(#bt-C)"/><path xmlns="http://www.w3.org/2000/svg" d="M176.62 268.64l9.965-4.162 10.56 25.282-9.965 4.162z" fill="#595959"/><linearGradient xmlns="http://www.w3.org/2000/svg" id="bt-D" gradientUnits="userSpaceOnUse" x1="186.293" y1="282.139" x2="183.404" y2="265.84"><stop offset="0" stop-color="#151e28" stop-opacity="0"/><stop offset=".998" stop-color="#151e28"/></linearGradient><path xmlns="http://www.w3.org/2000/svg" d="M183 283.5l-6.3-14.8 9.9-4.2 6.6 16.1z" fill="url(#bt-D)"/><g xmlns="http://www.w3.org/2000/svg" fill="#595959"><path d="M401.3 457.1l-6.9-73.8 6.9-74.3 1.5.2-6.9 74.2 6.9 73.5zm-18.8 3.3l-1.5-.2 7-76.8-7-70.9 1.5-.2 7 71.2z"/><path d="M467.4 395.6l-74.2-6.9-73.5 6.9-.2-1.5 73.8-6.9 74.3 6.9zm-74.2-13.3h0l-77-6.9.1-1.5 76.9 6.9 70.9-6.9.2 1.5z"/><path d="M348.5 443.5l-1.2-1 47.3-57.1 57.4-47.6 1 1.2-57.3 47.5zm-16.8-11.9l-1-1.2L390 381l45.2-55.1 1.2 1-45.4 55.2z"/><path d="M449.7 429.6l-57.1-47.2-47.6-57.5 1.2-1 47.6 57.5 56.9 47zm-12.1 16.6l-49.4-59.3-55.1-45.2 1-1.2 55.2 45.4 49.5 59.3z"/></g><circle xmlns="http://www.w3.org/2000/svg" cx="391.9" cy="384" r="10.4" fill="#283749"/><path xmlns="http://www.w3.org/2000/svg" d="M391.9 320.6c35 0 63.4 28.5 63.4 63.4s-28.5 63.4-63.4 63.4-63.4-28.5-63.4-63.4 28.4-63.4 63.4-63.4m0-15c-43.3 0-78.4 35.1-78.4 78.4s35.1 78.4 78.4 78.4 78.4-35.1 78.4-78.4-35.1-78.4-78.4-78.4h0z" fill="#333"/><use xmlns="http://www.w3.org/2000/svg" xmlns:xlink="http://www.w3.org/1999/xlink" xlink:href="#bt-R" fill="#3aaaa7"/><g xmlns="http://www.w3.org/2000/svg" fill="#595959"><path d="M124.3 457.1l-6.9-73.8 6.9-74.3 1.5.2-6.9 74.2 6.9 73.5zm-18.8 3.3l-1.5-.2 7-76.8-7-70.9 1.5-.2 7 71.2z"/><path d="M190.5 395.6l-74.2-6.9-73.6 6.9-.1-1.5 73.7-6.9 74.3 6.9zm-74.2-13.3h-.1l-77-6.9.1-1.5 77 6.9 70.9-6.9.1 1.5z"/><path d="M71.5 443.5l-1.1-1 47.3-57.1 57.4-47.6 1 1.2-57.4 47.5zm-16.7-11.9l-1-1.2L113 381l45.3-55.1 1.2 1-45.4 55.2z"/><path d="M172.8 429.6l-57.1-47.2-47.6-57.5 1.1-1 47.6 57.5 56.9 47zm-12.1 16.6l-49.5-59.3-55-45.2.9-1.2 55.2 45.4 49.5 59.3z"/></g><circle xmlns="http://www.w3.org/2000/svg" cx="115" cy="384" r="10.4" fill="#283749"/><path xmlns="http://www.w3.org/2000/svg" d="M115 320.6c35 0 63.4 28.5 63.4 63.4s-28.5 63.4-63.4 63.4-63.4-28.5-63.4-63.4S80 320.6 115 320.6m0-15c-43.3 0-78.4 35.1-78.4 78.4s35.1 78.4 78.4 78.4 78.4-35.1 78.4-78.4-35.1-78.4-78.4-78.4h0z" fill="#333"/><g xmlns="http://www.w3.org/2000/svg" fill="#3aaaa7"><use xmlns:xlink="http://www.w3.org/1999/xlink" xlink:href="#bt-R" x="-276.9"/><path d="M200.7 269h-16.5s-21 6.2-27.8 7c-5 .6-12.5-2.4-12.5-9.8V262c0-8.4 7.7-10.4 12.5-10.4h44.3a8.71 8.71 0 0 1 8.7 8.7h0a8.71 8.71 0 0 1-8.7 8.7z"/></g><g xmlns="http://www.w3.org/2000/svg" fill="#fed6d6"><path d="M264.6 423.9l-.1-2.6-68-6.1c-.2 1.6-.2 2.2-.2 3 0 1.4 1.2 2.6 2.6 2.7l62.5 5.7c1.8.1 3.1-1 3.2-2.7z"/><path d="M264.5 420.2c-.6-3.1-7.5-8.9-12.4-11.3-.4-.3-.9-.5-1.5-.8l-4 11.6 18 1.7c0-.4-.1-.8-.1-1.2z"/></g><path xmlns="http://www.w3.org/2000/svg" d="M243.1 403.3l-4.2 6.3c-.3.5-.9.7-1.4.5-.2-.1-.3-.1-.4-.3-.5-.4-.6-1.2-.3-1.7l4.2-6.3c-.8-.6-1.7-1.1-2.4-1.6l-5.4 6.5c-.3.4-.9.6-1.4.4-.2-.1-.3-.2-.5-.2-.5-.4-.5-1.3-.1-1.8l5.2-6.4-1.9-1.4-3.2-15.5s-3-1.5-4.2 2.8c-.6 2.4-.8 4.8-.8 4.8l-27.6 2.3c-1 .1-1.8.8-1.9 1.8-.3 2.4-.6 7.1-.5 13.4.1 1.8 0 6.3.1 8l49.8 4.6 4-11.6c-1.7-1-4.4-2.8-7.1-4.6z" fill="#ad203a"/><path xmlns="http://www.w3.org/2000/svg" d="M231.6 407c.1.1.3.2.4.3.5.1 1 0 1.4-.4l5.4-6.5-2.1-1.5-5.2 6.4c-.5.5-.5 1.2.1 1.7zm5.7 3c.1.1.2.1.3.2.5.1 1.2 0 1.4-.5l4.2-6.3-2.1-1.5-4.1 6.4c-.4.5-.2 1.3.3 1.7z" fill="#fff8f8"/><path xmlns="http://www.w3.org/2000/svg" d="M208.8 411.9c3.2-.3 5.5-3.2 5.2-6.4s-3.2-5.5-6.4-5.2-5.5 3.2-5.2 6.4c.4 3.1 3.2 5.5 6.4 5.2z" fill="#fed5d5"/><path xmlns="http://www.w3.org/2000/svg" d="M220.6 390.2l7.2 14h1.8l-3.1-14.7-5.9.7z" fill="#92142c"/><path xmlns="http://www.w3.org/2000/svg" d="M226.5 402c.1.1.2.3.3.4.4.3 1 .3 1.5 0l6.7-4.6c-.5-.4-.4-.6-.8-2.5l-7.5 5.2c-.4.1-.6 1-.2 1.5z" fill="#fff8f8"/><g xmlns="http://www.w3.org/2000/svg" fill="#442624"><path d="M196.5 415.7v-1.3l68.2 6.2-.2 1.3-68-6.2z"/><path d="M247.2 419.9l-1.2-.5 4-11.6 1.2.6-4 11.5z"/></g><g xmlns="http://www.w3.org/2000/svg" fill="#dd5472"><path d="M238.9 411.6h.9l-.6-.7-.3.7zm4-.1l.3 1.3.9-1.1-1.2-.2zm-14.4-25.7l-1.1-.8-.3 1.6 1.4-.8zm1.3-1.1l1.4-.9-1.2-.8-.2 1.7z"/><path d="M248 406.9l.3-.1-1-.6-.2 1.3.7-.4-.2 1.4 1.4-.9-1-.7zm-20.3-16.8l1.2 1.1v-1.7l-1.2.6zm1.1-3.7l.9-1.4-1.1-.2h.2l-.7-.9-.7 1.1 1-.1.4 1.5zm10.2 16.7l-1.4-.3.3 1.5 1.1-1.2zm-1 3.2l1-1.3-1.4-.3.4 1.6zm9.5 7.1l.9-1.1-1.1-.2.2 1.3zm-4-9.9l-1 1 1.4.5-.4-1.5zm-15.4-13.9l-1.3-.8 1.9-.6-.7 1 1.3-.2-.6-.8h.2l-2-1.4-.3 2.1h.1l-.1 1.4 1.5-.7zm-9.1 2.6l1.5.2-.5-.8 1-.5-1.4-.7.1.7-.7 1.1zm17.3 11.5l1.4.5-.3-1.6-1.1 1.1zm-24.6-10.6l1.2-.6-1.2-.7v1.3zm-4.5-.2l-1.4-.2.3 1 1.1-.8zm-3.2-1.2h-1.4l.6 1 .8-1zm4.4 1.5l1-.9-1.4-.3.4 1.2zm-7.9-1.4h-1.4l.6 1 .8-1zm45.6 15l-.8.8 1.2.5-.4-1.3z"/><path d="M245 404.5l-1-.5v1.3l1-.8zm-.1 2.6l-1.3-.3.3 1.5 1-1.2zm-1.7-1.4l-1.1-.2.4.9.7-.7zm.3.3l.8.5-.1-1-.7.5zm2.7 4.3l.9-.4-.6-.5-.3.9zm-41.5-14l.8-.7-1.1-.3.3 1zm-4.9-2.9l.3.9.8-.7-1.1-.2zm9.3-.4l.7.6v-1l-.7.4zm-6.4 1.3l.8-.4-.7-.5-.1.9zm-4.8 7.8l.8-.5-.7-.4-.1.9zm-1.3 3.9l.8-.4-.7-.4-.1.8zm34.4-5.1l-.4.9 1.1-.1-.7-.8zm1.6 1.3l1.1-.1-.7-.8-.4.9zm6.5.4l.6-.7-.8-.1.2.8zm-5.2-1.4l.6-.7-.8-.1.2.8zm-.6 6.4l.8.4v-.8l-.8.4zm-.5-8.2l-.7.5.8.3-.1-.8zm-2.4 8.4l.9.2-.3-1.1-.6.9zm-13.2-17.3l-.5 1h.9l-.4-1zm13.7 13.2l-.2-.9-1 1 .2.1.6 1.1.4-.6.1.1v-.2l.4-.6h-.5zm-1.8-21.5l-1.2 1.4 1.8.5-.6-1.9zM204.5 393l-.4.6.9.2-.5-.8zm10.4-1.9l-.9.1.6.6.3-.7zm4.6-.8l-.9.1.7.7.2-.8zm-6.6.8l.2.7.6-.4-.8-.3zm14.6 13.5l.4.3.1-.8-.5.5zm13.6 3.1l.5.3v-.7l-.5.4zm-6.8 1.7l.5-.1-.3-.5-.2.6zm2.3-4.4l.3-.4h-.6l.3.4zm11.7 4.4l-.7.3.6.3.1-.6zm-3.5 1.4l-.3-.5-.1.5-.2-.1.2 1 .6-.5-.6-.3.4-.1zm2.2-4.8h-.6l.2.6.4-.6zm-25.7-9.6l.5-.3-.5-.1v.4zm-8.7-2.3l.7.5.1-.8-.8.3zm-2.4 0l.8.5.1-.8-.9.3zm-2 0l.5-.3-.6-.4.1.7zm2.4-2.6h-.8l.3.7.5-.7zm8 1.4l-.1.7.7-.2-.6-.5zm-18.1 1.2l.7.6.1-.8-.8.2zm-.5 1.6l.1-.8-.9.2.8.6z"/><path d="M199.4 399.1l.1-.8-.9.2.8.6zm29.4 4.9l1-1-1.4-.5.4 1.5zm-8-9.5l.5.8.4-.6-.9-.2zm6.2-2.7l1.1-1.2-1.4-.4.3 1.6zm.8-4.5l1.3-.1-.7-.9-.6 1zm-7.5 6.5l.5-.6-.8-.3.3.9zm-3-1.5l1.3.6-.1-1.5-1.2.9zm-9.5-1l-1.3.1.8 1.4.5-1.5zm-2.3.2l-1.4.1.8 1.4.6-1.5zm-3.7 1.5l.6-1.5-1.3.1.7 1.4zm8.6-1l1.2.6-.1-1.5-1.1.9zm-12 .9l-.5 1.5 1.3-.1-.8-1.4zm18.4 4.3l.7-.2-.5-.4-.2.6zm13.8-14.8l-1.1-.5.3 1.2.8-.7zm-13.2 11.2l-.8.7.8.4v-1.1zm1.3 1l1-.2-.8-.7-.2.9zm24.4 12.1l-.2.1v-.1l-.1.1-.6.2.2.4-.1.2h.3l.1.3.2-.4h.3l-.1-.4v-.4zm1.6 5.9h.9l-.3-.8-.6.8zm-6.8-1l.6-.5-.8-.3.2.8zm2.8-9.9l-.9.3.6.8.3-1.1zm-5.2 4.9l.5-.5-.7-.4.2.9zm5.9 3.3l.9.2-.2-1-.7.8zm-2-8.7l-.8-.4v.9l.8-.5zm5 4.1l.3.5.6.9.2-.4 1 .4-.4-1.3-.5.5.1-.3-.7.2.1-.6-.7.1z"/><path d="M247.9 410.5l-.5.7h.9l-.4-.7zm-7.5-.4l.6-.5-.8-.4.2.9zm3.8-.9h1.1l-.7-.8-.4.8zm4.5.9l.6-.7-.8-.2.2.9zm-5.9 4.4l.8.4-.1-.8-.7.4zm7.2-6.8l-.9-.4v1.1l.9-.7zm-44.3-12.5l2.4.3-1.2-2.1-1.2 1.8zm10.5-4.5l-1.5 1.7v-.1l-1.3 1.1 1.3.6v-1.3l1.9.5-.4-2.5zm-18 6.5l1-.1-.8-1.3.8-.4-2.1-1.3-.2 2.1 1.4-.5-.5 1.2-.9-.6-.2 2.2 2.3-.8-.8-.5zm-1.3 1.6l-.1 2 2.1-.9-2-1.1zm-.2 5.4l1.6-.6-1.5-.8-.1 1.4z"/></g><path xmlns="http://www.w3.org/2000/svg" d="M397 380.3l-61.6-153.9c-1.1-2.8-4.2-4.1-7-3s-4.1 4.2-3 7l9.1 22.7L190 285.5c-.2 0-.3.1-.5.1h-.1c-.1 0-.2.1-.4.1h-.1c-.1.1-.3.1-.4.2l-.1.1c-.1.1-.2.1-.3.2 0 0-.1 0-.1.1l-.8.8c-.1.1-.2.2-.2.3l-76.3 93.1c-1.3 1.6-1.6 3.8-.7 5.7.8 1.8 2.6 2.9 4.5 3.1 4.2.5 76 12.3 123.5 20.2h1.6c.1 0 .3 0 .4-.1.1 0 .2 0 .2-.1.1 0 .2-.1.4-.1.1 0 .2-.1.3-.1s.2-.1.3-.1.2-.1.3-.2c.1 0 .2-.1.3-.2s.2-.1.3-.2.2-.1.2-.2c.1-.1.2-.1.2-.2l.5-.5c.1-.1.1-.2.2-.2h0L340.3 268l46.6 116.4c.8 2.1 2.9 3.4 5 3.4.7 0 1.3-.1 2-.4 2.9-1.2 4.2-4.3 3.1-7.1zm-282.4 8.9h0zM125 380l64.7-78.9 40.5 96.1L125 380zm115.1 13l-41.5-98.4 130.5-29.2-89 127.6z" fill="#71b9ea"/><path xmlns="http://www.w3.org/2000/svg" d="M346.2 208.3s-20.9 3.5-22.9 13.1c-1.8 8.8 3.8 15.7 3.8 15.7l19.1-7v-21.8z" fill="#595959"/><linearGradient xmlns="http://www.w3.org/2000/svg" id="bt-E" gradientUnits="userSpaceOnUse" x1="330.026" y1="224.163" x2="358.282" y2="227.255"><stop offset="0" stop-color="#151e28" stop-opacity="0"/><stop offset=".998" stop-color="#151e28"/></linearGradient><path xmlns="http://www.w3.org/2000/svg" d="M333.6 212.3l8.8.7 3.5 17.2-17.3 6.3-.6-6.2c-.1-14.8 5.6-18 5.6-18z" fill="url(#bt-E)"/><linearGradient xmlns="http://www.w3.org/2000/svg" id="bt-F" gradientUnits="userSpaceOnUse" x1="160.355" y1="273.077" x2="186.092" y2="255.581"><stop offset=".131" stop-color="#093f5c" stop-opacity="0"/><stop offset="1" stop-color="#093f5c"/></linearGradient><path xmlns="http://www.w3.org/2000/svg" d="M156.4 276c6.8-.8 27.8-7 27.8-7h16.5a8.71 8.71 0 0 0 8.7-8.7 8.71 8.71 0 0 0-8.7-8.7h-44.3c-.5 0-1.1 0-1.7.1 3.5 3 6.8 7.6 3.1 13.1-2.9 4.2-7.5 6.2-11.8 7.2 2.5 3.1 7 4.4 10.4 4z" fill="url(#bt-F)"/><linearGradient xmlns="http://www.w3.org/2000/svg" id="bt-G" gradientUnits="userSpaceOnUse" x1="360.009" y1="311.901" x2="381.027" y2="306.494"><stop offset="0" stop-color="#4089c2" stop-opacity="0"/><stop offset=".891" stop-color="#247cde"/></linearGradient><path xmlns="http://www.w3.org/2000/svg" d="M338.1 233.3l58.9 147s2.2 4.9-3 7c-4.8 1.9-7-3-7-3l-54.1-149.1 5.2-1.9z" fill="url(#bt-G)"/><linearGradient xmlns="http://www.w3.org/2000/svg" id="bt-H" gradientUnits="userSpaceOnUse" x1="215.929" y1="353.095" x2="223.828" y2="350.446"><stop offset="0" stop-color="#4089c2" stop-opacity="0"/><stop offset=".891" stop-color="#247cde"/></linearGradient><path xmlns="http://www.w3.org/2000/svg" d="M198.9 294.5L243.7 402s2.3 4.8-2.9 7c-4.8 2-7-2.9-7-2.9l-40.1-109.6 5.2-2z" fill="url(#bt-H)"/><linearGradient xmlns="http://www.w3.org/2000/svg" id="bt-I" gradientUnits="userSpaceOnUse" x1="148.568" y1="340.476" x2="154.492" y2="346.025"><stop offset="0" stop-color="#4089c2" stop-opacity="0"/><stop offset=".891" stop-color="#247cde"/></linearGradient><path xmlns="http://www.w3.org/2000/svg" d="M189.5 300.6L119 387.1s-3.2 4.3-7.6.8c-4-3.2-.8-7.6-.8-7.6l76.6-85.9 2.3 6.2z" fill="url(#bt-I)"/><linearGradient xmlns="http://www.w3.org/2000/svg" id="bt-J" gradientUnits="userSpaceOnUse" x1="176.509" y1="381.898" x2="165.456" y2="407.984"><stop offset="0" stop-color="#52bcff"/><stop offset="1" stop-color="#247cde"/></linearGradient><path xmlns="http://www.w3.org/2000/svg" d="M231.9 408.1l-117.7-18.9s-5.3-.5-4.5-6.1c.7-5.1 6.1-4.5 6.1-4.5l114.4 18.9 1.7 10.6z" fill="url(#bt-J)"/><linearGradient xmlns="http://www.w3.org/2000/svg" id="bt-K" gradientUnits="userSpaceOnUse" x1="288.89" y1="333.295" x2="294.6" y2="337.403"><stop offset="0" stop-color="#4089c2" stop-opacity="0"/><stop offset=".891" stop-color="#247cde"/></linearGradient><path xmlns="http://www.w3.org/2000/svg" d="M340.4 267.9L244.2 406l-4.6-6.6L337.1 265c0-.1 3.9-1.7 3.3 2.9z" fill="url(#bt-K)"/><linearGradient xmlns="http://www.w3.org/2000/svg" id="bt-L" gradientUnits="userSpaceOnUse" x1="262.67" y1="274.77" x2="264.556" y2="283.218"><stop offset="0" stop-color="#4089c2" stop-opacity="0"/><stop offset=".891" stop-color="#247cde"/></linearGradient><path xmlns="http://www.w3.org/2000/svg" d="M198.7 294.6l130.4-29.2s3.2-5.2-6.6-3.4c-9.8 1.9-118.5 26.5-123.2 27.8s-.6 4.8-.6 4.8z" fill="url(#bt-L)"/><path xmlns="http://www.w3.org/2000/svg" d="M238.7 384.5c10.5 0 19 8.5 19 19s-8.5 19-19 19-19-8.5-19-19 8.6-19 19-19m0-4c-12.7 0-23 10.3-23 23s10.3 23 23 23 23-10.3 23-23-10.3-23-23-23h0z" fill="#333"/><path xmlns="http://www.w3.org/2000/svg" d="M212.2 429.8c-.5 0-1.1-.2-1.5-.7-.7-.8-.7-2.1.2-2.8l54.5-48.9c.8-.7 2.1-.7 2.8.2.7.8.7 2.1-.2 2.8l-54.5 48.9c-.3.3-.8.5-1.3.5z" fill="#595959"/><g xmlns="http://www.w3.org/2000/svg" fill="#283749"><path d="M226 432.4l-27.9-2.1c-2.8-.2-4.8-2.6-4.6-5.4h0c.2-2.8 2.6-4.8 5.4-4.6l27.9 2.1c2.8.2 4.8 2.6 4.6 5.4h0c-.2 2.7-2.6 4.8-5.4 4.6zm52.4-40.9l-26-10.3c-2.6-1-3.8-4-2.8-6.5h0c1-2.6 4-3.8 6.5-2.8l26 10.3c2.6 1 3.8 4 2.8 6.5h0c-1 2.6-3.9 3.8-6.5 2.8z"/><circle cx="238.7" cy="403.5" r="6.7"/></g><path xmlns="http://www.w3.org/2000/svg" d="M248 347.4l8.2-27.5 27.3 9.7-9.6 34.9z" fill="#ea9d7d"/><path xmlns="http://www.w3.org/2000/svg" d="M250.5 339.2c-.1-.1-.2-.3-.2-.5l5.6-16.6c.1-.2.3-.4.6-.3.2.1.4.3.3.6l-5.6 16.6c-.1.2-.3.4-.6.3 0-.1-.1-.1-.1-.1z" fill="#cc7a5e"/><linearGradient xmlns="http://www.w3.org/2000/svg" id="bt-M" gradientUnits="userSpaceOnUse" x1="263.417" y1="346.642" x2="266.226" y2="337.937"><stop offset="0" stop-color="#cc7a5e" stop-opacity="0"/><stop offset="1" stop-color="#aa5f4b"/></linearGradient><path xmlns="http://www.w3.org/2000/svg" d="M261.9 344.4c10.7 4.4 17.1 1.9 17.1 1.9l4-13.5-27.6-9.4-4.5 14.2c0 0 3.3 3.6 11 6.8z" fill="url(#bt-M)"/><g xmlns="http://www.w3.org/2000/svg" fill="#ad5c49"><path d="M252.6 336l-.3.9.8-.2zm10.4 2.3l.8.3-.2-1zm-9-3.7l.5 2.2 1.5-1.6zm10.9 4.2l.7.3v-.9zm-5.5-.9l.7-.2-.4-.5zm-6.2.4h.2l-1.3-1.1-.4 1.4 1.2-.2.3.8.7-.5zm2.4.7l1.1-.9-1.5-.3zm-2.3-1.9l1.1 1.4.4-1.6zm4.5 1.1h1.4l-1-1zm-1.7 1.9l1.1-.9-1.5-.2zm6.7-2.7l-1.3-.4.3 1.4zm-1.4-.5l-1.2-.3.3 1.4zm-1.5-.5l-1.2-.3.3 1.4zm-2.1-.5l-1.9-.1.4 1.9zm9.6 3.6l.4-.6-1-.1zm-4.9 1.2l.6-.7-1-.2z"/><path d="M259.3 340.1l1.3.1-.8-1.3zm-4.2-1.1l-1.3-.6v1.2zm-2.5-3.2h1.3l-.8-1.3z"/></g><path xmlns="http://www.w3.org/2000/svg" d="M306.8 238.4c-3.6-8-12-12.7-24.2-17.8-12.7-5.3-27.1-9.5-38.5-12.5h-90.7c-2.6 8.7-5.2 22.1-1.4 32.3 3.3 8.8 10.2 13.9 17 16 17.3 5.3 81 7.8 84.5 11 3.4 3.1 3 9.7 1.8 15.4-1.6 13.4-5.3 38.3-7.5 46.9-.4 1.5.5 3 2 3.4l33.2 9.8c1.6.5 3.3-.4 3.8-2 2.8-8.6 11.4-35.4 17.5-60.3 4.7-18.8 6.3-33.8 2.5-42.2z" fill="#451c1a"/><linearGradient xmlns="http://www.w3.org/2000/svg" id="bt-N" gradientUnits="userSpaceOnUse" x1="272.609" y1="284.004" x2="317.859" y2="310.285"><stop offset="0" stop-color="#341413" stop-opacity="0"/><stop offset="1" stop-color="#240f0e"/></linearGradient><path xmlns="http://www.w3.org/2000/svg" d="M283.2 343.1c1.7.5 3.4-.5 3.9-2.1l14.8-50.1c11.2-40.9 3.5-50.7 3.5-50.7s-13 15.4-25.5 32.5c-14 19.2-30.8 60.5-30.8 60.5l34.1 9.9z" fill="url(#bt-N)"/><linearGradient xmlns="http://www.w3.org/2000/svg" id="bt-O" gradientUnits="userSpaceOnUse" x1="203.79" y1="247.085" x2="195.892" y2="273.245"><stop offset="0" stop-color="#341413" stop-opacity="0"/><stop offset="1" stop-color="#240f0e"/></linearGradient><path xmlns="http://www.w3.org/2000/svg" d="M248.4 250.3c-20.1-3.8-60.4-10.2-73.6-14.8-13.2-4.7-24.1-12.2-24.1-12.2s-2.5 15.6 5.7 24.6 17.5 10.3 43.1 13l37.9 3.7 16.5 2.4c8 1.5 7.6-14.2-5.5-16.7z" fill="url(#bt-O)"/><g xmlns="http://www.w3.org/2000/svg" fill="#1e0700"><path d="M204.5 220l-1.7.8 1.4.9zm13.4-.6l.5-1.4-1.6.5zm1.4-5.2l1.4-.1-.8-1.4zm6.3-6l-1.8 2.9 2.9-1.3zm-6.6 8.4l.6-1.3-1.7.1zm-18.7 5l1.4 1.4.7-1.6zm-17.8 4.4l.7-1.5-2.1.1zm32.6-10.6v-.4l-.7.4.2-.9.1.5.7-.6-.8-.3.1-1-.4.1-.3-.2-.1.4-.7.1.4-1.2-1.5.6.9.7-1.3.4 2.7 1.8v-.3l.2.1 1 1 .5-1.3zm-3.4.9l-1.6.1 1.1 1.1zm-7.8 16.9l1 .2-.3-1.1zm-.2-6.1l.1.8.8-.4zm6.8 4.9l.2-.9-.8.2zm-18.7.7l1 .2-.3-1zm.7-5.7l-.9-.3.1.7zm5.9 4.6l.2-.9-.8.2zm-3.9-1.3l1 .1-.3-1zm-.2-6.1v.8l.9-.4zm6.8 4.9l.2-.9-.8.2zm2.7-4.2l1.8-.9-1-.4.3-.2-1.1-.4.1.3-.2-.1zm3.8 2.2l.2-.9-.8.3zm16.7-7.4l1 .2-.3-1zm8.9-8l.9.2-.2-1zm-13.6 12.4l1 .2-.3-1zm4.5-10.5l.1.8.8-.4zm6.8 4.9l.2-.9-.8.3zm-9.4-2.9l.2-.9-.8.3zm6.5-1.9l.2-.9-.8.2zm-27.6 9.5h-1.1l.6.9zm-1.6-2.6l.7.5.1-.9zm3.1 4.1l1.4.1-.5-1.3zm10.1-.2l.7-.7-1-.4zm-4.6-4l-.8.5.7.4zm6.7-2.6l-.3.7h.9zm-.8.8l.4-1.5-1.5.6zm2.2-3.7l1.5-.5-1.3-.9zm.5 2.1l.4.9.6-.6zm-.9 3.7l.1-.9-.8.5zm-8.5-3.6l-.2.5-.1-.1-.3.7h.9l-.2-.3h.3zm4.5 2l-.1-.9-.7.7zm-7.4-1l.3-1.5.2.2.3-1.8-1.7.9 1 .6-1.5.7zm2.5-4.8l-2.3 1.2 1.9 1.1zm-15.2 8.2l-.3 1.8 2.1-.5zm8.1 3.2l.7-.6-1-.4zm-4.6-3.8l-.8.5.7.4zm6.4-1.8l.9-.1-.6-.7zm-23.9-4.6l.9-.1-.6-.7zm31 10l.6-.4-.8-.4zm2.2 1.9l1.1-.9-1.4-.6zm-4.5-1.2l.6-.5-.9-.3zm-5.6.3l-.3.6h.8zm-35.7 8.1l1 .2-.2-1zm-3.1-.7l1 .2-.2-1zm3-4.6l.8-.4-.8-.4zm6.7 4.1l.2-.9-.8.3zm-6.8-8.8l.1 1.7 1.8-.8zm-9.9-10v1.7l1.8-.9zm-.3 3.3l1.2.3-.3-1.4zm.7-6l-.7 2.5 2.3-.5zm13.5 16.7l.1-.9-.8.2zm-7.3-3.9l-1.1-.1.6.9zm1.9.7l.3 1 .8-.6zm-4.3-1.9l.1-.9-.8.5zm4.1.4l-.8 1.2 1.3.1zm5.7 1.3l.2.9.6-.5z"/><path d="M171.8 226.2l-1.4-.7.4 1.5zm-5.6-.3l.6-.6-.9-.3zm-5.9.9l.8-.1-.5-.5zm21.7 6l1 .2-.2-1zm-.1-6v.7l.8-.4zm6.9 4l-.8.2.6.6zm-16.2-.9l.9.2-.2-1zm6.8-2l-.8.2.6.6zm4.3-4.2l-1.9-.8.1 1.6zm-15.1-1.7l.1 1.6 1.8-.8zm17.3 3.9l-.8.2.6.7zm-7.4-3h-1.2l.7.8zm3.5 14.7l.7-.6-1-.4zm-4.7-3l.2-.8-.9.4zm6.5-2.7h1l-.7-.7zm2.3-7.6l.6-.5-.8-.3zm1.9.3l.3 1.5 1.1-.8zm-4.5-.5l.3.9.6-.5zm-5.4 1.2l-.2.6.8-.1zm-11.6-3.2l1 1 .6-1.5zm5.9 1.8l.1.7.8-.4-.8-.4.3-.9-2.4.7 1.6 1.4zm24.3-1.8l1.5.2-.5-1.5zm-7.4 8.8l.2-1.3-1.2.4zm-12.9-7.1h-1.7l1.1 1.3zm15.3-5.2l1.4 1.8.8-1.8zm-7.7 11.2l1.3-.7-1.4-.5zm-14.8 2.2l1.1-.9-1.5-.3zm13.1-10.1l-.8-.7.5-.1-2.1-1.3-.3 2 .6-.1-.2.5zm3.9 6.4l.9-.8-1.4-.5zm-9-2.1l-1.9 1.1 1.6.9zm9.6-5.2l-.1 2 1.7-.7zm-1.5 1.1l-2 .7 1.9 1zm7.6-1.9l-2 .8 1.9 1zm-33.4 2.1l1.8-1.1-1.6-.8zm-2-1.6l1.8-1.1-1.6-.9zm37.3-1.2l-.5-.2v.8l.4-.2v.7l1.8-1.1-1.7-.9zm12.6-2.2l-.2 1.9.6-.3.2.8.6-.5-.8-.4 1.2-.7zm-2.3 3.7l-.1 1.2 1.1-.7zm7.7-5.8v.5l-.1-.1.1.4-.1.5.2-.1.1.7 1.1-.8-.6-.3.4-.2zm-34.2 8.6l-.1 1.3 1.2-.8zm-16.1-3.5h-.1.3l.3.2v-.1h.1v.2l-1.2.7 1.6.8.2-1.7v-.2l.2-.1-.3-.1.7-.5v1l1.1-.5.3.1-.9.5.9.5-1.7.6 1.9 1v-1.4l1.1.6.3-2.8-.9.5-.3-.8-.4.7h-.1l-.3-.4-.1.2-.3-.2.3-.1-2.4-.8.1.5-1.5.9zm-2.3-.5v-.2l.1.2.2-.5.4.7 1.7-2.2-2.4.1v-.1l-.1.1h-.5l.1.2-1.3.8 1.8.9zm.3-.9h-.1v-.1l.1.1zm-4.1-1.7l1.6.9.1-.6.1.1-.1.4 2.8-.4-.7-.6.4-.2.1.3 1-.6-.4-.1-1.6-.9-.1.9-.5-.4-.7-.7.9-.6-1.6-.8-.1.6-1.5-1.6.2 3.5 2.3-.3-.2.9-.3.1.1-.9zm20.1 3.1l-.8 1.8 1.8-.1zm-2.4-.8l1 .6.1.1 1.1.5.3-2.7zm46.6-8.4l-2.1.6 1.9 1.3.1-1 1.1.8.4-1.4-1.5.5zm2.7 1l.2-2-2.2.7zm-27.1 7.1l1.9 1.1.2-2.4zm-18.7 10l-.3.9 1.2-.2zm14.4.9l1.1-.9-1.5-.5zm-6.3-5.5l-1.2.6 1 .6zm9.1-2.5l1.3-.1-.9-.9zm24.7-13.9h-1.9l1 2.2zm-1.4 4.9l-.3-.2v.3l-.2.1.1-1.2-1 .2-.8-.2.2.4-.5.2 1.2.9h-.1l1.1.9-.1.2 1.6-.7-1.1-.8.1-.2zm1.1-3.8h.4l1 .8.5-1.5-.7.3-.7-.7zm.3 1.1l-1.7.1 1.1 1.1zm-18.8 6.3h0-.4l.5.4v.6l.3-.2.6.6.7-1.5zm-19.6 3l1.3 1.4.2 1.8 1.9-1v-.1l1.2-.5-1.6-1.3v1.7l-1.5-.6.6-1.5zm35-9.2l-1.6.1 1 1.1zm-21.6 14.9l1 .2-.3-1zm6.6-1.2l.2-.9-.8.3zm3.5-5.5l.3-.2-1.1-.4.1.3-.2-.1.1.5-1.5-.7-.2 1.9 1.7-1v1l1.8-.8zm-5.3-.4l.6.9.5-.8zm.2-2.1l.1-.9-.8.5z"/><path d="M211.9 219.5l.8-.7-1.1-.4zm-4.5-3.8l-.8.4.7.4zm-.9-3.4l-.2.4h-.1l-.3.7.9-.1-.2-.2h.3zm3.7 1.7l.8.3-.1-.9zm-8-1.6l1.5.9v-.4l.8.8.7-1.6-1.4.1.1-.7zm-.9 1.2l-2.2 1.2 1.8 1.1zm-3.6 2.3l.7-.2-1.5-1 2.7-.6-2.2-1.6-.5 2.2-1.6-1-.2 1.1-1.5.9 1.3.7v.3l.4-.1.3.1v-.2l1.4-.4-.4 1.7 2.8-.7zm12.4 5l-.6.3 1 .8v-.8l.8-.6-1.4-.6zm-4.4-.5l.6-.4-.9-.4zm-39.8-5.5l-.6-.6-.3.7zm2.6 5.4l.2-.1.8.4.4-2.7-2.6 1.5 1.2.6zm4.8 3.9l-.7.9h.3l-.7.2 1.4 1 .3-1.4-.4.1zm5.3-1l.6.6.1-.3 1.2.7v-1.8l-1.8.8zm-.1-5.2h-1.2l.7.8zm7.6 1.4l.6-.5-.8-.3zm2.7.8v-.3l-.2.1-.6-.2.1.5-1.1.6 1.6.9.1-.8.7-.6zm-5.3-.9l.3.8.6-.5zm-5.4 1.1l-.2.6.8-.1zm-10-3.7l-1.6.5 1 1zm-5.3-3.4l.1.6-1.5.9 1.6.8.1-.5v.2h.2l.1-.1 1.8-1.1zm7.6 5.4l1.6 1.5.4-1.2.1.8.8-.4-.8-.4.3-1zm19.5-2.3l-1.6 2.3 2.5.3zm-16 3.7l-1.7.3.7.5-1 .4.1-.4-1.6.3v-.8l-1 .4.9.8.1-.3 1.3 1 .2-.9 1.5 1.4.8-2.3-.5.2zm-10.2-4.8l-1.8 1.1 1.6.9zm24.9 1.6l.2-1.9-1.8 1zm-1.9 1.3l1.7-.8-1.6-1.3zm-6.2-.6l-1.9.7 1.9 1zm-14.6.3v-1.5l1.1.6.3-2.3 1.5-.8-1.9-.8.1 1.3-2.2 1.3.9.5-1.7.7zm27.8.6l1.7-1.1-1.6-.8zm20.1-7.7l-1.1-.6-.1 1.3zm-35.2 8.1l-.1 1.3 1.2-.7zm-22.2-6.5l1.6.9.2-1.6h.3l-.3-.3v-.1h-.1l-2.6-2.7.1 3.5 1.7-.2z"/><path d="M225.3 208.2h-4.1l1.2 2.1zm4 5.9l1.4-.1-.8-1.3zm-.2 2.4l.5-1.2-1.6.1zm-3.5-4.1l.6-1.2-1.7.1zm7-1.8l.6-1.3-1.7.1zm-3.1-2.4h-1.9l1.1 2.1zm-.2 1h.4l1 .9.4-1.5-.7.3-.6-.7zm.2 1.1l-1.6.1 1.1 1.2zm-42.4 9.9l1-.9-1.4-.6zm2-10l-.3-1.6-1.1 1.2zm20.7-2h-3.7l2.1 1.8zm-7.4 2.7l-.8.4.6.4zm13.1-1.1v.3l1.5-.5-.7-.4.4-.3-.2.4.9-.1-.4-.5.6-.5-2.7.1.2 1.9zm-36.4-.2l-.6 1.2 1.6.1zm38.8 1l-.8.4.8.4zm-16-.2l1.8 1.1.3-1.7.6-.1-.5-.4v-.1.1-.1l.6-.9-3.1.1 1.4 1.4zm-8.5 3.7l2.2-.5-1.8-1.3zm8.1.4l.3 1 .8-.6-.2-.1.3-.1.1-.1 1-.6-1.6-.9-.1.8h-.1l.1.1v.7zm-5-2.4l.6.5.2-.9zm14.8 2.6l-.8-.4.2.9zm-30-1.1h-1.1l.7.9zm8.3 1l-.8-.4.1.9zm-23-3.7l-1.8 1.1 1.6.9zm16.8 2.3l-2 .7 1.9 1z"/><path d="M205.6 211.3l.8-.5.2.1-1.1.5 1.4.9.1-1.1.8.5-.1.8-.4-.2-.1 1.5-.7-.3.1.3h-.2l.1 1.7 1.6-.8-.3 2.1 3.3-1-2.9-1.8-.1.5-.8-.3 1.2-.8.9.9.5-1.2h-1l-1-.5.7-.3 1.1.7.2-1 .1.1.1-.5 1 1 .5-1.2-1.5.1.1-.3-.3.2.2-1.1 2.1 1.4.2-2.1 2 1.4.3-2.7-2.7.7.5-.8-2.7.1.8 1.3-.5.1v-.1l-3.4 1h.1l-1.1-.6.9-.5-1.7-.9-.1 2 .9-.6zm-44.1-1.7l1.6.9v-.1l1 .9.4-.7 1.3.7.1-.7v.4l1.5-.9.7 1-.5.3.9.5-1.6.6 1.8 1 .1-1.5 1.1.6.3-2.7-.5.2 1.6-1.7-5.2.1.7.8-1.1-.4v.6l-.9.6.9-1.6h-4.8l1 .9zm-1.7 2.1l-1-.9-.7 2.3 2.5-.4.1.1-.1.1h-.2v-.1l-.1.1h-.5l.1.2-1.3.8 1.6.9.1-1 .8 1.2 1.7-2.2h-.1l.6-.4.5-.1-.2-.1.4-.2.2.9 1-.7-1.1-.3-1.6-.8v.2l-.8-.7.4-.3-1.6-.8-.2 1.9-.5.3zm1 1.1h0zm1.2.1l.4-.3v.2l-.4.1zm.4-.2h-.1.1zm-1.5 0h0l.1-1.7.5-.3-.6 2zm17.6.2l1.8-.2-1-1.6z"/><path d="M171.1 209.4l.8 2.7-.6.4.3-1-1.6.5.8.7-1.4.8 1 .6-2.2-.4 1 3.4 1.3-1 .6.4.6.5.1-.8.5.4v.5l1.1-.5.7.7.2-.6.2.2v-.1l1.7.9.2-1.8.2.2-.2.6 1.8-.2-.8-1.3v-.1h-.1l-.1-.2-.1.3-.6.1v-.2l1.4-.4-1.7-1 .2-.6-.8.2-.7-.4-.1.6-1 .3.8.8-.1.6-1.9.6-.1-.1.1-.3-.4.1h-.1l-1 .2.8-.6v.3l.6-.5-.8-.4v.2h-.2l.2-2.1.1.5 1.9-1.5 1.3 1 .2-.9 1.5 1.4.2-.6 1.9 1.1.3-2.7-1.2.7 1.7-3.2 1.5 1.8.7-.8-.6 1.4h-1.1l1.3 2.5 1.9-2.2.4.1-.5 1.5.8-.1-.2.2 1.2.3v.3h-.1l.1 1.7.5-.2.1.2-.9.1-.2-.2v.2h-.2l.1.2v.7l-1.7-1 .1-.1-1-.6-.1 1.3.7-.5-.2 1.3-1.4-1.2.1-.8-.7.4.1-.9-2.5 1.5 2.2 1.2.1-1.2.5.3-.5 1.5 1.9-.3v.6h.1v.4h-.1l.1 1.7 1.8-.8-.7-.3.7-.4 1.5.8.1-1.7-1.7.7-1.2-.5h.1v.1l1.6-.5v.2l1.1-.5.2.2.1-.3.2-.1-.1-.1.1-.2.5.9 1.5-2.2-2 .1.9-.4-.7-.3.7-.4 1.5.8.1-1.7-1.7.7-1.2-.5 1.7-.5v.2l1.7-.8-1.6-1.3v1.1l-1.9-1.2.9-1.2-1.6.1.4-.8-2.3-.1 1.4 1.9.5-.9.6 1-.2 1.7-.1-.1-.1-.3-.1.1-.8-.7-.2-1.2-1 1h-.1l-.8-1.7 1.3-1.3-3.5.1h-4.6l-3.3.1 1.6 2.2-2.3-1.3zm4.8 5.8h0l-1.2.7v-.4l.1-.2 1.6-.5-.5.4zm-4.6.8v-.2l.2.1-.2.1zm0-.3l-.6.3.5-.4.1.1zm6.1-4.1l.1-.3.1.2-.2.1zm-2.1-3.5l1.9 2.6-1.6.5.1-.4-1.5.3 1.2-.9-1.1-.2 1-1.9zm15.6 2.1l.3.4-.8.5-.2-.2-.2.4-.2.1.1.1-.1.3-.3-.2-.1 2 1.7-.8-1.1-.9h.6l.8.5.1-1.2.9 1.1-1.4 2 2 .2h-1.2l.7.8-.9.4h-.1l.2-.1-2.1-1.3-.2 2.1 1.5-.5v.1l.1.7-.1-.1-.4 1.8 2.2-.5-1.6-1.2.5-.4 1.1.6.1-1.4.5.6.8-1.7h-.6l-.6-1.5.7-1.3 1.8 1 .1-1.4.5.6.8-1.7h-1.2l1-1.6 1.2 2.2-.2 1.6 2.1-.6-.3 1.7 2.8-.7-1.7-1.2.5.3.1-.5.2-.1-.1-.1.3-2.8-1.1.3.2-.4h-3.7v-.1l-3.9.7.3-.7h-4.1l1.8 2-.1.1zm3.4.5l.4.5-.8.3.4-.8zm1.2.1l-.2.1.2-.1zm-2.5-1.6l.5.6-.8.2.3-.8z"/><path d="M187.9 210.5l1.1 2.1 1.5-2.2zm-27.8-1.9l-4.5-.1 2.8 2.3zm28.2-.3h-3.7l1.8 2.1zM164 235.8l1.3.3-.4-1.3zm-.6-7.6l.1.9 1-.5zm9 5.8l.1-1.1-1 .3zm6 5.2l1.3.2-.4-1.3zm-.6-7.7l.1 1 1-.5zm-20.4-5.1l.9.2-.2-1.1zm-3.2-5.2l1 .2-.3-1zm3.1 9.9l.8-.6-1-.4zm-4.6-2.9l.1-.9-.8.4zm6.5-2.7l.9-.1-.6-.7zm-3.5 0l.9-.1-.6-.6zm-1.9 7.3l1.2.2-.3-1.3zm-.6-7.7l.1.9 1-.5zm33.5 12.2l.2-1.1-1 .4zm.8-2.1l1.5.2-.4-1.5zm-.6-8.1l1.2-.6-1.3-.6zm10.6 5.8l.2-1.3-1.2.4zm30.8 19.7l.3-.9.9.7zm5.6 2.8l-1.4-.7 1.5-1.1zm-24.7 6.6l-1.8-.2 1.1-1.8zm6.3.6l-1.8-.2 1.1-1.7zm19.7 1l-1.9-.2 1.2-1.8z"/><path d="M234 264.1l-1.5-.2 1-1.5zm-32.4-2.9l-1.8-.2 1.1-1.9zm8.7-5.6l-1.5-.9 1.8-1.2zm10.3 4.7l-1.5-.9 1.6-1.2zm4.5-.5l-1.6-.8 1.7-1.3zm13 4.8l-1.4-.7 1.4-1.1zm-12.7-1.8l-.1-1.8 1.9.6zm-23.7-7.1v-1.9l1.9.8zm-6.8 4.6l-.1-1.8 1.9.7zm-3.1-5.3l-.1-1.8 1.9.7zm10.5-12.2l-.1-1.9 1.9.6zm9.6 10.8l-.1-1.8 1.9.6zm4.3 2.3l-.2-1.8 2 .6zm-26.6 3.8v-1.9l1.9.7zm-10.9-1.7l-.1-1.5 1.7.6zm5-4.8l-.1-1.5 1.6.6z"/><path d="M175.5 257.7v-1.5l1.6.7zm54.3 6.1l-.1-1.5 1.6.5zm1.9-1.8l-.1-1.5 1.6.5zm21.9 4.1l.1-1.5 1.6.7zm.9 1.6l1.1-1.1.6 1.6zm-4.5-1.6l-1.5-.1.9-1.5zm.3-6.3l-.9-.1.5-.9zm-.6 2.9l-.9-.1.5-.9zm1-1.5l-.5.8-.6-.8zm1.5 3.9l-.4.7-.6-.8zm-24.9-2.1l-1.4-.7 1.4-1.1zm.4-4.5l-1.6-.8 1.7-1.3zm19 7.3l-1.4-.7 1.5-1.1zm-12.9-18.5l-.6.6-.4-.9zm-7.7 12.4l1.1-.7.1 1.4zm2.5 1.9l-.3-1 1.2.2z"/><path d="M235.5 259.7h-1.1l.5-1.1zm.2-17.8l.2-.8.7.6zm4.4 2.3l-.6-.3.7-.4zm-.3-6.5l-.5.5-.3-.7zm4.5 27.4l-.2-1.1 1.3.2zm7.7.3h-1l.5-1zm-4.8-8.3l-.3.9-.9-.7zm-49.4-2.2l-.1-1.2 1.3.4zm8.2.9l-1.1-.1.7-1.1zm-4.3-9.4l-.4 1-.8-.9zm8.8 9.3l.4-1.2 1.1.9zm-13 1.7l.4-1.3 1 1zm15.4-.3l.4-1.3 1.1 1zm7.3 5l-.9-.4 1-.8zm-2.7-.6l-1-.5 1-.8zm2.1-9.8l-.7.8-.4-1.1zm-7.8 6.3l-.8.7-.4-1.1zm1.2 3.2l-.8.8-.4-1.1zm-6.1-17.7l1.2-.1-.4 1.4zm-1.4 8.3l.2-1 1 .6zm9.6-4.7l-1-.4.9-.8zm-9.6 10.5l1.3-.1-.6 1.4zm-3 .3l1.2-.1-.6 1.3zm-16.8.4l1.3-.1-.6 1.4zm17.2 1.6l1.2-1.5.9 1.9zm-12.7-8.2l.4-2.3 2.1 1.4zm-30.6-1.2l2.3-.4-.5 2.4zM196 248l-1-.4.9-.8zm-14.1 3.6l.4.9-1.2-.1zm12.9 3.5l1-.1-.4 1.2zm-5.7 3.6l.3 1h-1.2zm9.8-.4l.4 1-1.2-.1z"/><path d="M209.9 249.3l.8-.1-.3.9zm-.9 5.3l.2-.7.6.4zm6.2-3l-.6-.3.5-.5zm10.1 2l-.5.7-.4-.8zm-3.3-4l.4.5-.7.2zm-2.1 6.5l.6-.3v.8zm16.2-5.7l-.5.7-.4-.8zm-3.3-4l.4.5-.7.2zm-2.1 6.5l.6-.3v.8zm6 7.9l-.5.7-.5-.9zm-3.3-4l.4.5-.8.2zm-2.2 6.5l.7-.3-.1.7zm12.8-.9l-.4.5-.4-.6zm-2.9-3.3l.4.4-.7.2zm-1.7 5.2l.5-.2v.6zm-10.6-25.7v.9l-.9-.3zm-9.1 2.4l.7.1-.4.6zm4.8 6.1l.3-.6.5.6zm-17.3-9.3l.4-.5.3.6zm6.3 4.6l-.4-.5.7-.2zm-25.2 5.8l.8.9-1.4.5zm-7.5 4l1-.5v1.2zm8.9 5l-.1-1 1.1.2zm16.5-5.8l.8.9-1.4.4zm-7.4 4l.9-.5v1.2zm8.9 5l-.2-1.1 1.2.2zm-28.5-8.6l.2 1-1.2-.3zm-1.5 2.8l.1 1.1-1.1-.4zm-4.2 1l.9.1-.5.8zm14.6.5l-.2-.9 1 .2zm7.8-5.9l.7.7-1.1.5zm3.2-2.3l1.2 1.3-1.9.8z"/><path d="M193.1 249l.7.8-1.2.3zm2.4 1.6l.7.7-1.2.4zm-15.6.1l1.6-.8.1 2zm-10.6 4.8l1.7-.8v2zm5.4-2.8l1.6-.8.1 2zm-1.4 2.1l1.6-.8.1 2zm7.8 1.2l1.7-.8.1 2zm1.2-6.2l-.2-.6.8.1z"/><path d="M200.5 244.1l1 .9-1.6.6zm-8.2 5l1.1-.6.1 1.3zm10.5 5l-.3-1.2 1.3.2zm25.8 5.4l-.7-1 1.4-.4zm7.6-3.7l-.9.5v-1.2zm-8.6-5.4l.1 1.1-1.1-.3zm-3 13l-1.9-.2 1-2zm-5.5-.5l-1.8-.1.9-2zm9.6.9l-1.9-.2 1-2zm2.5-4.5l-1 .5v-1.2zm-8.7-5.4l.1 1.1-1.1-.3zm1.9 1.4l1.1.6-1.1.9zm-5.6 6.5l.7-.8.5 1.1zm10.4 1.1l-.6-.8 1.2-.2z"/><path d="M230.1 262.9l-.8-1 1.4-.4zm7.7-3.5l-1 .4v-1.2zm-9-5.4l.2 1-1.2-.3zm1.7 4.2l.4-1.2 1.1.9zm7.5 3.8l-1-.5 1-.7zm-.9-10.2l-.7.7-.5-1.1zm.9 6l.2-1 1 .7zm6.1 3.1l-.7-.4.8-.6zm-.7-8.5l-.6.6-.4-.9zm-6.6 10.6l.1-1 1.1.5zm6.8 1.9l-.9-.2.7-.7zm-2.4-8.2l-.5.8-.5-.9zm-5.5 7.7l-.8-1 1.4-.3zm7.7-3.5l-1 .4v-1.1zm-9-5.4l.2 1-1.2-.2zm-11.9 5.3l-.7-1 1.4-.3z"/><path d="M213 258.6l-.7-1 1.4-.3zm17.5 4.2l-.7-1 1.5-.3zm13.5.6l-1.2-.1.8-1.3zm-42.5-8.7l-1.3-.1.8-1.2zm28.7 2.9l-.9.5.1-1.3zm-8.2-5.9l.1 1-1.1-.3zm-51 .6l-.1-1.5 1.7.6zm-7.6-.1l-.1-1.1 1.1.4zm7 .8l-.9-.1.6-.9zm-3.8-7.7l-.4.8-.7-.7zm.2-3.7l1.1-.1-.4 1.1zm-1 6.7l.1-.9.9.6zm8.1-3.7l-.8-.3.7-.7zm1.5-2l1-.1-.3 1.1zm-1 6.7l.1-.9.9.6zm8.1-3.7l-.8-.3.7-.7zm5.3 11.1l-.8-1 1.4-.4zm-9.6-1.1l-.9-.9 1.4-.5zm17.9 2l-.8-.9 1.3-.4zm13.5-1l-1.3.1.6-1.4zm-43.4-3.5h-1.3l.6-1.3zm29-.5l-1 .5v-1.2zm-9-4.9l.2 1-1.2-.2zm53.2 16l.4-2.7 2.7 1.6z"/><path d="M213.1 260.1l.4-2.7 2.7 1.6zm-29.5-3.5l2.7-.8-.4 3zm9.6 1.7l.4-2.6 2.7 1.6zm-26-2.7l.4-2.7 2.7 1.7zM274.4 340l-.3-1.2 1 .2zm14.5-11.3l2-.2-.5 1.7zm-1.8 3.6l2.1-.2-.5 1.7zm2.9-13.7l1.8-1.1.3 1.8zm-7.7 6.4l1.7-1.1.3 1.8zm.4 11.4l1.9-1 .1 1.8z"/><path d="M284.2 337.9l1.8 1-1.3 1.2zm-.3-4.6l1.9 1-1.3 1.2zm-2.6 6.6l1.8-1 .2 1.8zm1.8 2.9l1.7-1.4.4 2zm2.8-23.8l.1-2 1.6.8zm7-3.8v-2.1l1.7.8zm-4.3-5.1V308l1.7.8zm-8.5 17.4l.2-2.1 1.6.9zm.5 4.8l.2-2 1.6.9zm14-22.4l.1-2.1 1.6.9zm2.6-10.1l.1-1.8 1.3.7zm1 4.3l-1.3-2.1 2.1-.7zm-8.3-2.9l.1-1.8 1.3.7zm7 .7v-1.8l1.4.7zm-16.6 34.3l1.5-.9.1 1.6zm-1.5 5.4l1.7-1.1.4 1.8z"/><path d="M282.8 342.8l-1.4-.5.9-.9zm-2.6-3.2l.3-1.2.8.7zm3.4-12.5l-.5-1.3 1.2.1zm6.2-10.8l-.5-1.3 1.3.1zm-5.9 13.6l-.5-1.3 1.3.1zm1.5 7.2l1.1-.6.1 1.1zm.4-2.8l1.1-.6.1 1zm-8.8-2.9l.9.8-1 .3zm9.3-4.7l.9.9-1 .4zm2.5-3.4h-1.4l.5-1.2zm1.4-2.7h-1.4l.5-1.2zm6.7-15.6l-1.5.8.5-1.1z"/><path d="M292 325.4l-1.4-1.7 1.9-.5zm1-3.5l-1.3-1.7 1.9-.4zm-6.9 5.2l.8-2 1.3 1.5zm.9-5.3l.7-2.1 1.3 1.5zm-5.2 17.5l.7-2.1 1.3 1.5zm-1-30.7l1.1-.4v1zm11.3-11.7l-.6 1.1-.6-.8zm-2.1 15.7h-1.2l.5-1zm7.2-5l-.4 1.1-.8-.8zm-5.1 8.8l-.5 1.2-.7-.8zm4.8-11.5l-.8-1.1 1.1-.2zm-19.1 32.5l.5.8-.8.1zm-1.9-3.8l-.5.6-.3-.6zm6.1 1.5l-.7-.3.6-.4zM268.5 316l-.5-.7.7-.1zm1.4 7l.5-.6.3.6z"/><path d="M284 320l-1 1-.5-1.1zm5.4-3.8l-1.1-.6.8-.6zm-.5 9.6l.2-1.1.9.6zm4.6-31.3l-.3 1.1-.9-.6zm3.6.7l-.3 1.2-.8-.7zm2.3-1.8h-1l.4-.8zm-2.4 10.3l-.4-.9.9.1zm-5.3 2.6l.2-.9.7.5zm-6.2 4.4l-.7.8-.4-.9zm1 12.1l-1.5 1.4-.6-1.7z"/><path d="M285.1 307l-.7.9-.5-.9zm1 3.4l-.8.9-.4-1zm5.3-13.3l-1.7-1.1 1.5-1zm10.1-5.7l-1.1-1.7 1.8-.3zm-.4 2.1l-1.2-1.7 1.8-.3zm-5.5.2l-1.7-1.2 1.5-1zm8.1-14l-1.9-.6 1.2-1.4zm.2-6.5l.3-1.4 1.4.9zm-6 17.7l.9-1.9 1.1 1.5zm5.7-15.6l2-.3-.5 1.8zm-5.2 18.8l-1.7-1.1 1.5-1zm-2.8 7.4l-1.8-.9 1.4-1.1zm-21.9 30.9l-1.3.6-.1-1.2zm6.4-1.8l-.8-.9 1-.3zm-3.9 8.9l.7-1 .6.9zm26.9-53.9l-.4 1-.6-.8zm-17.8 46.8l-.4-3.1 2.6.8zm1.1 10.7l-1.6-2.6 2.6-.6z"/><path d="M287.4 340l-1.8-2.6 2.6-.6zm1-3.3l-1.8-2.5 2.6-.6zm-1.8-4.1l.7-3.1 2.1 1.8zm3.2-8.8l.8-3.1 2.1 1.8zm1.2-4.2l.7-3.1 2.1 1.7zm-.1 8.9l-1.7-2.7 2.7-.4zm5.4-23.5l-2.9-.9 1.8-2.1zm-4.8 8.7l-.4-3.2 2.6.9z"/><path d="M300.3 289.2l-.3-3.2 2.6 1zm2.9-4.7l-1.4-1.9 2-.5zm-2.8 1.1l-.2-2.4 2 .7zm-10 44.5l-.8 2.1-1.4-1.5zm-.4-3.1l-.9 2.2-1.3-1.5zm2.3-12.8l2-.3-.5 1.8zm-.9 3.7l2-.3-.5 1.8zm1.5-9.2l-1.5-.1.6-1.1z"/><path d="M293.9 305.9l-1.4-.1.5-1.1zm2.2 5.5l-1.3-1.8 2-.5zm1.4-4.6l-1.3-1.8 1.9-.4zm-6.8.3l.7-2.2 1.3 1.6zm-2.2-2.1l-1 1-.5-1.1zm5.3-3.8l-1-.6.8-.6zm-.7 9.8l.3-1.2.8.7zm-2.2 7.2l.7-3.1 2 1.7zm3.6-9.2l.7-3.2 1.8 1.6zm.6 5.9l-1.7-2.8 2.6-.4zm4.4-15.8l-1.7-2.8 2.7-.4z"/><path d="M298.8 301.5l-1.3-2.2 2.1-.3zm1.6-5.6l-1.3-2.1 2.1-.4zm-5.5 19.3l-.7 2.6-1.4-1.6zm-.4-2.9l-.8 2.1-1.3-1.5zm-22.9 18.9l.4-.9.6.7zm-3 3.6l.8.2-.5.6zm-1.2-6.9v.9l-.6-.3zm4.1 10.6l-.5-.8.8-.2z"/></g><circle xmlns="http://www.w3.org/2000/svg" cx="348.8" cy="219.3" r="11.6" fill="#283749"/><circle xmlns="http://www.w3.org/2000/svg" cx="348.8" cy="219.3" r="6.2" fill="#3aaaa7"/><g xmlns="http://www.w3.org/2000/svg" fill="#fed6d6"><path d="M304.4 389.2c.3-.7.5-1.6.7-2.5L242 360.8l-1 2.8c-.4 1.3.4 2.8 1.7 3.4l58.1 23.8c1.4.6 3-.1 3.6-1.6z"/><path d="M305.4 385.6c.4-3.2-4.5-10.7-8.5-14.5-.3-.4-.7-.7-1.2-1.2l-7.3 9.9 16.7 6.9c.1-.3.2-.7.3-1.1z"/></g><path xmlns="http://www.w3.org/2000/svg" d="M290 363.2l-5.8 4.8c-.5.4-1.1.4-1.5.1-.2-.1-.3-.2-.3-.4-.4-.6-.2-1.3.3-1.7l5.8-4.8-1.8-2.2-7.1 4.7a1.36 1.36 0 0 1-1.5 0c-.2-.1-.2-.2-.4-.4-.4-.6-.1-1.4.5-1.8l6.9-4.6-1.4-1.9 1.5-15.8s-2.4-2.3-4.8 1.5c-1.3 2.1-2.2 4.4-2.2 4.4l-27-6c-.9-.2-1.9.3-2.3 1.2-.9 2.2-2.7 6.7-4.4 12.7-.5 1.8-1.8 6-2.3 7.6l46.2 19.1 7.3-9.9c-1.6-1.6-3.7-4.1-5.7-6.6z" fill="#ad203a"/><path xmlns="http://www.w3.org/2000/svg" d="M277.8 363.2a1.38 1.38 0 0 1 .3.4c.4.3.9.3 1.5 0l7.1-4.7c-.5-.7-1.1-1.4-1.6-2l-6.9 4.6c-.6.4-.8 1.2-.4 1.7zm4.6 4.6c.1.1.2.1.2.2.4.3 1.1.3 1.5-.1l5.8-4.8c-.5-.7-1.1-1.4-1.6-2l-5.9 4.9c-.3.5-.4 1.3 0 1.8z" fill="#fff8f8"/><path xmlns="http://www.w3.org/2000/svg" d="M254.6 361.2c3.1.6 6.2-1.4 6.9-4.6.6-3.1-1.4-6.2-4.6-6.9-3.1-.6-6.2 1.4-6.9 4.6-.5 3.2 1.5 6.3 4.6 6.9z" fill="#fed5d5"/><path xmlns="http://www.w3.org/2000/svg" d="M272.3 343.9l2.7 15.5 1.7.5 1.4-14.9-5.8-1.1z" fill="#92142c"/><path xmlns="http://www.w3.org/2000/svg" d="M274.5 357c.1.1.1.3.2.4.3.4.9.6 1.4.4l7.8-2.4c-.4-.6-.1-.7 0-2.7l-8.7 2.8c-.5.1-1 .9-.7 1.5z" fill="#fff8f8"/><g xmlns="http://www.w3.org/2000/svg" fill="#442624"><path d="M241.8 361.2l.4-1.3 63.3 26.1-.5 1.2-63.2-26z"/><path d="M288.9 380.1l-1-.8 7.3-9.9 1 .9-7.3 9.8z"/></g><g xmlns="http://www.w3.org/2000/svg" fill="#dd5472"><path d="M283.5 369.8l.8.3-.3-.9-.5.6zm3.8 1.1l-.1 1.4 1.1-.8-1-.6zm-6.2-28.8l-.9-1.1-.8 1.4 1.7-.3zm1.6-.7l1.6-.5-.9-1.1-.7 1.6zm10.8 26.6h.3l-.8-.9-.5 1.2.8-.1-.6 1.3 1.6-.5-.8-1zm-14.4-22.1l.8 1.4.5-1.6-1.3.2zm2.2-3.2l1.3-1-1-.5h.2l-.4-1.1-1 .9.9.2v1.5zm4.8 19l-1.2-.7-.1 1.6 1.3-.9zm-1.9 2.7l1.4-.9-1.2-.7-.2 1.6zm7 9.7l1.1-.8-1-.5-.1 1.3zm-1-10.7l-1.2.6 1.2.9v-1.5zm-10.5-17.8l-1-1.2h2l-1 .8 1.3.2-.3-.9h.2l-1.5-1.9-.9 1.9h.1l-.5 1.3 1.6-.2zm-9.5-.2l1.3.7-.2-.9 1.1-.2-1.1-1.1-.1.7-1 .8zm13.1 16.1l1.2.9.1-1.6-1.3.7zm-20.4-17.4l1.3-.2-1-1-.3 1.2zm-4.2-1.5l-1.3-.6v1.1l1.3-.5zm-2.7-2.1l-1.3-.4.3 1.1 1-.7zm3.7 2.7l1.2-.5-1.2-.7v1.2zm-7.1-3.6l-1.3-.4.3 1.1 1-.7zm39.2 27.8l-1 .5 1 .8v-1.3zm-.4-2.5l-.8-.8-.3 1.2 1.1-.4zm-.9 2.3l-1.2-.6-.1 1.6 1.3-1zm-1.2-1.8l-1-.5.1 1 .9-.5zm.2.4l.6.7.2-.9-.8.2zm1.3 4.9l1-.1-.5-.7-.5.8zm-35.5-25.5l1-.4-1-.6v1zm-3.8-4.3v1l1-.4-1-.6zm9 2.4l.5.8.3-.9-.8.1zm-6.6-.7l.9-.1-.5-.7-.4.8zm-6.8 6.1l.9-.2-.6-.6-.3.8zm-2.4 3.2l.9-.1-.6-.6-.3.7zm34.3 5.4l-.6.8 1 .2-.4-1zm1.3 1.7l1 .2-.4-1-.6.8zm6 2.2l.8-.5-.7-.3-.1.8zm-4.5-2.8l.8-.5-.7-.3-.1.8zm-2.5 5.9l.7.6.3-.7-1 .1zm1.9-8l-.8.2.7.5.1-.7zm-4.8 7.3l.8.5v-1.2l-.8.7zm-7.4-20.4l-.8.8.8.3v-1.1zm9.2 16.8l.1-.9-1.2.6.2.1.2 1.2.6-.5.1.1v-.2l.6-.5-.6.1zm4.6-21.2l-1.6 1 1.6 1v-2zm-26.7 3.1l-.6.5.8.5-.2-1zm10.5 1.2l-.9-.2.4.8.5-.6zm4.6.6l-.9-.2.5.9.4-.7zm-6.5-1.1v.7l.7-.2-.7-.5zm10 17.2l.3.5.3-.7-.6.2zm12.1 7l.4.5.2-.6-.6.1zm-7.1-.4h.5l-.2-.5-.3.5zm3.5-3.5l.5-.3-.5-.2v.5zm9.9 7.6l-.7.1.5.5.2-.6zm-3.7.3l-.2-.5-.3.4-.2-.1-.1 1 .8-.3-.5-.5h.5zm3.5-4l-.5-.2v.6l.5-.4zm-21.8-16.7l.5-.2-.4-.3-.1.5zm-7.6-4.7l.5.7.3-.7h-.8zm-2.3-.8l.6.7.3-.7h-.9zm-1.9-.6l.6-.2-.5-.6-.1.8zm3.1-1.7l-.7-.3.1.7.6-.4zm7.2 3.6l-.3.6h.7l-.4-.6zm-17.7-4.1l.5.8.3-.7-.8-.1zm-.9 1.4l.3-.7-.9-.1.6.8zm-1.6 3l.3-.7-.9-.1.6.8zm26.7 13.4l1.2-.6-1.2-.9v1.5zm-4.8-11.4l.2.9.6-.5-.8-.4zm6.6-.8l1.4-.8-1.2-.7-.2 1.5z"/><path d="M280 343.4l1.3.3-.4-1.1-.9.8zm-9.1 3.9l.7-.5-.7-.5v1zm-2.4-2.3l1.1.9.4-1.5-1.5.6zm-8.7-3.8l-1.3-.3.4 1.6.9-1.3zm-2.3-.4l-1.4-.3.4 1.6 1-1.3zm-4 .3l1.1-1.3-1.3-.3.2 1.6zm8.5 1.6l1 .9.4-1.5-1.4.6zm-11.7-2.7l-1 1.3 1.3.3-.3-1.6zm16.3 9.6h.7l-.4-.6-.3.6zm17.6-10.1l-.9-.8-.1 1.3 1-.5zm-15.9 6.8l-1 .4.7.6.3-1zm.9 1.3l1 .1-.6-.9-.4.8zm19.7 18.8l-.2.1v-.1l-.1.1h-.6l.1.4-.1.1.3.1v.3l.3-.3.3.1v-.8zm-.2 6.1l.8.3v-.8l-.8.5zm-6.2-3l.8-.3-.7-.5-.1.8zm5.6-8.6h-1l.3.9.7-.9zm-6.4 3.1l.7-.4-.6-.6-.1 1zm4.7 5l.8.5.1-1.1-.9.6zm.7-9l-.7-.6-.3.8 1-.2zm3.5 5.4l.2.5.3 1 .3-.3.8.7v-1.4l-.7.4.2-.3h-.7l.3-.5-.7-.1zm1.8 6l-.7.5.8.3-.1-.8zm-7.1-2.6l.8-.3-.7-.6-.1.9zm4 .2l1 .3-.4-1-.6.7zm3.9 2.3l.8-.5-.7-.4-.1.9zm-6.9 2.5l.7.6.2-.8-.9.2zm8.9-4.4l-.8-.6-.3 1 1.1-.4zm-38.6-25.1l2.2.9-.5-2.4-1.7 1.5zm11.4-1.2l-1.9 1.2v-.1l-1.5.7 1.1.9.3-1.2 1.7 1 .3-2.5zm-19.2.9l.9.2-.4-1.5.9-.1-1.6-1.8-.8 1.9 1.5-.1-.8 1-.7-.8-.8 2 2.4-.1-.6-.7zm-1.7 1.2l-.7 1.9 2.3-.2-1.6-1.7zm-1.8 5.1l1.7-.1-1.2-1.2-.5 1.3z"/></g><linearGradient xmlns="http://www.w3.org/2000/svg" id="bt-P" gradientUnits="userSpaceOnUse" x1="207.243" y1="228.612" x2="200.812" y2="190.198"><stop offset="0" stop-color="#341413" stop-opacity="0"/><stop offset="1" stop-color="#240f0e"/></linearGradient><path xmlns="http://www.w3.org/2000/svg" d="M151 220.2c-1.2 8.2-.4 13.8-.4 13.8s20.3 5.5 49.3 2.6c46.6-4.8 62.3-23.2 62.3-23.2l-19-5.2h-89.5c-1 3.3-2 7.6-2.7 12z" fill="url(#bt-P)"/><defs xmlns="http://www.w3.org/2000/svg"><path id="bt-R" d="M391.9 323.5c33.4 0 60.6 27.2 60.6 60.6s-27.2 60.6-60.6 60.6-60.6-27.2-60.6-60.6 27.2-60.6 60.6-60.6m0-7c-37.3 0-67.6 30.3-67.6 67.6s30.3 67.6 67.6 67.6 67.6-30.3 67.6-67.6-30.3-67.6-67.6-67.6h0z"/></defs><path xmlns="http://www.w3.org/2000/svg" d="M306.6 133l3.1-2.1 6.1-4.6c1.6-1.2 11.1-16.9 11.1-16.9l-8.6-3.5-10.5 6.8-4.4 8.3 3.2 12z" fill="#da7f57"/><path xmlns="http://www.w3.org/2000/svg" d="M323.6 96l4.8.9c.9.2 1.2 1.2.7 1.9l-16.6 20.7c-.3.4-.8.5-1.3.4l-5.5-1.6c-.8-.3-1.1-1.3-.5-1.9l17.3-20c.3-.4.7-.5 1.1-.4z" fill="#1f2b36"/><path xmlns="http://www.w3.org/2000/svg" d="M285.4 134.3s12.6-11.5 14-14.1 1.7-4.5 1.8-6.6c.2-2.1 3.3-4 5-5.3 1.7-1.4 8.5-3.4 8.5-3.4s1.2.8-.7 3.8c-1.9 2.9-5.8 4.5-5.8 4.5s-1.6 3.4-2.6 5.2l-1 1.7s1.2-.2 3.6 2.8c2.4 3.1.8 7.8.8 7.8l-14.8 20.5-8.8-16.9z" fill="#e89976"/><path xmlns="http://www.w3.org/2000/svg" d="M319.7 104.3c.9-1.6 3.4-.4 4.3.3 1 .7 4.2 2.1 3.1 3.8s-2.5 1.8-4.6.6c-2-1.1-3.5-3.4-2.8-4.7z" fill="#ea9d7d"/><path xmlns="http://www.w3.org/2000/svg" d="M325.1 110.2c-.7 0-1.6-.2-2.6-.8-1.6-.9-2.8-2.3-3.2-3.5-.2-.7-.1-1.3.2-1.7.3-.5.7-.8 1.3-.9 1.3-.2 2.9.5 3.6 1.1.1.1.4.2.6.4 1 .6 2.5 1.6 2.8 2.7.1.4 0 .9-.3 1.3-.4.6-1.2 1.4-2.4 1.4zm-3.9-6.3h-.4c-.3.1-.6.2-.8.5s-.2.8-.1 1.1c.3 1.1 1.4 2.3 2.8 3 2 1.1 3.1 1 4-.5.1-.2.2-.4.1-.7-.2-.8-1.6-1.7-2.4-2.2-.3-.2-.5-.3-.7-.4-.5-.3-1.6-.8-2.5-.8z" fill="#cc7a5e"/><path xmlns="http://www.w3.org/2000/svg" d="M313.2 113.6c.3-1.8 3.1-1.6 4.2-1.3s5.4.7 5 2.8c-.4 2-2.3 2.3-4.8 2-2.4-.5-4.6-2-4.4-3.5z" fill="#ea9d7d"/><path xmlns="http://www.w3.org/2000/svg" d="M319.3 117.5c-.6 0-1.3-.1-1.6-.1-1.8-.3-3.5-1.2-4.3-2.2-.4-.5-.6-1.2-.5-1.7.1-.6.4-1.1.9-1.4 1.1-.7 2.9-.6 3.8-.3.2 0 .4.1.7.1 1.4.3 3.6.7 4.3 1.8.2.4.3.8.2 1.3-.4 2.1-2.1 2.5-3.5 2.5zm-3.4-5c-.6 0-1.3.1-1.7.4-.3.2-.5.4-.5.8-.1.4.1.8.3 1.1.7 1 2.2 1.7 3.7 1.8 3.4.5 4.1-.6 4.3-1.6 0-.2 0-.4-.1-.6-.6-.9-2.7-1.3-3.8-1.6-.3-.1-.5-.1-.7-.2-.5-.1-1-.1-1.5-.1z" fill="#cc7a5e"/><path xmlns="http://www.w3.org/2000/svg" d="M311.4 117.8c.3-1.6 2.7-1.5 3.7-1.2s4.2.6 3.9 2.3c-.4 1.8-1.5 2.3-3.7 2-2.1-.3-4.1-1.8-3.9-3.1z" fill="#ea9d7d"/><path xmlns="http://www.w3.org/2000/svg" d="M316.5 121.5c-.4 0-.8 0-1.2-.1-1.6-.2-3.1-1.1-3.8-2-.4-.5-.5-1.1-.4-1.6s.4-1 .8-1.3c1.1-.7 2.7-.4 3.4-.2.2 0 .4.1.6.1 1.4.3 3.9.8 3.5 2.6-.3 2-1.6 2.5-2.9 2.5zm-4.6-3.7c-.1.4.1.7.3 1 .6.8 1.9 1.6 3.3 1.8 2.3.4 2.9-.3 3.2-1.7.2-1-1.4-1.4-2.9-1.8-.3-.1-.5-.1-.7-.2-.7-.2-2-.3-2.8.1-.2.4-.4.6-.4.8z" fill="#cc7a5e"/><path xmlns="http://www.w3.org/2000/svg" d="M315.7 108.8c.7-1.7 3.8-1.2 5-.7s5.6 1.7 4.7 3.7c-1 1.9-2.8 1.8-5.4 1.1-2.8-.7-5-2.7-4.3-4.1z" fill="#ea9d7d"/><path xmlns="http://www.w3.org/2000/svg" d="M322.6 113.8c-.9 0-1.9-.2-2.9-.5-2-.5-3.8-1.7-4.4-3-.3-.6-.3-1.2-.1-1.7.9-2 4.1-1.5 5.5-.9.1 0 .3.1.5.2 1.4.5 3.9 1.5 4.5 2.8.2.4.2.9-.1 1.3-.6 1.4-1.7 1.8-3 1.8zM316 109c-.1.3-.1.6.1 1 .5 1.1 2.1 2.2 3.9 2.6 2.9.8 4.2.6 4.9-.9.1-.2.1-.4 0-.6-.4-1.1-2.9-2-4-2.3-.2-.1-.3-.1-.5-.2-.9-.4-3.7-1-4.4.4z" fill="#cc7a5e"/><linearGradient xmlns="http://www.w3.org/2000/svg" id="tp-A" gradientUnits="userSpaceOnUse" x1="295.396" y1="130.567" x2="255.384" y2="159.465"><stop offset="0" stop-color="#b9223e"/><stop offset=".99" stop-color="#82052b"/></linearGradient><path xmlns="http://www.w3.org/2000/svg" d="M228.2 143.4s7.4 2.4 18.4 3.4c9.2.6 15.9-.3 19.9-2.6 3.2-1.9 11.5-8.3 15.3-11.3.8-.6 1.9-.5 2.6.2l16.9 18c.7.7.8 1.9.2 2.7-3.6 5-14 18.6-26 26.7-13.7 9.2-30.1 23-50.1 16.9-15.6-6.5 2.8-54 2.8-54z" fill="url(#tp-A)"/><linearGradient xmlns="http://www.w3.org/2000/svg" id="tp-B" gradientUnits="userSpaceOnUse" x1="298.636" y1="132.282" x2="292.639" y2="139.204"><stop offset="0" stop-color="#cc7a5e" stop-opacity="0"/><stop offset="1" stop-color="#aa5f4b"/></linearGradient><path xmlns="http://www.w3.org/2000/svg" d="M295 126.8c8.1 6.2 11.1 7.8 11.1 7.8l-6.9 9.8-11.8-11.8 5-4.5c.8-.6 1.6-2.1 2.6-1.3z" fill="url(#tp-B)"/><g xmlns="http://www.w3.org/2000/svg" fill="#a05a3c"><path d="M298 140.8l-1 .4 1 .5v-.9zm4.6-1.3l.4-.6-.6-.1.2.7zm-5.5-8.6l-.2.8.7-.3-.5-.5zm3.2 7.6l-.7-.1.2.6.5-.5zm2.6-1.1l.2-.8h-.7l.5.8zm3.1-4.6l.6 1.1.7-.9-1.3-.2zm-2.9 6l.7-.9-1.4-.2.7 1.1zm1.8-3.1l-1.1.3.9.7.2-1 .2.3.7-.9-1.3-.2.4.8zm-3.9.9l-1 .4 1 .5v-.9zm.2-3.9l-1-.3.2 1.1.8-.8zm1.1 5.9l-.4-1.3-.7 1.1 1.1.2zm-1-3.6l-1.1-.3.5 1 .6-.7zm-9.2-.1l-.2 1.1 1-.5-.8-.6zm13.8 0l.6-.8-1.2-.2.6 1zm-8.1 4.7l.2 1.1.2-.3.2 1 .7-.8-.8-.2.3-.4-.8-.4zm6.1-1.9l.7-.9-1.3-.3.6 1.2zm-5.7-4.7l-.1 1.1 1-.5-.9-.6zm.5 10.9l.2-2.2-1.8.5 1.6 1.7zm-5.8-6.7l.2-1.4-1.6.8.3-2.5-2.4.8 2 1.9v-.2l1.5.6zm2.4.9l-1.6.9 1.4.6.2-1.5zm3.9 5l.4-.6-.6-.1.2.7zm-5.6-9.3l-.2.8.8-.2-.6-.6zm-.9.2l-.5.3.6.4-.1-.7zm0-1.9l-.5.3.6.4-.1-.7zm3.9 7.5l.3-.2-.9-.5v.4l-.7-.2.2.8-.4.1 1.5 1.5.8-2.2-.8.3zm-.5.1h0l-.2.2.2-.2zm3.7-.1h-.5l-.7-2.2-1.7 1.4 2.2 1 .4.6.3-.8zm-9.9-6.8l-.6.3.7.5-.1-.8zm7.3 4.6l-.7-.2.1.6.6-.4zm-.4-1l-.3.6.6.1-.3-.7zm7.1-1.4l1.1-.4-1.1-.8v1.2zm-1.3-3.6l-.8.3.8.4v-.7zm-5.3 3.7l.7-.8-1-.3.3 1.1z"/><path d="M294.8 138.1l.7-.8-.8-.3v-.1h-.1l-2.4.3 1.5 1.5.9-1.6.2 1zm6.3.6l-.7 1 .6.1h-1l.7.8.3-.8.3.1.2.5.8-.8-1.1-.4-.1-.5zm3.1-6.3l-1.1.3.9.7.2-1zm-9.4 2.1l-.2 1.1 1-.5-.8-.6zm-5.6-1.1l-.2 1.1 1-.5-.8-.6zm13.1 1.4l.7-.8-1-.3.3 1.1zm-2.5 6.8l-.6-.4-.1 1.1.8-.4.2.3.8-1.1-1.5-.4.4.9zm-11.3-7.9l.1-1.3-1.1.4 1 .9z"/><path d="M295 136.4l1-.5-.8-.6-.2 1.1z"/></g><path xmlns="http://www.w3.org/2000/svg" d="M199.4 108.3h0z" fill="#f5b421"/><path xmlns="http://www.w3.org/2000/svg" d="M153.9 208.8l63.8-.2 19.6-.1h3.9l3.9.4s3.2-25.4 5-61.4c1-19.4 7.5-47.8-24.1-49.4-12.7-.7-26.7 7.9-40.7 36.2-8.9 17.9-28.7 61.4-33 72-.6 1.2.3 2.5 1.6 2.5z" fill="#fffadd"/><linearGradient xmlns="http://www.w3.org/2000/svg" id="tp-C" gradientUnits="userSpaceOnUse" x1="179.987" y1="156.688" x2="247.462" y2="185.001"><stop offset="0" stop-color="#b9223e"/><stop offset=".99" stop-color="#82052b"/></linearGradient><path xmlns="http://www.w3.org/2000/svg" d="M149.3 223.1c3.4 6.5 30.4 5.8 48.8-.1 11.8-3.8 15.4-14.4 15.4-14.4l14.3-38.1 15.3 13.8-1.8 24.3 3.9.4s3.2-25.4 5-61.4c1-19.4 7.5-47.8-24.1-49.4-12.7-.7-26.7 7.9-40.7 36.2-8.9 17.9-28.7 61.4-33 72-4.4 10.6-4.5 14.1-3.1 16.7z" fill="url(#tp-C)"/><linearGradient xmlns="http://www.w3.org/2000/svg" id="tp-D" gradientUnits="userSpaceOnUse" x1="191.321" y1="164.022" x2="228.406" y2="164.022"><stop offset="0" stop-color="#ad203a" stop-opacity="0"/><stop offset=".99" stop-color="#82052b"/></linearGradient><path xmlns="http://www.w3.org/2000/svg" d="M211.8 106.3s-12.4 9.3-25.3 44.2c-4 10.9-14.5 53.2-9.3 60.7 15.5 22.5 34.2 1.9 34.2 1.9l17.4-45.6-17-61.2z" fill="url(#tp-D)"/><path xmlns="http://www.w3.org/2000/svg" d="M362.3 208c-1.9-1.1-6.3-2.2-9.4-3.5-7.4-3.2-13.5-4.8-18.8-7.3-3-1.5-41.3-27.5-45.6-30.1-5.6-4.1-28.9-32.7-28.9-32.7L229.7 148s28.7 38.3 34.5 42.7c6.7 5.3 17.2 8.2 31.4 12.3s26.5 6.7 37.5 9.5c1.7.4 3.3 1.3 5.7 1.6 1.9-3.8 5.8-6.4 10.3-6.4a11.61 11.61 0 0 1 11.6 11.6c0 1.3-.2 2.6-.6 3.8.1.2.2.4.4.5 3.6 1.7 4.8-14 1.8-15.6z" fill="#ea9d7d"/><path xmlns="http://www.w3.org/2000/svg" d="M361.1 224.1a5.02 5.02 0 0 1-1.2-.2l.4-.9c.3.2.9.2 1 .1.7-.3 1.3-2.4 1.5-3.3.6-2.2.6-5.9.6-7.7 0-1.9-.2-3.6-3-4.4-3.2-.9-23.4-8-24.2-8.3l-.1-.1c-.1-.1-12.9-8.7-18.8-12.5l-16.6-11c-3.5-2.4-6.5-4.4-7.8-5.1l-.3-.2c-2.8-1.9-5.9-4-9.4-8.1-3.6-4.1-6-7.1-6-7.2l.8-.6a306.49 306.49 0 0 0 6 7.2c3.4 4.1 6.5 6.1 9.2 7.9l.3.2 7.8 5.1 16.6 11 18.8 12.5 24.1 8.3c3.5 1 3.8 3.3 3.8 5.3s0 5.6-.6 8c-.5 2.1-1.1 3.6-2.1 4h-.8z" fill="#cc7a5e"/><g xmlns="http://www.w3.org/2000/svg" fill="#ea5c7a"><path d="M170.6 193.8l1-.7-.9-.6zm-1.9 4l-.5-1.7-1.1 1.1zm-8.9 4.2l-.6-1.5-1.1 1zm2.9 1.3l-.5-1.6-1.2 1zm5.5-28.5l-1.4-1.6-.7 1.7zm-.9 3.1l-1.3-1.6-.8 1.6zm-6.6 17.8l-1.4-1.7-.8 1.7z"/><path d="M160.2 194.4l-1.1-1.3-.6 1.4zm13.2-28.1l-.6-2-1.4 1.2zm1.3 9.3l-.7-2-1.3 1.2zm-6.6 8.3l-.8-2-1.3 1.3zm-2.3 0l-2-.4.3 1.8zm-.9 10.6l-2-.6.2 1.8zm3.9-14.3l-2-.4.3 1.8zm-1.5 7.9l-.7-2-1.3 1.3zm-8.7 10.9l-.5-1.7-1.1 1.1zm4-10.4l1.2-1.8-1.8-.3zm13.7-19.4l1.3-1.6-1.8-.4zm-2.7-7.5l1.3-1.6-1.8-.5zm6.9-3.3l1.2-1.7-1.8-.4zm-6.4 20.4l1.1-1.6-1.8-.4zm-1.6 3.7l1.1-1.7-1.8-.4zm4.1-25.1l.9-1.7-1.8-.1z"/><path d="M181.9 145.5l1-1.4-1.4-.2zm-3.2 2.3l1.8-.3-.8-1.8zm6.2 4.1l1.1-1.3-1.4-.5zm-4.3-4.5l1.1-1.3-1.4-.5zm-20.1 44.9l1-1.4-1.5-.3zm1.2 2.4l1-1.5-1.5-.2zm1.6-5.6l-.6-1.7-1.1 1.1zm4.4 1.8l-.7-1.9-1.3 1.1zm7 7.3l-1 .1.4.8zm-10.7-8.9l1.4.3-.2-1.2zm-1 1.9l.6-1.1h-1.1zm.4 5.7l-.8-.8-.4 1.1zm9-20.5l1.2-.7-1.1-.8zm3.3-11.9l1.2-.7-1.1-.8zm-5.3 13.8l1.2-.7-1-.8zm-4.9 4.2l-.5-1.1-.7.8zm1.2-2.7l-.5-1-.7.6zm8.3 4.1l-1.2.1.5.9zm-4.3-9.4l-1.2.1.5.9zm.5-4.1l1.1.9.3-1.2zm.6-2.9l1.1.8.3-1.2zm6-17.8l.5 1.7.4-1.3zm-9.8 20.9l2.2-.4-1.2-1.6zm1.5-3.3l2.1-.3-1.2-1.6z"/><path d="M171.2 175.4l.8-2.1-2 .4zm2.3-5l.8-2.1-2 .3zm-5.9 16.8l.7-2.2-1.9.4zm-6 9.6l.8-2.1-1.9.2zm22.8-35.7l-.7-1-.5.9zm1.8-13.8l-.3 1.2 1-.2zm-8.7 14l1 .8.2-1.1zm-.7-9.4l-.5 1.1h1zm-3 11.2l-.3 1.1h1zm4-13.5l1.3-.2-.6-1zm-6 38.8l-.9.2.5.6zm3.8-1.7v.8l.6-.3zm-5.7-2.9l.8.2-.1-.7zm-8.7 13.4l-.9.1.5.7zm3.9-1.6l-.1.7.6-.2zm-5.6-3.1l.7.3-.1-.7z"/><path d="M189.7 177.6l.7-.1-.4-.6zm-7.7.9v-.8l-.6.2zm-4.6-7v1.4l1.2-.5zm-1.6-6.5l1.2.3-.3-1.1zm-5.8 7.6l.5-1.1-1-.1zm16.5-28.8l-.6 1.1h1.1zm-2.3-2.2l-.6 1 1 .1zm-.4-3l.7.8.3-.9zm-5.3 10.1l.9-.4-.6-.6zm2.2 5.5l.5-.8-.8-.1zm1.1 8.7l.1 1.1.9-.4zm-8.5 8.6l.2 2 1.6-.8z"/><path d="M184.4 158.4v1.2l.9-.4zm-2.9 3.7l.1 1.2.9-.5zm5.1-14.2l2 .4-.4-1.8zm-3.3-9.6l1.9-.5-.8-1.8zm2.4 3.4l1.9.4-.3-1.8zm-4.7 6.4l1.9.6-.2-1.8zm-17.6 37.5v-1.5l-1.1.5zm1.3 6.5l-1.2-.3.2 1zm6.2-7.2l-.6 1 1 .1zm-2.7 2.2l.6 1.3.8-.9zm-3.8-5.6l1.1-.1-.6-1zm-2.5 9.3l.1-1-1 .2z"/><path d="M161.9 192.1l.1-1.5-1.1.5zm.9 6.7l-1.1-.4.1 1.1zm6.5-7.4l-.6 1 1 .1zm-1.5-12l2.3-2-2.5-1.1zm-8 20.6l1.5-1.3-1.5-.8zm-3.5-2.8l3-.7-1.6-2.4zm3.2-7.2l3-.6-1.5-2.6zm-1.5 3.5l3-.7-1.7-2.4z"/><path d="M161.1 186.6l3-.8-1.7-2.1zm1.1-3.1l3-.8-1.7-2.2zm1.4-3.2l3-.8-1.7-2.1zm3.8-2.3l1.4-2.8-2.7-.1zm3.2-7.7l1.4-2.8-2.7.2zm1.7-3.3l1.4-3.5-2.7 2.2zm-5.5 6.4l3-.8-1.7-2.2zm-12 27.3l3-.8-1.7-2.2z"/><path d="M157 205.2l-.4-3.2-2.3 1.6zm3.9-.8l-.4-3.1-2.3 1.6zm17.2-54.3l2.8 1.5.1-2.9zm-2.5 11.7l2.3-2.1-2.5-1.1zm-5.2 27.9l1.2.2-.2-1.1zm-5.7.2l.5-1h-.9zm5.4 6.4l-.8-.6-.2.9zm-4.1-21.4l-1 2.3 2-.1zm2.4-2l-.7 2.2 2-.2zm6.2-11.6l-1.3-1.5-.7 1.7zm-2 3.9l-1.3-1.6-.8 1.8zm5.7-10l1.1.9.3-1.2zm1-2.7l1 1 .4-1.3zm-4 2.8l2.1-.1-.9-1.9zm1.3-3l2-.5-1-1.7zm4.4 3.2l.9-2-2 .2z"/><path d="M182.9 156.4l-.1 1.4 1.2-.4zm-1.1-6.5l1.2.3-.2-1zm-2.4 9.7l.6-1-1-.1zm-6.1 5.8l1.4-2.9H172zm4.5-10.1l1.7-2.8-2.4-.2zm-4.6 4.3l3-1.2-1.6-2zm8-17l3.1-.8-1.6-2.3zm-1.4 2.9l2.4-.7-1.1-2z"/><path d="M172.5 161l-1.1 2.5 2-.3zm1.7-2.3l-.7 2.2 1.9-.2zm-3.9 36.1l1.2.2-.2-1.1zm-5.7.2l.5-1h-.9zm5.4 6.4l-.8-.6-.2.9zm-1.5-9.2l-.2-1.4-1.1.7zm2.2 6.3l-1.2-.1.3 1zm4.9-8.6l-.4 1.1 1-.1zm-1.9-8.7l.3-1-.9.2zm-.1 4.8l-.7-.4v.8zm5.3-4.4l-.5.6.7.2zm2.6-14.9l-.4.8h.8zm1.2-4.2l.5.5.2-.6zm-5.8 2.9l.6-.5-.6-.3zm11.2-20.6l.5-.7-.7-.1zm-.6 7.7l-.5-.5-.3.6z"/><path d="M181.1 168.4l1-.8-1-.5zm-3.5 4.6l-.5-.9-.5.7zm8.3-.3l-1 .3.5.7zm-4.1-1.2l-1.2-.7-.1 1.3zm6.1 2.2l-.8.8.9.4zm-3.2-9.3l.6 1.1.6-.9zm1.6-3.7l-.5-.8-.5.8zm3.2 3.3l-.8.3.5.6zm.8-6.9v.9l.7-.4zm-1-23l-.3-2-1.5.9zm2.3 3.5l1.5-1.4-1.7-.7zm-1.3-7.9l1.5-1.3-1.7-.8zm7.6-1.8l1.5-1.4-1.7-.8zm-5.3-2.4l1.2-1.6-1.8-.4zm7.2-11.3l1.1-1.4-1.5-.4zm-3.7 2l1.7-.1-.7-1.4zm5.1 5l1.2-1.3-1.4-.5zm-2.9-5.2l1.2-1.3-1.4-.5zm-6.5 16.8l1.3-.4-.9-1zm-5.5 5l1 1.1.5-1.1zm1.2-2.8l.9 1.1.5-1.2zm7.9-16.9l.4 1.7.5-1.2zm-10.3 16.5l2.3-.1-1.1-2.2zm3.6 3.7l1.1-2h-2z"/><path d="M197.9 130.8l-.4-1.2-.8.7zm-3.7-.7l.9.9.3-1zm.1-9.8l-.6 1.1 1.1.1zm-4 10.8l-.6 1.1 1.1.1zm5.1-13l1.4-.2-.6-1zm-3.2 21.9l-.2 1.5 1.2-.3zm-.3-6.6l1.1.4-.1-1zm-7.1 6.4l.7-1-1-.3z"/><path d="M200.2 120.1l-.7 1.1 1 .1zm2.3-8.9l-.6 1 1 .2zm-.6 2.2l.7.8.3-.9zm-5.7 3.8l.9-.4-.6-.6zm1.9 5.6l.6-.7-.9-.2zm.4 9.7l-.1 1.1.9-.2zm3.2-4l-.1 1.2 1-.3zm-5.5 4.6l-.1 1.1 1-.3zm7-25.1l1.6.8-.2-2.2zm-3 7.3l2 .4-.3-1.8zm-1.5 1.5l1.9.7-.1-1.9zm-12.9 20.9l1.9-2.6-2.8-.2zm2.4-3.7l1.9-2.5-2.7-.6zm7.5-15.4l2.7 1.6.3-2.8zm-3.5 11.6l2.7-1.7-2.3-1.5zm-1.4-1.4l-1.1-1.7-1 1.5z"/><path d="M188.4 132.5l-1.2-2-.9 1.7zm7.3-8.9l.9 1 .5-1.2zm1.1-2.5l.9 1 .5-1.2zm-5.3 1.8l2.2.1-.9-2.1zm1.7-2.6l2.2-.1-.9-1.8zm5.1 3.8l1-1.9-2 .1zm1.8 1.1l-.1 1.4 1.2-.4zm-.7-6.6l1.1.4v-1.1z"/><path d="M191.4 124.8l.7-1-1-.1zm-2.1 8.5l1.9-2.6-2.6-.5zm5.9-9.7l1.8-2.5-2.4-.4zm-6.2 3.6l3.2-.6-1.5-2.3z"/><path d="M199.2 112.2l2.4.1-.3-2.4zm-1.8 2.2l2.1-.1-.6-1.8zm-8.7 13.3l-1.4 2.5 2.1.1zm2.7-.8l-1.1 2 2 .1zm5.7 9.1l-.5.7.8.1zm1.9-3.8l.5.6.3-.6zm-6.2 1.6l.7-.2-.5-.4zm11.5-23.5l.3-.7-.7-.1z"/><path d="M207.8 104l1.1.3-.1-1zm-3 2.4l1.5.3.1-1.6zm-3.5 3.4l2.4 1.2-.6-3zm-1.4 13.1l-.2 1.4 1.2-.3zm6.8-18l1.1.5-.1-1.1zm-7 8.5l.7-1-1-.2zm4.3-1.3l-.5-.6-.3.7zm-1 12l-.5-.8-.5.7zm-1.5-7.3v.8l.7-.3zm-37.6 87.5l-.4.9.8-.1zm1.2-4l.5.5.3-.7zm-5.8 2.7l.6-.4-.6-.3zm9.5-21.5l.3-.7h-.7zm.2 7.2l-.6-.5-.2.7zm15-15.6l.9-.8-.9-.5zm-3.4 4.8l-.5-1-.5.8zm8.3-.5l-1 .3.5.7zm-4.1-1.1l-1.3-.7-.1 1.3zm6.1 2l-.8.7 1 .4zm-3.4-9.3l.6 1.1.6-1zm-18.6 28l-.6-.7-.4.8zm3.6 2.9l-.8.4.6.4zm-.1-7l.1.8.6-.4zm8.3-10.7l.3-.9-.8.1zm-.6 4.2l-.7-.4-.1.7zm5.4-3.6l-.6.6.6.2zm-7.6 10l-.3.7.8-.1zm-6.1 5.3l.7.3.1-.6zm11.1-16.4l-.8 1 1 .3zm2.6-5.1l.6.9.5-.9zm-8.2 1.9l1-.5-.7-.6zm4.3.3l1.3.5-.1-1.2z"/><path d="M175.2 177.9l.7-.9-1-.2zm4.9 8.4l-.8-.9-.5 1.1zm-3.4 3.8l.7.6.3-.7zm-3.9-2.3l.7-.5-.7-.4zm1 6.8l-.3-.8-.5.5zm10.9-47.4l-.2-1.4-1 .7zm2.3 6.3l-1.2-.1.3 1zm4.9-8.6l-.4 1.1 1-.1zm2.6 3l-.3.7.7-.1zm-1.2-2.7l.7.6.3-.8zm-3.9-2.3l.6-.4-.6-.4zm.9 6.8l-.2-.8-.5.5zm-8.6 11.1l-.2-1.5-1.1.8zm2.2 6.3l-1.2-.1.3.9zm4.9-8.7l-.4 1.2 1-.1zm2.6 3.1l-.2.7.7-.1zm-1.2-2.8l.7.7.3-.9zm-3.9-2.3l.7-.4-.6-.4zm1 6.9l-.3-.8-.5.5zm-13.7 33.5l1-.3-.6-.7zm-9 11l1-.7-.9-.6zm-1.9 3.9l-.5-1.7-1.1 1.1zm-8.9 4.3l-.6-1.6-1.1 1.1zm-.2 4.1l-.5-1.6-1.2 1zm1.1-10.5l-1.4-1.7-.8 1.7z"/><path d="M154.2 208.3l-1.1-1.2-.6 1.3zm4.7.1l-2-.6.2 1.8zm-6.3 4.5l-.5-1.7-1.1 1.1zm4-10.4l1.2-1.8-1.8-.3z"/><path d="M154.5 206.3l1-1.4-1.5-.3zm1.2 2.3l1-1.4-1.5-.2zm1.6-5.6l-.6-1.7-1.1 1.1zm4.4 1.9l-.7-2-1.3 1.2zm7 7.2l-1 .1.4.8zm-10.7-8.9l1.4.3-.2-1.2zm-1 2l.6-1.1h-1.1zm.4 5.6l-.8-.8-.4 1.1zm-1.8-.1l.8-2.1-1.9.2zm10.2-8.4l-.9.2.5.6zm3.8-1.7v.8l.6-.3zm-5.7-2.9l.8.2-.1-.7zm-8.7 13.4l-.9.1.5.7zm3.9-1.6l-.1.7.6-.2zm-5.6-3l.7.3-.1-.7zm3.9-7V198l-1.1.5zm1.3 6.6l-1.2-.3.2 1zm6.2-7.3l-.6 1 1 .1zm-2.7 2.2l.6 1.3.8-.9zm-3.8-5.5l1.1-.1-.6-1zm-2.5 9.3l.1-1.1-1 .3z"/><path d="M155.9 206.1l.1-1.5-1.1.5zm.9 6.6l-1.1-.4.1 1.1zm6.5-7.3l-.6 1 1 .1zm-9.5 8.5l1.5-1.3-1.5-.8zm-3.2-2.5l2.9-1-1.8-2.2zm2.9-7.4l3-.7-1.5-2.6zm-1.5 3.5l3-.7-1.7-2.4zm-2.7 7.4l3-.8-1.7-2.2zm2.3 4.8l-.4-3.1-2.3 1.6zm.2 3.2l-.4-3.1-2.3 1.6zm12.6-19.3l1.2.2-.2-1.1zm-5.7.2l.5-1h-.9zm5.4 6.4l-.8-.6-.2.9zm.2-1.5l1.2.2-.2-1.1zm-5.7.2l.5-1h-.9zm5.4 6.5l-.8-.7-.2 1zm-1.5-9.2l-.2-1.4-1.1.7zm2.2 6.2l-1.2-.1.3 1zm4.9-8.6l-.4 1.2 1-.1zm-11.7 14.5l-.4.8h.8zm1.2-4.1l.5.5.3-.7zm-5.8 2.8l.6-.4-.6-.3zm9.7-14.4l-.6-.5-.2.7zm-3.6 9.2l-.6-.7-.4.8zm3.6 2.9l-.8.4.6.4zm-.1-7l.1.8.6-.4zm9-.9l-.3.7.8-.1zm-6.1 5.2l.7.3.1-.6zm4.9-7.9l.7.6.3-.8zm-3.9-2.4l.7-.5-.7-.4zm1 6.8l-.3-.7-.5.4zm-.2 2.2l1-.3-.6-.7z"/></g><g xmlns="http://www.w3.org/2000/svg" fill="#820c28"><path d="M210.1 158.2l-1.7-.8 1.3-1zm1.2-5.1l-1.4-1.2 1.6-.6zm-5.2 3.6l-2 .5.3-1.8zm1.9-3.1l1.4 1.5-1.8.5z"/><path d="M208.4 152l-2.1.4.4-1.8zm10.8 18.1l-2.1.5.3-1.8zm-8-20l-2.1.1.6-1.7zm2.2 2.1l-1.7 1.2-.4-1.7zm-2.1 1.5l-1.6 1.2-.4-1.7zm-.8-2.3l-1.9.8v-1.8zm2.7 5l-2.1.7.3-1.9z"/><path d="M213.8 156.9l-1.8.8-.1-1.8zm-8.9-6.6l-.9-1.6h1.6zm-1.3-3.2l-.9-1.6 1.6-.1zm1.5-7l-1.2-1.1 1.4-.5zm1.7-.3l-1.2-1.1 1.4-.5zm5.1 18.7l-1.7-.6 1.1-1.1zm-6.8-10.6l-.5-1.1 1.1-.1zm1.3 5.4l.8-.5.3.8zm-7.6-3.7l.8.6-.7.5zm4.5 13.6l-1.1.5v-1zm5.6-1.2l-.7-.8.8-.2zm-3.6 7.5l.5-.9.5.8zm-2.6-19.3l.1 1.2-1-.4zm.7-5.6l-.9.3v-.9zm5.8 6.1l-.6-.9.9-.1zm-.1-3.3l-.8-1.6 1.6-.1z"/><path d="M209.1 147.4l-2.1-1.9 2.2-1zm-1.8-3.7l-1-1.5 1.7-.2zm1.7 6.5l-2.8.3.8-2.3zm-6.2 4.9l-1 .6-.1-1.1zm4.9 3.3l.6.8-.8.2zm-6.9-4.7l-.7-.8.9-.2zm15.8 31.9l-.8-.6.8-.4zM205.8 151l-.9-.7.9-.4z"/><path d="M207.3 148.8l2.7-2.9 1.5 3.3z"/><path d="M209.2 152.2l2.3-3 1.8 3.1zm-2.9-6.9l-2 .4.4-1.8zm2.1 0l-1.9.5.3-1.8zm-3.3-1.7l3-2.5 1 3.4z"/><path d="M204.2 143.8l1.4-1.4.6 1.7zm.1-7.8l1.7-1 .4 1.7zm.2-2.2l1.3-.7.2 1.3zm-.3 1.9l-.2-1.4 1.2.3zm1.2 2.3l-.4-1.4 1.3.2zm-1 .9l-1.4-.2.7-1.1zm.2-6l-.4-1.5 1.3.3zm.5 7.8l2.2-1.8.8 2.4z"/><path d="M205.1 138.2l1.5-1.4.6 1.7zm5.9 17l2.1-3.2 2 2.9z"/><path d="M212.9 158.1l2-3.3 2.1 2.9z"/><path d="M214.9 161.1l2-3.4 2.2 2.9zm-10.1-8.8l.2 1.7-1.4-.5zm5.8 6.4l-1.9 1-.1-1.9zm15.8 13.6l-1.7 1.1-.5-1.8z"/><path d="M220.5 173.4l-1.7 1.1-.3-1.8zm-9.3-15.1l1.4 1.6-1.8.5zm7.3 1.9l1.5 1.5-1.9.8zm-2.1 1l1.4 1.6-1.8.5zm-2-2.6l1.4 1.5-1.7.5zm-2.6 5.1l-.3-1.1h1.1zm.6 5.6l.9-.5.1.9zm-7-4.6l.8.6-.9.4zm5.3 12.1l-1.2.1.3-.9zm5.8.3l-.4-1h.9zm-5.7 6l1-.5.1.8zm4.3-18.3l-1.8-1.4 1.9-.8zm.9 2.6l-1.7-1.3 1.7-.8zm-5.6-6.1l-1.4-1.5 1.8-.6zm12.6 15.6l-1.8-1.2 1.7-1zm-23.9-16.5l.7-.7.3.9z"/><path d="M207.9 159.6l.1 1.2-1-.3zm.1-5.6l-1 .4v-1zm6.4 5.5l-.7-.8.9-.2zm-1.4 12.8l1.1.9-1.1.3zm-3.3-4.6l-.5.9-.5-.8zm8.5.7l-1-.3.5-.6zm-3.3-10.3l-2.5 1.1-.2-2.3zm-.3-2.2l-1.9.6.2-1.8zm-.2 4.7l-.8 1.6-.9-1.1zm-12.2-2.7l-.4 1-.6-.7zm-.7 4.7l-.6 1.3-.8-.9zm3.7-5.1l-1.1-.2.5-.8zm2.6 9.1l-.2-1.2 1 .4zm8.8-2.2l-.1-1.8 1.5.6zm3.7 1.6l-1.6-1 1.4-.8z"/><path d="M218.2 166.1l.1-1.7 1.4.8z"/><path d="M220 164.2l1.5 2.5-2.6.2z"/><path d="M219.9 161.8l2.1 2.5-2.8.6zm-.5 5.1l-1.8 1.1-.2-1.8zm4.3 3.5l-1.5 1.5-.8-1.8zm-3 2.1l-1.7-.6 1.1-1.1zm.7-4.7l-1.4-1 1.3-.8zm-4.8 1.3l-.1 1-.8-.4z"/><path d="M220 167.4l1.7-3.5 2.3 2.7zm1.3 5.1l1.7.8-1.3 1.1zm-2.8 2.5l.5.9-1 .1zm-2-4.8l-.6.7-.4-.8zm7.3 2.4l-.8-.4.6-.6zm-6.3 10.2l.4 1.1h-1zm-1.6-4.9l-.7.7-.3-.9zm7.1 3l-.8-.5.7-.5z"/><path d="M220.4 177.6l.5 1-1 .1zm-2-4.7l-.7.6-.3-.7zm7.3 2.2l-.9-.4.8-.5zm1.5-3.2l-1.4-.5.9-.9zm-6.2-3.3l-.2.9-.8-.5zm.9.6l1.7-3 2.3 2.4z"/><path d="M224.4 171.3l1.1-2.9 2 2zm-19.7 0l-1.1.7-.1-1.1zm5.5-1.4l-.7-.8.8-.3zm-3.3 7.5l.6-.8.6.8zm3 12.6l-.5-.9.9-.1zm-1.5-6.6l-1.2.1.4-1zm5.8.8l-.3-.9.8.1zm-6.2 5.6l.8-.5.1.8zm5.1-10.1l.9.9-1 .3zm-3.2-4.8l-.5.8-.5-.7zm8.5 1l-.9-.3.6-.6zM204 139.6h-1l.4-.8zm-3 .4l-.1-.7h.7zm2.4 3.5l.7-.4.1.8zm1.7-12.8l-1.2-.2.6-.9zm-.9-1.7v-1l.8.3zm.9 12.9l.4-1.1.9.7zm-2.2.3l.2.9-.9-.2zm-6.8 2.7l-1.1.3.2-1zm5.9-.1l-.6-.9h.9zm-5.2 6.6l.8-.7.2.8zm4.7-19.5l.8-.1-.3.7zm1.4 2l-.9.5v-.9zm-.1 4.7l-.9.5-.1-1zm.8-1.6l-1.1.7-.1-1.3zm1-3l-.8-.9 1-.3zm-1.9 7.3l.8-.9.4 1zm-1.7-4.4l-.9.1.3-.7zm3.8.8l-.2-.7.6.1zm-4.3 3.6l.6-.4v.7zm-3.8 5.9v1.3l-1-.5zm1-5.6l-.9.3.1-.9zm5.5 6.5l-.6-.8.9-.1zm13.8 37.7l.5.9-.9.1zm-1.5-5l-.7.6-.3-.7zm7.1 3.1l-.8-.6.7-.4z"/><path d="M216.7 182.1v1l-.9-.4zm1-5.1l-.9.2.1-.8zm4.8 5.9l-.4-.9h.9z"/></g><g xmlns="http://www.w3.org/2000/svg" fill="#d6d3c4"><path d="M232 177.8l-1.2-.5.8-.7zm-.4-1.8l-1 1.3-.7-1.3z"/><path d="M231.4 175.1l-1.3 1.1-.5-1.4zm-.3 2.2l-1 .9-.5-1.1zm.4-2.9l2.4 2.1-2.4 1.2zm-3.8 2l1.8.8-1.2 1.2zm2-.3l-1.3-.1.6-1.1zm.1-3.6l-2.2.4.4-2z"/><path d="M227.5 178.4l-1.5-.4.9-1zm1.5-.7l-2.3-2.1 2.7-1.3z"/><path d="M229.7 176.8l-1.9-1.7 2.2-1zm-2.5-2.4l-.1-1.8 1.5.6zm1.9 7.3l.5-1.9 1.2 1.1zm4.2.8l.4-1.8 1.3 1zm-5.1-2.2l-1.6-1.3 1.7-.9zm13.6 2.6l-3.2.8.5-2.9z"/><path d="M239.1 180.9l-3.2.8.4-3zm-1.2 2.6l-.9-1.4 1.5-.3zm-3.7-2.5l.6-1.7 1.2 1zm-2.9 3.5l-.7 2.2-1.4-1.5z"/><path d="M237.2 185.8h2.3l-1 1.8zm-2.2-1.1l1 2-2-.1zm-2.5-4.4l1.4-3.9 2.6 2.5zm8.2 3.1l.8 1.7h-1.7zm-2.2 13.5l.5.9-.9.2zm-1.9-4.7l-.6.5-.4-.7zm3.1 1.6l.5 1-1 .1zm-1.6-4.8l-.7.6-.3-.8z"/><path d="M229.3 174.7l.6-2 1.3 1.3zm10.9 9.5l-1.5 1.6-.7-1.8zm.8 13.8l-.3 1.3-1-.8zm-10.9-20.5l.6-2.1 1.4 1.3zm-3.6 2.1l.1 1.1-.9-.4zm1-5l-.9.2.2-.8zm4.9 5.8l-.4-.8.8-.1zm5 6.6l-.2 1.1-.8-.6z"/><path d="M239.1 182.1l-.9.1.2-.8zm-.6 2.4l-2.1-.1.9-1.6zm4.3 3.7l-2.1-.1.9-1.7zm-9.7-1.7l.2-1.9 1.3.9zm2.3 1.1l.3-1.7 1.3.8zm-3.7-5.1l.3 1-.9-.2zm7.5 1.7l.3 1-.9-.2zm1.2 3.8l.3 1-.9-.2z"/><path d="M237.4 183.7l.3 1-.9-.1zm-.6 13.9l.5 1h-1zm-1.1-5.1l-.7.6-.2-.9zm5.1-2.8l.5-1.6 1 .9zm.5-3.3l-.6.7-.3-.8zm-11.4-8.6l3.4 1-1.9 2.7zm7.9 9.2l-1.3-1.7 1.9-.3zm-4.3-5.5h-1.1l.5-.9zm5 1.4l-.2-.9.8.1zm-6.2 4.4l.9-.4v.8zm-.6.5l-.4.8-.6-.7zm-2.6 9.4l.6.9-1 .1zm-1.9-4.9l-.6.7-.3-.8zm7.3 2.6l-.8-.5.7-.5zm-4-3.7l.5 1h-1zm-1.6-4.9l-.7.6-.3-.8z"/><path d="M236 189.2l-.8-.5.7-.5zm-5.6-5l.8.8-.9.4zm-2.9-4.2l-.5.7-.5-.7zm7.6.8l-.9-.3.5-.6zm-7.1 6.5l-.1 1-.9-.5zm1.7-4.9l-.9.1.3-.8zm4 6.6l-.3-.9h.8zm-3.9-4.6l.4 1-1-.1zm-1.8-.4l.4 1-1-.2zm-.5 13.8l.4 1.1-1-.1zm-1.1-5l-.8.5-.2-.8zm6.8 3.6l-.8-.6.8-.4zm-6.4-11.9l-.2 1-.6-.6zm5.8-1.4l3.8-1.3-.3 3.4zm-1.5-1.4l1.9 1.1-1.7 1.1zm9.3 6.5l1.7-1.3.4 1.9zm-1.3 3.5l-.5-2.1 1.8.4zm3.9-7.6l-1.5 2 .2-3.2z"/></g><g xmlns="http://www.w3.org/2000/svg" fill="#700725"><path d="M242.9 195.7l-.7-.7.8-.3zm.1-11.5l1.9 1.2-1.8 2.5zm.9 10.4l-.8-.5.6-.5zm1.3-2.7l-.8-.5.7-.5z"/><path d="M243.8 194l-1.3-1.4 1.8-.7zm.7-3.8l-1 1.8-1-.9zm1.6 9l-1.7-1.7 2-.5zm.3-3.3l-1.6-1.6 1.8-.6z"/><path d="M245.7 202.3l-2.8-2.4 3.2-.5zm-2.1-3.3l-.3-1.4 1.5.5zm2-5.3l-.3-1.3 1.4.4zm-1.4-3.1l-.2-1.4 1.4.5zm-1.1-1.9l-.4-.9.9.1zm1.6 8.7l-1.6-.8 1.3-1zm-1.8-.5h-.8l.2-1.6zm-.6 3.1l.9-.5-.9-.9zm3.1 4.8l-1.7-1.6 1.9-.5zm-.3 3l-2.7-2.2 3-.5z"/><path d="M243 204.6l-.3-1.2 1.4.3zm1.1-1.4l-1.6-.9 1.2-.9zm-1.4-12.7l-.1-1.4 1.2.4zm3 1.5l-.5-2.1 1.7.6z"/><path d="M244.2 188.9l3-1-.3 2.8zm.2-.4l.5-3.1 2.3 1.5z"/></g><radialGradient xmlns="http://www.w3.org/2000/svg" id="tp-E" cx="1031.676" cy="124.331" r="7.277" gradientTransform="matrix(1.2119 7.935442e-02 -8.005753e-02 -0.9623 -907.0342 236.6312)" gradientUnits="userSpaceOnUse"><stop offset=".288" stop-color="#aa5f4b"/><stop offset=".967" stop-color="#cc7a5e" stop-opacity="0"/></radialGradient><path xmlns="http://www.w3.org/2000/svg" d="M333.9 197c2.5 1.6 4.1 1.7 5.9 3 .6.5.8 1.1.6 1.7-.7 2.2-4.5 2.9-8.5 1.7-4.1-1.2-6.8-4-6.2-6 .7-2.3 1.3-5 8.2-.4z" fill="url(#tp-E)"/><path xmlns="http://www.w3.org/2000/svg" d="M331.6 195.1l-5 15.8c-.2.7.2 1.4.8 1.6l2.9.6c.7.2 1.4-.2 1.6-.8l5-15.4c.2-.6-.1-1.3-.7-1.6l-3-1c-.7-.5-1.4 0-1.6.8z" fill="#283749"/><linearGradient xmlns="http://www.w3.org/2000/svg" id="tp-F" gradientUnits="userSpaceOnUse" x1="331.674" y1="203.775" x2="332.238" y2="202.169"><stop offset="0" stop-color="#151e28" stop-opacity="0"/><stop offset=".998" stop-color="#151e28"/></linearGradient><path xmlns="http://www.w3.org/2000/svg" d="M334.9 202.4l-.7 2.3-5.2-1.5.8-2.4z" fill="url(#tp-F)"/><path xmlns="http://www.w3.org/2000/svg" d="M327.6 196.3c.7-2.3 3.9-3.3 7.2-2.3s5.4 3.6 4.7 5.9-3.9 3.3-7.2 2.3-5.3-3.7-4.7-5.9z" fill="#283749"/><g xmlns="http://www.w3.org/2000/svg" fill="#445a6b"><ellipse transform="matrix(.3262 -.9453 .9453 .3262 38.4986 448.564)" cx="333.9" cy="197.3" rx=".8" ry="1.3"/><path d="M335.8 199s-.1 0-.1-.1l-2.6-1.8 4.2-.3c.2 0 .4.1.5.2s0 .3-.2.3l-2.9.2 1.5 1.1c.1.1.2.3.1.4-.2.1-.3 0-.5 0z"/></g><path xmlns="http://www.w3.org/2000/svg" d="M323.6 191.1l-.6-.3v.6zm.2 1l.6 1.4.9-1.1zm-1.5.6l.8 1.3.8-1.2zm3.1 1.1l.9.7.2-1zm2.5.4l-.7-.4v.7z" fill="#ffbca4"/><g xmlns="http://www.w3.org/2000/svg" fill="#da7f57"><path d="M318.4 207.6l1.7-.4-1.1-1.7zm5.8 1.9l.7-1.7h-2zm18.1.5l1-.7-1-.6zm-7.2 1.3l.7-1-1.4-.3zm-1.9.8l.5-1.1-1.3-.1zm-10.2-6.8l.1-1.3-1.3.6zm12.4 6.8h.9l-.4-.9zm3.3.9l-.7.6.9.4zm-17.3-7.3l-.7.8 1.1.3zm17.4 6l-.6.6.9.3zm-1.1-2.2l-.6.6.9.4zm2.1.6l-.7.4.6.6z"/><path d="M340.6 211.4l-1.2-.3.5 1.1zm1.5-1.2l-1.4-.6.1 1.7zm-22.1-1.3l1.6-2.2-3-.5zm2.5-.1l1.7.4-.4-2z"/><path d="M318.8 208l1.7.5-.3-2.1zm2.7.4l1.5-2.1-3-.6zm16.4 5.3l-.5-2-2 1.4zm-11.8-3.1l-.5-2.1-2.1 1.5z"/><path d="M334.8 212.7l-.1-1.6-1.8 1zm-13.1-5l-1.5 1.4 2.5.6z"/></g><path xmlns="http://www.w3.org/2000/svg" d="M221.7 98.9c-15.4 3.2-26.1 28.3-5 57.9 18 25.2 38.6 36.3 56.3 42.7 14.9 5.4 33.6 10.4 39.1 11.8.9.2 1.8-.3 2-1.1l8.7-27c.2-.6-.1-1.2-.6-1.5-4.5-2.2-24-12.2-39-23.9-13.4-9.9-25-30.4-30.1-40-4.8-9.9-13.3-22.7-31.4-18.9z" fill="#ad203a"/><linearGradient xmlns="http://www.w3.org/2000/svg" id="tp-G" gradientUnits="userSpaceOnUse" x1="281.931" y1="183.33" x2="279.521" y2="210.947"><stop offset="0" stop-color="#ad203a" stop-opacity="0"/><stop offset=".99" stop-color="#82052b"/></linearGradient><path xmlns="http://www.w3.org/2000/svg" d="M322.8 183.4l-8.8 27c-.3.9-1.3 1.4-2.2 1.1l-29.4-8.8c-8.8-2.9-20.2-7.4-27.4-11.1-7.2-3.8-13.8-8.9-13.8-8.9s57.5 6.2 81.6.7z" fill="url(#tp-G)"/><path xmlns="http://www.w3.org/2000/svg" d="M313.9 210.8l8.7-27.2 1.6.6c.3.1.5.5.4.9l-8.4 25.5c-.1.4-.6.6-1 .5l-1.3-.3zm-12.6-59.7l-17.1-18.2 1.3-1.2c.3-.2.7-.2.9 0l16.6 16.8c.3.3.2.7-.1 1.1l-1.6 1.5z" fill="#fff5c5"/><g xmlns="http://www.w3.org/2000/svg" fill="#820c28"><path d="M301.9 199.3l-.8 2 .3-.1-.1.3-1.7.1 1.2 1.4.5-1.1 1-.2-.6-.5 1.6-.5-1.4-1.4zm6.4 4.6l.6-1.5-1.9.1 1.3 1.4zm-8.7-3.1l-1.8.5 1.5 1.1.3-1.6zm10.4 4l.4-1-1.2-.1.8 1.1zm-6.3-1.4l-.2-1.1-.7.9.9.2zm5.8-6.6v.9l.9-.5-.9-.4zm-1.6-4.2l-1-.4v1.2l1-.8zm-1.6 7.2l.2-.9-1 .2.8.7zm-5.9-7.5l-.4 1h.9l-.5-1zm9.5-4l-1.1-.3.3 1.2.8-.9zm-6.7 2.1l-.6-.8-.2 1 .8-.2zm7.2 9.9l-1 .6 1.1.8-.1-1.4zm4 5.6l1-.3-.6-.6-.4.9zm-7.6.4l-1.1-.1.6 1 .5-.9zm4.3 1.2l-.1-2.5-2.5 1.3 2.6 1.2zm-4.9-3.8l-1 2.6 2.8-.8-1.8-1.8z"/><path d="M303.5 197l-1-.4v1.2l1-.8zm-2.3 2l-.5-.9-.6.7 1.1.2zm3.4-4.7l-1 .3.8.6.2-.9zm2.5 8.2l-1 .4.9.5.1-.9zm5.3 5.5l.6.8.7-1.4h-1.8l.5.6-1.9 1.5-1.1-1.2.1-.4h-1.7l-.2-1.5-1.3 1.3-1.1-1.2-.7 1.6-.3-2.1.8-.1-1.3-1.4-.8 1.9h.2l-.7.7.6-1.3h-1.8l1.2 1.4v.1l-1.1-1.3-.9 1.8-.1-2.5 1.6-.4-1.2-1.4-.5 1.1v-.4l-1.8 1.6-1 .2.3.3-.8.9 2.7.8.9.2 1.9-.4-.9.8 3.5.9-.1-.8 1.6-.4-1.4 1.3 3.5 1-.3-2.2 1 1.3-.3.9 1.9-.5-1.1.9 2.7.8.6-1.3.6.7.7-1.4h-1.2l-.8-1.8zm-7.4-7.9l-1.2.9 1.6.8-.4-1.7zm4.9-4.7l1 .9.1-1.5-.9.5-.1-.8-.9.5.8.4zm5.7 5.1l-.5 1.2 1.2-.3-.7-.9zm-9.8 1.8l.6-.9-1.1-.3.5 1.2zm-22.9-7.1l-1.8-.3.9 1.6.9-1.3zm1-1.9l-1.2 1.7 2.2-.1-1-1.6zm2.6 8.7l-1.2-1.5-1 1.9-.3-2.4 1.1-.2-1.2-1.5-.7 1.3-1.5-.2.8 1.4-1.5 1.4 3.5 1.1-.1-.9 2.1-.4zm-4.2-1.1l-1.1-1.6-.6 1.1-.1-1.7 1.9-.3-1.1-1.6v.1l-.2-.3-.7 1.1h.4l-.4.8v-.4l-3.1 2.8 3.4 1.2v-.8l1.6-.4zm15.9-.9l-1.4-1.2-.6 2 2-.8zm-7.3.2h2.2l-1.4-1.7-.8 1.7zm3.7.1l.8-.1-.5-.7-.5.9-.7 1.6h2.2l-1.3-1.7zm-13.9-5.4l.9-1.4-1.8-.3.9 1.7zm9.8 4.9l.6-.9-1.2-.3.6 1.2zm-5.8-3.8l-.9.7.9.4V196zm7.9-3.4l-.9-.6-.1 1 1-.4zm-1.5-5.1l-.9-.6-.3 1.2 1.2-.6zm-2.7 5.6h-1l.7.9.3-.9zm-4.5-7l-.6.9 1 .1-.4-1zm15.3-.7l-1-.4.1 1.3.9-.9zm-.8 6.2l-1 .3.9.5.1-.8zm-6.9-5.5l-.3 1 .8-.2-.5-.8zm6.3 9.5l-2.2.7 1 .7-.3.1 1 .8v-.4l.2.2.3-2.1zm-3.9-3.3l-.3 1 .9-.1-.6-.9zm-1 11h0l.3.9.6-.9-1-.1.4-.6-1.1-.1.8.8zm7.5-6.1l-1.3-.7-.1 1.6 1.4-.9zm-10.9 1l1.4-.1-.7-1.3-.7 1.4zm10.3-8l-1.3.5 1.1 1 .2-1.5z"/><path d="M304.7 197.6l-.6-1-.7 1.1 1.3-.1zm-11.9-.6l.5 1.2.7-.9-1.2-.3zm-6.1 2.9l-1-.2.5.9.5-.7zm2.1 2l-.9.1-.2-1.2 2.4.8-.4-2.4-2 1.3-.1-.1-3 2.9 3.5 1.1-.1-1.4.4.5.4-1.6zm-1.7-4.1l.2-.7v-.1l.2-.6h-.1l.1-.3-1 .3.2.1-.9.1.8.7-1.2 2.2 2.9-.6-1.2-1.1zm5.1 7l.4-1.5-.8.2-.1-.8.1.1.5-1.5-1.8.2.8.7-1.2 1.1-1.3-1.1-.6 2 1.5-.6-1.2 1.1 3.4 1.2-.1-1.3.4.2zm-7.5-14.2l-.3 1.2 1.1-.6-.8-.6zm-2.5 1.7l1 .4-.2-1.1-.8.7zm5.1-3.4h-1l.6.9.4-.9zm10.3 16.8l-.5-.5.2-.3 1.7-.2-1.2-1.5v.1l-1.1-1.3-.2.6-.8 1.4-.3-1.2-3 3 3.5 1-.1-.7 1.8-.4zm-.4-1.3l-.3.6-.2-.1-.3-.3.8-.2zm-.9.1l-.5 1.2-.2-1.1.7-.1z"/><path d="M290.9 194.4l-.9.4.9.9.1-1.3h-.1v-1.8l-1.4.8 1.4 1zm4.1.8l.9.5-.1-1-.8.5zm-2.4.9l.8.5-.1-1-.3.1v-.6l-.8.4.5.4-.1.2zm-1.7-7.6l-1.2.7 1.2.8v-1.5zm4.6 6.2l1.1-.4-.8-.7-.3 1.1zm-8.5.9l-1.2-.1.7 1 .5-.9zm-13.7-3.5l1 1.6.8-1.4-1.4-.2.7-1.1-1.8-.2.7 1.3zm1.8 5.9l.8-1.4-1.8-.2 1 1.6z"/><path d="M277.1 191.8l-.5-.8.1-.7-.5.2-.1-.3-.3.3-.4.1.1.3-.7 1.1 2.3-.2zm-2.6 6.4l-1.2-1.5-.4.7V196l1.6-.3-1.2-1.5-.9 1.9-2.4 1.9.6-.9-1.3-.2.5 1.2-.1.2 3.4 1.2-.1-1.1 1.5-.2zm3.4-1.1l-.8 1.4 2.2-.3-1.1-1.5-.3.4-1-1.6-1.1 1.8h.2l-2.7 2.3 3.4 1.2-.3-3.6 1.5-.1zm6.3-1.3l-1.2-.3.6 1.2.6-.9zm-6.4-2.7l-.9.7.9.4v-1.1zm7.6-4.2l-.9-.6-.1 1 1-.4zm-1.6-4.1l-.9-.6-.3 1.2 1.2-.6zm-2.6 5.7h-1l.7.9.3-.9zm-5.9-7.2l-.6.9 1 .1-.4-1zm3.2 4.9l-.9-.6-.2 1.3 1.1-.7zm1.8-2.5l-1 .1.6.8.4-.9zm-24.9.7l.9-1.3-1.8-.4.9 1.7zm-2.3 1.5l.9-1.3-1.8-.4.9 1.7zm5-3.1l-1.2 1.7 2.2-.1-1-1.6zm-5 .6l-.8-1.7-1.3 1.7h2.1z"/><path d="M257.9 189l-1-1.6-.6.8v-.2l-.6.4.3-.5-1.8-.4.7 1.3-2 1.1.3-2.8-2.2 1.3.2-2 .8 1.5.9-1.3-1.7-.3.2-1.3-.6.4-1.8-.4.5 1.1-1.6 1 2.7 1.7 2.2 1.1.1.3 3.1 1.8.2-3h1.7zm13.4 3.2l-1.1-1.6-1.2 1.8 2.3-.2zm-4.9-.6l-1-1.9-1.1 1.5 2.1.4zm2.1 1.9l-1-1.9-1.1 1.5 2.1.4zm-16.3-10.4l-1.8-.4.8 1.7 1-1.3zm16 7.3l.4 1.3.8-.8-1.2-.5zm-5.2-2.5l-.9.7.9.5v-1.2zm7.8-3.9l-.3.9 1-.1-.7-.8zm1.5 5.7l-2.3.1 1.5 1.7.8-1.8zm-3.2-6.4l-.7.9 1 .2-.3-1.1zm4.5.7l-1.1.4.9.9.2-1.3zm3.4 5.8h1.1l-.5-.8-.6.8zm-8.5-.2l-1-.3.5 1 .5-.7zm13-4.7l-1.1.1.6 1.1.5-1.2zm2 6.1l-.8.7 1.1.1-.3-.8zm-9.6-2.1l.1 1 .3-.1.8.3-.3-1.1-.3.2-.6-.3zm-14.7-1.5l-.6.2.4.2-1.1 1.6 2.7-.2.8 1.2.8-1.3-1.5-.1-1-1.6v-.2l-.1.1-.1-.1-.3.2z"/><path d="M265.6 194.4v.6l.8-.7-.9-.4.1.2-1.3-.1.1-1.5.7 1 .7-1.4-1.4-.2v-.2l-.3.2h-.2l.1.1-1.8 1.1-.9-1.4.1-.2 1.3.8.1-2.5-2.6 1 .8.5-1.1-.2v-1.2l-1.4 1-1-1.6-1.2 1.8 2-.1-1.8 1.2 3 1.6.2-2.3.6 1.2-.6.8 1.9-.1-1.1.7 3.2 1.6.1-1.2.7 1 1.1-1.1zm-10.8-12.9l-.8.5 1 .5-.2-1zm15.5 15.1l-.4-.5.3-.3-.7-.3-.1-.1 1.6-.3-.4.8 2.2-.4-1.2-1.5-.2.3-1.1-1.3-.2.5-.4-.6-1 1.8.9-.1-.3.6-.3-.2-.9 1.5-.1-2.8-3.3 2.7 3.4 1.4v-.9l2.2-.3zm-5.2-8.5l-1.5.4 1.2 1.3.3-1.7z"/><path d="M260.8 185.5l-1 .3.8.9.2-1.2zm9.5.7l-.8.2.7.7.1-.9zm-3.9.9l.7.7.1-1.1-.3.2.1-.6-.8.3.4.4-.2.1zm-28.4-9.2l.5 1.1.6-.8-1.1-.3zm2.9 1.7l-.6-1.2h.3l-.6-1.1-.9 1.1h1l-1 1.2h1.8zm5.3-.7l-1.2 1.3 1.8.7-.6-2zm6.1.1l-1 .2.7.9.3-1.1zm3 5.8l-.4-.7-.6.7h1zm-10.2.5l.9-1.2-1.4-.3.5-1.7.1.4.9-1-1.4-.4.3.8-.6.2.3-1.9-1.6.4.3-.5-1.5-.3.6 1.1-1.2 1.4 1.7.1-.5-1.3.1.1.2-.3 1.5 1.2-2.3.9 2.3 1.8.2-.7.6 1.2zm1.1-1.1l.8-.5v.3l.7-.5-.9-.4.1.5-.6-.3-.1.9zm2.3.3h2.1l-1-1.6-.2.3-.6-1.6-1.1 1.3 1.6.6-.6.9.1-.5-3.5 1.5 2.6 1.7.6-2.6zm-7.4-2.4l.7-2.3-2.4.9 1.7 1.4z"/></g><linearGradient xmlns="http://www.w3.org/2000/svg" id="tp-H" gradientUnits="userSpaceOnUse" x1="233.49" y1="135.298" x2="223.529" y2="99.401"><stop offset="0" stop-color="#ad203a" stop-opacity="0"/><stop offset="1" stop-color="#e85070"/></linearGradient><path xmlns="http://www.w3.org/2000/svg" d="M259.1 129.6l-3.2-6.4c-5.1-10.1-7.8-17.4-17.3-22.6-4.9-2.7-13-3.6-20.6-.4-6.5 2.7-10 8.8-11.8 15.1-2.7 9.6-.9 21.1 5.1 32.8.9 2 2.4 4 3.5 6 1-3.5 8.7-24.6 20.4-26.3 9.9-1.4 19.8.8 23.9 1.8z" fill="url(#tp-H)"/><g xmlns="http://www.w3.org/2000/svg" fill="#ea5c7a"><path d="M232.4 103.6l-.3 1.6 1.8-.5-1.5-1.1zm-.5 3.7l.4-2.1-2 1.1 1.6 1zm-2.1-4.5l.4-2.1-.2.1.6-.9-.3 1.4 1.8-.5-1.4-1.2v-.1l1.4 1 .3-1.3.4 2-1.2.6 1.5 1.2.3-1.1.9-1 .6.8-.9.3.4.4-1.1.2 1 1.3v1.2l-1.6.4 1.3 1.4.7-1.6.2-.1.1.3.5-.5.8 1.2.1-.2.7 1.8 1.3-1.4-1.9-.6.7-1.3-2-.2-.9-.3.6-.9.4.4.2-.3.3.3v.2l.1-.1.9.8.7-2 1.6-1.3-3.1-1.4-.2.7-.9.1.5-1.1-2.9-.6-.4.1.1.2-1.5.7.7-1.2-3.8-.2.4 1-1.4.7.4-1.7-3.4.3.5 1.4-.9-.7v.2-.5l-1.1 1.2.3-1.2-3.6.9 1.1 1.4-1.1-.4.2 1.5 1.2-.8 1 1.3.4-1.5.5 2.2 2.2-1.7-2.7-.6.2-.6 1.6.4-.1-.3 1-.2.9 1.8.9-2 .4.3v.5l.5-.3.5.3.4-1.9.8 2-.7.3 1.8 1.1zm6.1-1.4l-.6.2.6-1v.8zm-11 2.6l-.3 1.6 1.8-.4-1.5-1.2zm-2.3.5l1.2-.1-.9-.9-.3 1zm6.7-.8l.4 1 .6-1h-1zm-5.3 7.2l1 .3-.2-.9-.8.6zm3.2 4.1l1 .3-.2-1.3-.8 1z"/><path d="M227.4 108.6l1-.4-1-.6v1zm7.4 5.3l.1-.6.2.2.3-.5.5.9.2-.5 1.2-.3-1.1-1.4-.4 1.2h-.4l.2-.3h-1.1l.2.3-.6.1.7.9zm-8.5-5.9l.6-1-1.3-.2.7 1.2zm-7-2l.9.2-.2-1-.7.8zm-4.9-1.3l1.7-1.4-2.2-.5.5 1.9zm12.4-.8l.5-2.7-2.6 1.3 2.1 1.4zm-6.9 0l1.5-1-1.7-.7.2 1.7zm13.4 4.4l.4-.8h-1.1l.7.8zm-3 4.5l.9-.5-1-.5.1 1zm-4.1-7.7l.9-.6-1-.3.1.9zm-7.8-2l.1-3-3.3 1.7 2.6 2-.6.8 1.9.3-.6-2-.1.2zm11.3 2.9l-1.8-.5.7 1.6 1.1-1.1zm13.6.4l.6 1.8.6-.6-.6 1.3-.3.5h.4l.4 1.3.6-.4.5.4v-.9l.5-.5-.5-.1v-.1l2.1-.4-2.3-2.8-.4.8-1.6-.3zm2.8 2.7l-.1 1.9 1.4-.5-1.4 2 4.1-.4-2-3-.5.8-1.5-.8zm-1.7 1.8l-.1 1.9h.1v.3l1.3-.5-.4-.2 1.1-.5-2-1zm-5.5-4.4l-.9.6 1.1.7-.2-1.3z"/><path d="M243.4 111l-.4 1 1.1-.4-.7-.6zm-8.7 7.8l.7-1.1-1.3.1.6 1zm4-5.4l1 .4-.3-1-.7.6zm1.7 8.8l.9-.6-.9-.4v1zm-13.8-4.1l.3-1.2-1.1.5.8.7zm1.9-6.3l1.1-.1-.6-.8-.5.9zm4.4 7.7l.7-.9-.8-.2.1 1.1zm1.7-9.6l-1-.8.3-.2-1-.8-.1.4-.2-.1-.3 1.2h-.6l-.2-.8-.8 1 .6.1.2.6.8-.8-.2.7 2.5-.5zm-5.5-6.2l-1.1.3.6.7.5-1zm-10.9 7.4l1-.5-.9-.9-.1 1.4zm-3.7-5.1l.6-1-1.1.2.5.8zm8.1-.4l1 .3-.5-1-.5.7zm19.9 2l.9.6-.1-1.1-.8.5zm-1 1.9l-.4.6-.4.5h.1l-.2.3h1.1l-.1-.1.9.1-.5-.9 1.9-1.7-2.8-.4.4 1.6zm-3.4-6.2h.2l-.2 1-.2-.6-1 1.4 1.8.4-.4-.7 1.7-.9.8 1.3 1.3-1.7h-1.3l1-.9-3.1-1.7-.2 1.4-.4 1zm2.3 13.3l.6.8.6-1.1-1.2.3z"/><path d="M244.1 116.8l-.3-.3.1-1.6-1.1.5 1.7-1.3-.8-.2v-1.1l-1.5.6.1.1.4 1.9-.3.2.9.8-.1.7.9-.3zm-5.6.8l-.6.7 1 .4-.4-1.1zm-.8-15.4l-.5.5-.1-.1-.5.8 1.1.2-.2-.3.4.1-.2-1.2zm3.6 4.9l.3-.1.5-.1 3.3-1.1-2.7-2.4-.4 1-.2-.3-1 1.4.7.2-.4 1-1.7-1.4-.5 2.5 2.1-.7zm-3.9 3.4l.2-.1-.8-.6v1.1h.1l-.3.6 1.1-.1-.2-.3.3-.2-.4-.4zm-3.2-.2v1.1l.8-.4-.8-.7zm.6 6.6l1.2-.3-.8-1.2-.4 1.5zm14.8-1.4l-1.5.6 1.3 1.3.2-1.9z"/><path d="M244.4 119.5v1l-.5.6.5.2v.3l.3-.2.4.2-.1-.3 1.3-.6-1.9-1.2zm5.7-3.7l-.1 1.9.7-.3-.9 1.1-1.4-.7-.1 1.9 1.9-.8 3.2-.1-1 .3.8 1.1.4-1.2h.2l-1.8-3.1-.7.9-1.2-1zm-3.5-.8l1.5-.6-1.9-1.1-.1 1.9.5-.2v1.8l2-.9-.5-.3 4-.2-1.9-3-2.2 3.2-1.4-.6zm1.1 6.3h0l.2-1.8-1.5.6 1.1.9-1.3.5 1.3 1.3.2-1.5zm-5.3-8.2l.2-1.3-.7.2-.3-1.1-.8.6 1 .6-.3.1.9.9zm3 4.9l1.1-.2-.5-.7-.6.9zm-8.1 0l.6-.8-1-.3.4 1.1zm-1.3 5.1l.9-.9-1.3-.1.4 1zm4.8-4.6l.9.6-.1-1.1-.8.5zm-.1 9.1l1-.4-.8-.6-.2 1zm1.5-4.6l.9-.9-1.3-.1.4 1zm-3.1.2l.9.4-.2-1-.7.6zM259 137l-1.4.8 1.4 1.1V137zm-3.1-1.7l.2 1.9 1.9-1-2.1-.9zm2.3-1.9l.1 1.9.9-.4-.1.2.8-.1-.4.2 1.4 1.1.1-1.4 2.4-.1-2.2-3.3-1.4 2.4-1.6-.5zm6.1 8.9l-.2.3 3.9-.4-1.1.8 1.2.7-.8 1.5-.1-.4-1.1.8 1.2.8-.1-.8.6-.1-.8 1.7h2.1l-.3.4 1.3.4-.4.7 1.5-.3.4 1.3h-.3l.5 1.1-.9.8 1.7.7-.5-1.7.6-.6-.1.3-.3.7 1.1-.4.3.1-.1-.2 1-.3-1.4-1.7-.5 1.4-.9-.2 1.1-1.1-1.6-.2 1.6-.3-1.9-2.1-1 1.9-.4-1.1 1.1-.7-1.7-.6.2 1.5.1-.1-.2.2-1.4-1.7 2.5-.4-1.8-2.2-.4.7-.1-1.3h.1l-1.9-2.4h.1l-1.8-2.8h.1l-1.5-2-1.4 2.4-.1-.8-1.4.8 1.4 1v-1.1l1.6-.2-1.4.8 1.2.9-.6.8-2-1.2.1 1.9 1.9-.9-.4.5 1.4-.2 1.1.8v-1l1.3-.1-1.3 1.8-1.8-.5.4 1.8.3-.2v1.8l1.5-.9-1.4-1 .9.1zm-1-5.2l1.1-.1-1.1 1.5v-1.4zm-14-12.7l2.1-.9-2-1-.1 1.9zm2.7 3.9l1.8-.5-1.4-1.7-.4 2.2zm-.1-4.9l-.4 2.2 1.8-.5-1.4-1.7zm10.2 17.8l-1.3 1 1.5.9-.2-1.9zm-11.5-15.5l.4-1.2-1.1.2.7 1zm2.9 4.7l-.8.8 1.2.1-.4-.9zm-8.7-.8l.7-.6-.9-.4.2 1zm4-6.7l-1.7 1.1 1.9 1.2-.2-2.3zm-3 8.2l1-.4-.8-.6-.2 1zm-3.2-3.1l1 .4-.1-1.2-.9.8zm1.3-6.7l-.9-.6v1l.9-.4zm6.5 4.9l-.9.2.6.8.3-1zm-12.8-3l1 .6.1-1.3-1.1.7zm1.7-7.1l-.2.9 1-.2-.8-.7zm6.3 6.7h-.3l-.4-.7-.3.9.3-.1.3.8.4-.9zm10.5 11.1l.6.1-.2-.3 1.8-.9-2.2-1V130l-1.5.7 1.4 1-.5-.2.2 2.1-.1.1h.1v.2h.4z"/><path d="M255.1 124.4l.4-.5-1.2.1.6.8.1-.2.9.7-.8 1.1v-1l-1.4.8 1 .8-.3.4h2.8l-.1 1.5-.2.1-.7-1.4-1.5 1.9 2.7.7-.4-.8.6.7-.9 1.2h1.8l-.1 1.8 2-.8-1.6-1h2l-1.7-3.2-1.2 1.4.2-1 1-.4-1.2-.7h.7l-1.7-3.2-.4.5v-1l-1.4.7zm2.9 17.4l-.2 1 1-.3-.8-.7zm-5.2-21.9v.6h-.4l.3.7v.1l-1.4-.7.8-.3-1.9-1.1-.1 1.9.3-.2v1.7l.5-.3v.7l1.9-.8-.8-.2.6-.2v.2l1-.5-1.7 2 4.2.1-1.7-3.2-.4.5-1.2-1zm-3.5 10.3v-.5h.2l-.1-1-.8.7h.3l-.4.4.8.4zm1.9-.6l1.4.5-.1-1.7-1.3 1.2zm2.6 4.2l-.8 1 1 .3-.2-1.3zm-7.4-5.8l.8.3-.1-1.1-.7.8zm19.1 20.2l1.5-1-1.6-1.2.1 2.2zm2.7-.2l.2 2 1.6-1-1.8-1zm-17.4-15.4l1.5-.8-1.5-1.2v2zM260 145l-.7 1 1.1.1-.4-1.1zm-1.5-4.7l.8-.5-.9-.4.1.9zm-11.1.2l1.1.2-.3-1.1-.8.9zm-.3-5.7l.8-.4-.9-.4.1.8zm6.3 3.4l.7.6.1-.9-.8.3zm7.6 16.2l1.1.1-.4-1.1-.7 1zm-.9-5.6l.8-.5-.9-.4.1.9zm6.7 2.8l.7.7.1-.9-.8.2zm6.7 14.7l1.1.2-.3-1.1-.8.9zm1.9-6.7l.8-.4-.9-.5.1.9zm6.2 3.8l.6.8.2-.9-.8.1zm-26.4-12.8l1.1.2-.3-1.1-.8.9zm-.4-5.7l.8-.4-.9-.4.1.8zm8.3 2.8l.7.6.1-.9-.8.3zm3.7-4.7l-.9.2v-.3l-.8.4.7.7v-.5l.5.5.5-1zm2.8 8.5l-1.2 1.1 1.7.7-.5-1.8zm7.2 4.1l-2.2-.5.5 1.8.3-.3.1 1.8 1.5-1-1.4-1 1.2-.8zm-4.4.5l1.8.5-.7-1.7-1.1 1.2zm-2.8 1.3l.9-.5-.9-.6v1.1zm4-3.4l1.3-.5 1.3.6-.3-1 1.6-.1-2.7-2.7-.7 1.9-.3-1.4-1.2 1.1 1.5.6-.4.9-2.1-.5.5 1.8 1.6-1.4-.1.7zm8.7 6.1l1.3-1.1-1.8-.4.5 1.5zm-3.8 1.8l1.2-1.1-1.8-.8.6 1.9z"/><path d="M273 160.7l1-.3-.7-.9-.3 1.2zm-2.7-5l.6-.7h-1l.4.7zm12 4.7l-1.6-1.4 2.9-.7-2.6-1.9-.5.6-.4-1.3.1-.1-2.5-2.2-1.5 3.3 3.7-1-1 1 1.4.5-.6 1.7-.1-.4-1 .9 1.4.5-.3-.8.6-.2-.4 1.9 2.4-.4z"/><path d="M278.7 157.5l.3-.9-.8.4v-.3l-.7.5.8.5v-.5l.4.3zm8.6 5.3l.3.1-.1-.1 1.3-.8-2.1-1.2-.1 1.5-.9.1.8-1.3-1.6.2 1.5-.8-2.3-1.7-.5 2.1-.7-1-.7 1.1 1.3.2-.2.8 1.5-.7.7 1.1h-.3l.7 1 .7-1.1-.1.3-.1.7.9-.5zm-3.4 9.4l1.1-.1-.5-1-.6 1.1zm6.4-2.3l1.1-.1-.5-1-.6 1.1zm-9.7-1.8l.8-.5-.9-.4.1.9zm6.6 3.1l.7.7.1-1-.8.3zm8.4 2.3l.9.2-.3-1.1-.6.9zm6.3 2.2l.8-.4-1-.4.2.8zm-6.5-4.3l.8-.4-1-.4.2.8zm13.1 7.4l.7.6.1-1-.8.4zm-17.6-5.1l1-.1-.6-.9-.4 1zm21.3 6.2l.6-.7-.9-.2.3.9zm7.8 1l-.7.5.9.5-.2-1zm-23.9-12.5l1.3-.7-2-1.3-.2 1.5-.8.1.9-1.5-1.7.3 1.4-.7-2.4-1.6-.3 1.9-.6-.8-.5 1.2h1.1l-.2.8 1.6-.8.9 1.2-.7.1.8 1 .7-1.1v1.1l1-.6h.3l-.6-.1zm9.4 6.9l.8-1.5-1.7.4.9 1.1zm-6.2-3.7l.8-1.5-1.7.4.9 1.1zm-8.2-6l1.1-1.3h-1.8l.7 1.3zm17.9 10.5l1.4-.5-1.3-.7-.1 1.2zm4.6 2.5l1.3-.6-1.4-.6.1 1.2zm1.9-.3v1.4l1.4-.6-1.4-.8z"/><path d="M284.9 166l1.2-1.3-1.9-.6.7 1.9zm6.5-2.1l-2.6-1.9-.3 2.8-.1-.4-.7 1 1.5.3-.4-.8.5-.3-.1 1.8 2-.8-1.9-1.1 2.1-.6zm19.7 12.1l-.2 2.7 2.3-1.5-2.1-1.2zm-4.5.3l2.3-1.5-2.1-1.2-.2 2.7zm-9.2-5.5l2.3-1.5-2.3-1.4v2.9zm2.9 1.8l2.3-1.5-2.3-1.4v2.9zm2.9 1.7l2.5-1.4-2.5-1.5v2.9z"/></g></g></svg>